<?xml version="1.0" encoding="UTF-8"?>

<svg xmlns="http://www.w3.org/2000/svg" version="1.1"
    xmlns:freecad="http://www.freecadweb.org/wiki/index.php?title=Svg_Namespace"
	width="297mm"
	height="210mm"
	viewBox="0 0 297 210">
	<!-- Working space 0 0 297 210 -->
	<defs>
		<radialGradient
			id="radialGradient3661"
			gradientUnits="userSpaceOnUse"
			cy="29.149"
			cx="282.65"
			gradientTransform="matrix(.14777 .23089 -.24680 .15795 -26.318 -62.617)"
			r="19.571">
				<stop stop-color="#71b2f8" offset="0"/>
				<stop stop-color="#002795" offset="1"/>
		</radialGradient>
		<radialGradient
			id="radialGradient3817"
			gradientUnits="userSpaceOnUse"
			cy="33.9"
			cx="270.58"
			gradientTransform="matrix(.26631 .065024 -.17931 .73438 -60.668 -36.938)"
			r="19.571">
				<stop stop-color="#ff6d0f" offset="0"/>
				<stop stop-color="#ff1000" offset="1"/>
		</radialGradient>
	</defs>
	<!-- Set display:none to hide FreeCAD Logo -->
	<g
		style="display:inline"
		id="freecad-logo"
		transform="translate(271, 185) scale(1)"
		fill-rule="evenodd"
		stroke-width=".45621">
		<path d="m0.22811 0.22835v13.256h2.9558v-5.1876h2.09v-2.0452h-2.09v-2.2075h5.1486v-3.8087l-8.1044-0.0075z"
			stroke="#370700"
			fill="url(#radialGradient3817)"/>
		<path d="m13.386 4.1792-1.7193 0.98645-0.75925-0.26348-0.72439-1.8513-1.1395 0.05988-0.51976 1.9144-0.72743 0.34835-1.8143-0.79367-0.76632 0.85156 0.98645 1.7193-0.26957 0.75702-1.8513 0.72439 0.065967 1.1417 1.9144 0.51976 0.34835 0.72743-0.79976 1.8121 0.85156 0.76632 1.7193-0.98645 0.76311 0.27179 0.7183 1.8491 1.1478-0.06375 0.51367-1.9166 0.72743-0.34835 1.8182 0.80198 0.76632-0.85156-0.98645-1.7193 0.2657-0.76533 1.8491-0.7183-0.05766-1.1456-1.9166-0.51367-0.34835-0.72743 0.7959-1.8204-0.85156-0.76632zm-2.5751 2.8195 0.35295 0.20478 0.30579 0.27725 0.24481 0.33087 0.17611 0.36787 0.10354 0.39656 0.01715 0.4064-0.0587 0.4063-0.13396 0.38571-0.2131 0.35681-0.26894 0.30192-0.33087 0.24481-0.36787 0.17611-0.39656 0.10354-0.40863 0.02325-0.4063-0.0587-0.38571-0.13396-0.35681-0.2131-0.2997-0.27503-0.24703-0.32478-0.17611-0.36787-0.10132-0.40264-0.02324-0.40863 0.05869-0.4063 0.13396-0.38571 0.21087-0.35072 0.27116-0.30801 0.33087-0.24481 0.36787-0.17611 0.40264-0.10132 0.40641-0.01715 0.4063 0.05869 0.38571 0.13396z" 
		stroke="#000137"
		fill="url(#radialGradient3661)"/>
	</g>
<g id="View"
   transform="rotate(-90,200,150) translate(200,150) scale(0.3,0.3)"
  >
<g   fill="none"
   stroke="rgb(0, 0, 0)"
   stroke-linecap="butt"
   stroke-linejoin="miter"
   stroke-width="1.166667"
   transform="scale(1,-1)"
  >
<path id= "1" d=" M -10 -100 L -10 100 " />
<path d="M18.3064 50 A4 4 0 0 1 14.3064 46" /><path id= "3" d=" M 14.3064 46 L 14.3064 -46 " />
<path d="M14.3064 -46 A4 4 0 0 1 18.3064 -50" /><path d="M111.689 46 A4 4 0 0 1 107.689 50" /><path d="M107.689 -50 A4 4 0 0 1 111.689 -46" /><path id= "7" d=" M 111.689 46 L 111.689 -46 " />
<path d="M62.7646,-8.88178e-16 C62.7656,5.23793 62.4206,10.4652 61.7607,15.1116  C61.3065,18.3147 60.7075,21.241 59.9693,23.7854  C59.3648,25.8618 58.6754,27.6847 57.8385,29.2735  C57.4251,30.0555 56.9747,30.7818 56.4575,31.4585  C55.9398,32.134 55.3552,32.7599 54.6609,33.3106  C54.1951,33.6781 53.6793,34.0122 53.1119,34.2833  C52.5455,34.5547 51.9285,34.7621 51.2853,34.8812  C50.6426,35.001 49.9745,35.0315 49.3185,34.967  C48.6625,34.9037 48.0196,34.7444 47.4274,34.5159 " /><path d="M52.7646,-8.88178e-16 C52.7661,4.54184 52.4802,9.08322 51.9474,13.0704  C51.5977,15.6998 51.1408,18.09 50.6205,20.0733  C50.3432,21.1327 50.0481,22.0757 49.7531,22.8697  C49.4771,23.6147 49.1993,24.2285 48.9576,24.6752  C48.6638,25.2289 48.4124,25.5129 48.4093,25.5081 " /><path d="M62.7646,0 C62.7656,-5.23793 62.4206,-10.4652 61.7607,-15.1116  C61.3065,-18.3147 60.7075,-21.241 59.9693,-23.7854  C59.3648,-25.8618 58.6754,-27.6847 57.8385,-29.2735  C57.4251,-30.0555 56.9747,-30.7818 56.4575,-31.4585  C55.9398,-32.134 55.3552,-32.7599 54.6609,-33.3106  C54.1951,-33.6781 53.6793,-34.0122 53.1119,-34.2833  C52.5455,-34.5547 51.9285,-34.7621 51.2853,-34.8812  C50.6426,-35.001 49.9745,-35.0315 49.3185,-34.967  C48.6625,-34.9037 48.0196,-34.7444 47.4274,-34.5159 " /><path d="M52.7646,0 C52.7661,-4.54184 52.4802,-9.08322 51.9474,-13.0704  C51.5977,-15.6998 51.1408,-18.09 50.6205,-20.0733  C50.3432,-21.1327 50.0481,-22.0757 49.7531,-22.8697  C49.4771,-23.6147 49.1993,-24.2285 48.9576,-24.6752  C48.6638,-25.2289 48.4124,-25.5129 48.4093,-25.5081 " /><path id= "12" d=" M 337 -80 L 337 -60 " />
<path id= "13" d=" M 337 -40 L 337 40 " />
<path id= "14" d=" M 337 60 L 337 80 " />
<path id= "15" d=" M 307 -80 L 307 -60 " />
<path id= "16" d=" M 307 -40 L 307 40 " />
<path id= "17" d=" M 307 60 L 307 80 " />
<path id= "18" d=" M 302 -40 L 302 -60 " />
<path d="M10.9102,-150 C10.7576,-150 10.6071,-149.983 10.4585,-149.948  C10.3356,-149.92 10.2164,-149.88 10.1009,-149.829  C9.80742,-149.699 9.54617,-149.497 9.3466,-149.245  C9.26089,-149.137 9.18709,-149.021 9.12521,-148.898  C9.06259,-148.773 9.01365,-148.644 8.9784,-148.51  C8.95738,-148.431 8.94336,-148.356 8.93577,-148.309  C8.92747,-148.258 8.92128,-148.21 8.91721,-148.164  C8.91506,-148.139 8.91364,-148.119 8.91296,-148.103  C8.91215,-148.085 8.91166,-148.071 8.91147,-148.062  C8.91106,-148.045 8.91021,-148.018 8.91009,-148.001 " /><path d="M8.91009,-148.001 C8.91024,-145.252 8.91013,-142.446 8.91016,-139.65  C8.91016,-135.692 8.91016,-131.736 8.91016,-127.781  C8.91016,-121.854 8.91016,-115.927 8.91016,-110 " /><path d="M8.91009,148.001 C8.91024,145.252 8.91013,142.446 8.91016,139.65  C8.91016,135.691 8.91016,131.734 8.91016,127.779  C8.91016,121.852 8.91016,115.926 8.91016,110 " /><path d="M10.9102,150 C10.7576,150 10.6071,149.983 10.4585,149.948  C10.3356,149.92 10.2164,149.88 10.1009,149.829  C9.80742,149.699 9.54617,149.497 9.3466,149.245  C9.26089,149.137 9.18709,149.021 9.12521,148.898  C9.06259,148.773 9.01365,148.644 8.9784,148.51  C8.95738,148.431 8.94336,148.356 8.93577,148.309  C8.92747,148.258 8.92128,148.21 8.91721,148.164  C8.91506,148.139 8.91364,148.119 8.91296,148.103  C8.91215,148.085 8.91166,148.071 8.91147,148.062  C8.91106,148.045 8.91021,148.018 8.91009,148.001 " /><path id= "23" d=" M 302 40 L 302 60 " />
<path d="M-5,-101 L-5,-101 " /><path d="M-5,101 L-5,101 " /><path id= "26" d=" M -5 -130 L -5 -100 " />
<path id= "27" d=" M -5 100 L -5 130 " />
<path d="M-27.3396,133.208 C-26.4074,132.199 -25.2638,131.386 -24.005,130.837  C-22.7469,130.286 -21.3735,129.999 -20,130 " /><path d="M-27.3383,146.793 C-26.6645,147.521 -25.8815,148.148 -25.0236,148.647  C-23.5073,149.53 -21.7549,150.002 -20,150 " /><path d="M-27.5599,133.455 C-27.9482,133.902 -28.3061,134.413 -28.6336,134.99  C-28.9585,135.569 -29.2467,136.222 -29.4687,136.947  C-29.6908,137.67 -29.8444,138.467 -29.8994,139.296  C-29.956,140.122 -29.9097,140.981 -29.7727,141.773  C-29.6207,142.665 -29.3609,143.477 -29.0419,144.196  C-28.7221,144.915 -28.343,145.54 -27.9307,146.085 " /><path d="M-27.3396,-146.792 C-26.4074,-147.801 -25.2638,-148.614 -24.005,-149.163  C-22.7469,-149.714 -21.3735,-150.001 -20,-150 " /><path d="M-27.3383,-133.207 C-26.6645,-132.479 -25.8815,-131.852 -25.0236,-131.353  C-23.5073,-130.47 -21.7549,-129.998 -20,-130 " /><path d="M-27.5599,-146.545 C-27.9482,-146.098 -28.3061,-145.587 -28.6336,-145.01  C-28.9585,-144.431 -29.2467,-143.778 -29.4687,-143.053  C-29.6908,-142.33 -29.8444,-141.533 -29.8994,-140.704  C-29.956,-139.878 -29.9097,-139.019 -29.7727,-138.227  C-29.6207,-137.335 -29.3609,-136.523 -29.0419,-135.804  C-28.7221,-135.085 -28.343,-134.46 -27.9307,-133.915 " /><path d="M-27.344,133.213 C-26.4117,132.203 -25.2676,131.388 -24.008,130.838  C-22.7491,130.287 -21.3746,129.999 -20,130 " /><path d="M-27.344,146.787 C-26.6689,147.518 -25.8839,148.147 -25.0236,148.647  C-23.5073,149.53 -21.7549,150.002 -20,150 " /><path d="M-27.3438,133.213 C-27.7578,133.661 -28.1457,134.169 -28.4968,134.754  C-28.8472,135.339 -29.1608,136.003 -29.4058,136.748  C-29.6507,137.492 -29.8244,138.318 -29.8912,139.181  C-29.9597,140.043 -29.9162,140.944 -29.7727,141.773  C-29.6207,142.665 -29.3609,143.477 -29.0419,144.196  C-28.7221,144.915 -28.343,145.54 -27.9307,146.085 " /><path d="M-8.67966,136.128 C-8.61349,136.463 -8.52533,136.977 -8.45595,137.653  C-8.38599,138.325 -8.33899,139.159 -8.33988,140.002  C-8.33914,140.845 -8.38624,141.678 -8.45612,142.349  C-8.52543,143.023 -8.61336,143.536 -8.67965,143.872 " /><path d="M-8.67967 136.128 A20 20 0 0 1 -8.67693 136.142" /><path d="M-8.67532 143.85 A20 20 0 0 1 -8.67966 143.872" /><path d="M-27.344,-146.787 C-26.4117,-147.797 -25.2676,-148.612 -24.008,-149.162  C-22.7491,-149.713 -21.3746,-150.001 -20,-150 " /><path d="M-27.344,-133.213 C-26.6689,-132.482 -25.8839,-131.853 -25.0236,-131.353  C-23.5073,-130.47 -21.7549,-129.998 -20,-130 " /><path d="M-27.3438,-146.787 C-27.7578,-146.339 -28.1457,-145.831 -28.4968,-145.246  C-28.8472,-144.661 -29.1608,-143.997 -29.4058,-143.252  C-29.6507,-142.508 -29.8244,-141.682 -29.8912,-140.819  C-29.9597,-139.957 -29.9162,-139.056 -29.7727,-138.227  C-29.6207,-137.335 -29.3609,-136.523 -29.0419,-135.804  C-28.7221,-135.085 -28.343,-134.46 -27.9307,-133.915 " /><path d="M-8.67966,-143.872 C-8.61349,-143.537 -8.52533,-143.023 -8.45595,-142.347  C-8.38599,-141.675 -8.33899,-140.841 -8.33988,-139.998  C-8.33914,-139.155 -8.38624,-138.322 -8.45612,-137.651  C-8.52543,-136.977 -8.61336,-136.464 -8.67965,-136.128 " /><path d="M-8.67967 -143.872 A20 20 0 0 1 -8.67693 -143.858" /><path d="M-8.67532 -136.15 A20 20 0 0 1 -8.67966 -136.128" /><path id= "46" d=" M 372.711 200 L 372.711 -5.3889e-05 " />
<path id= "47" d=" M 412.711 200 L 412.711 -3.59259e-05 " />
<path d="M372.711,200 C372.715,203.398 372.222,206.796 371.346,209.746  C371.089,210.615 370.805,211.44 370.493,212.221  C370,213.463 369.446,214.578 368.878,215.532  C368.139,216.774 367.377,217.737 366.717,218.413 " /><path d="M412.711,200 C412.713,208.744 411.204,217.48 408.259,225.446  C406.044,231.445 403.019,237.013 399.256,241.855  C396.022,246.018 392.238,249.647 388,252.54  C385.222,254.436 382.249,256.017 379.141,257.222  C376.033,258.428 372.79,259.258 369.494,259.678 " /><path d="M374.477,254.572 C373.082,256.427 371.418,258.158 369.544,259.638  C367.671,261.12 365.588,262.353 363.373,263.251  C361.159,264.15 358.814,264.714 356.434,264.905  C354.054,265.098 351.639,264.915 349.307,264.392  C348.598,264.234 347.899,264.047 347.21,263.832  C346.519,263.616 345.836,263.374 345.161,263.106  C343.819,262.577 342.514,261.936 341.516,261.417 " /><path d="M339.652,260.468 Q339.645,260.466 339.645,260.465 " /><path d="M343.187,260.002 C343.186,260.003 343.122,260.05 342.897,260.241  C342.785,260.337 342.627,260.473 342.422,260.649  C342.218,260.825 341.963,261.043 341.684,261.277  C341.062,261.798 340.369,262.349 339.644,262.866  C338.919,263.385 338.162,263.873 337.398,264.308  C336.633,264.743 335.862,265.126 335.087,265.455  C334.311,265.785 333.533,266.062 332.73,266.291  C331.389,266.674 330.046,266.901 328.708,266.977  C327.367,267.054 326.016,266.978 324.653,266.748  C321.93,266.292 319.203,265.197 316.653,263.565  C316.099,263.212 315.505,262.801 314.931,262.372  C314.356,261.943 313.799,261.494 313.311,261.082 " /><path d="M315.37,259.937 Q315.379,259.933 315.379,259.933 " /><path d="M315.379,259.933 C315.381,259.932 315.289,259.971 314.978,260.143  C314.671,260.31 314.146,260.618 313.454,261.003  C312.765,261.386 311.919,261.83 311.043,262.222  C310.166,262.615 309.261,262.956 308.444,263.207  C305.957,263.978 303.457,264.235 301.03,263.97  C299.819,263.838 298.635,263.58 297.478,263.196  C296.32,262.812 295.173,262.301 294.006,261.649  C293.693,261.473 293.323,261.256 292.978,261.042  C292.632,260.828 292.313,260.62 292.056,260.451  C291.799,260.281 291.598,260.148 291.453,260.052  C291.307,259.956 291.211,259.895 291.145,259.854 " /><path d="M291.204,259.837 Q291.259,259.847 291.26,259.846 " /><path d="M291.26,259.846 C291.262,259.845 291.177,259.845 291.048,259.881 " /><path d="M374.471,225.42 C372.196,222.389 369.205,219.719 365.768,217.876  C364.051,216.952 362.225,216.232 360.34,215.749  C358.455,215.265 356.51,215.019 354.566,215.02 " /><path d="M343.187,219.998 C343.186,219.997 343.149,219.97 343.014,219.858  C342.883,219.748 342.646,219.544 342.301,219.247  C341.958,218.952 341.501,218.563 340.989,218.154  C340.48,217.744 339.917,217.324 339.412,216.97  C337.571,215.677 335.63,214.666 333.654,213.997  C332.666,213.662 331.675,213.411 330.68,213.244  C329.686,213.077 328.697,212.994 327.699,212.994 " /><path d="M314.037,219.842 C314.408,219.842 314.726,219.885 314.969,219.942  C315.21,219.997 315.375,220.065 315.379,220.067 " /><path d="M315.379,220.067 C315.379,220.067 315.242,220.009 314.771,219.742  C314.535,219.608 314.22,219.429 313.824,219.204  C313.432,218.983 312.962,218.722 312.493,218.48  C311.011,217.708 309.384,217.031 307.76,216.594  C306.131,216.151 304.509,215.93 302.897,215.929 " /><path d="M291.257,220.154 C291.24,220.155 291.16,220.15 291.048,220.119 " /><path d="M354.566,215.02 C353.353,215.02 352.211,215.112 351.073,215.28  C349.937,215.448 348.803,215.698 347.67,216.029  C346.539,216.358 345.407,216.775 344.346,217.231  C343.286,217.685 342.3,218.176 341.515,218.583 " /><path d="M339.645,219.534 L339.645,219.534 " /><path d="M327.699,212.994 C325.566,212.994 323.407,213.376 321.272,214.143  C319.139,214.905 317.046,216.067 315.118,217.49  C314.514,217.933 313.866,218.448 313.311,218.918 " /><path d="M302.897,215.929 C301.953,215.93 301.059,216.003 300.168,216.146  C299.281,216.288 298.401,216.502 297.527,216.788  C296.651,217.075 295.771,217.441 294.905,217.875  C294.04,218.307 293.195,218.808 292.402,219.323  C292.032,219.563 291.743,219.757 291.543,219.889  C291.342,220.022 291.222,220.098 291.145,220.146 " /><path d="M291.204,220.163 Q291.259,220.153 291.26,220.154 " /><path d="M291.26,220.154 Q291.261,220.154 291.257,220.154 " /><path d="M291.048,220.119 C290.928,220.087 290.775,220.025 290.634,219.947  C290.449,219.846 290.287,219.72 290.194,219.635 " /><path d="M291.048,259.881 C290.928,259.913 290.775,259.975 290.634,260.053  C290.449,260.154 290.287,260.28 290.194,260.365 " /><path d="M280.645,215.703 C282.275,215.706 283.857,216.009 285.438,216.63  C287.017,217.257 288.597,218.195 290.194,219.635 " /><path d="M280.645,215.703 C279.312,215.704 277.947,215.909 276.518,216.386  C275.089,216.868 273.596,217.623 272.033,218.843  C271.334,219.398 270.623,220.038 269.909,220.808  C269.196,221.577 268.479,222.476 267.783,223.53  C267.087,224.583 266.412,225.792 265.798,227.166  C265.185,228.54 264.633,230.078 264.199,231.772  C263.772,233.409 263.461,235.205 263.301,237.048  C263.14,238.89 263.13,240.779 263.273,242.62  C263.414,244.461 263.708,246.254 264.122,247.922  C264.534,249.591 265.065,251.135 265.65,252.497  C266.443,254.342 267.341,255.88 268.261,257.165  C269.183,258.451 270.128,259.485 271.056,260.33  C271.986,261.175 272.899,261.832 273.785,262.357  C274.673,262.881 275.535,263.273 276.379,263.566  C277.502,263.956 278.587,264.173 279.646,264.257  C280.703,264.339 281.742,264.293 282.762,264.119  C284.01,263.908 285.241,263.515 286.476,262.912  C287.71,262.306 288.948,261.49 290.194,260.365 " /><path id= "72" d=" M 412.711 -200 L 412.711 -5.72416e-05 " />
<path id= "73" d=" M 372.711 -200 L 372.711 -2.97418e-05 " />
<path d="M372.711,-200 C372.715,-203.398 372.222,-206.796 371.346,-209.746  C371.089,-210.615 370.805,-211.44 370.493,-212.221  C370,-213.463 369.446,-214.578 368.878,-215.532  C368.139,-216.774 367.377,-217.738 366.717,-218.413 " /><path d="M412.711,-200 C412.713,-208.744 411.203,-217.48 408.259,-225.446  C406.044,-231.445 403.019,-237.013 399.256,-241.855  C396.022,-246.018 392.238,-249.647 388,-252.54  C385.222,-254.436 382.249,-256.017 379.141,-257.222  C376.033,-258.428 372.79,-259.258 369.494,-259.678 " /><path d="M374.477,-254.572 C373.082,-256.427 371.418,-258.158 369.544,-259.639  C367.671,-261.121 365.587,-262.353 363.373,-263.251  C361.159,-264.15 358.814,-264.714 356.434,-264.905  C354.054,-265.098 351.639,-264.915 349.307,-264.392  C348.598,-264.234 347.899,-264.047 347.21,-263.832  C346.519,-263.616 345.836,-263.374 345.161,-263.106  C343.819,-262.577 342.514,-261.936 341.516,-261.417 " /><path d="M339.652,-260.468 Q339.645,-260.466 339.645,-260.466 " /><path d="M343.187,-260.003 C343.186,-260.003 343.122,-260.05 342.897,-260.241  C342.785,-260.337 342.626,-260.473 342.422,-260.649  C342.218,-260.825 341.963,-261.044 341.683,-261.278  C341.062,-261.799 340.368,-262.349 339.644,-262.866  C338.919,-263.385 338.162,-263.873 337.398,-264.308  C336.633,-264.744 335.862,-265.126 335.087,-265.456  C334.311,-265.785 333.532,-266.062 332.73,-266.291  C331.389,-266.674 330.046,-266.902 328.708,-266.978  C327.367,-267.054 326.016,-266.978 324.653,-266.748  C321.929,-266.292 319.203,-265.197 316.653,-263.565  C316.099,-263.212 315.505,-262.802 314.931,-262.372  C314.355,-261.943 313.799,-261.494 313.311,-261.082 " /><path d="M315.37,-259.937 Q315.379,-259.933 315.379,-259.933 " /><path d="M315.379,-259.933 C315.381,-259.932 315.289,-259.971 314.977,-260.143  C314.671,-260.31 314.146,-260.618 313.454,-261.003  C312.765,-261.386 311.919,-261.83 311.043,-262.222  C310.166,-262.616 309.26,-262.956 308.444,-263.207  C305.956,-263.978 303.457,-264.235 301.03,-263.97  C299.819,-263.838 298.635,-263.58 297.478,-263.196  C296.32,-262.812 295.173,-262.301 294.006,-261.649  C293.693,-261.473 293.322,-261.257 292.978,-261.042  C292.632,-260.828 292.313,-260.62 292.056,-260.451  C291.799,-260.281 291.598,-260.148 291.453,-260.052  C291.307,-259.956 291.211,-259.895 291.145,-259.854 " /><path d="M291.204,-259.837 Q291.259,-259.847 291.26,-259.846 " /><path d="M291.26,-259.846 C291.262,-259.845 291.177,-259.845 291.048,-259.881 " /><path d="M374.471,-225.42 C372.196,-222.389 369.205,-219.719 365.768,-217.876  C364.051,-216.952 362.225,-216.232 360.34,-215.749  C358.455,-215.265 356.51,-215.019 354.566,-215.02 " /><path d="M343.187,-219.998 C343.186,-219.997 343.149,-219.97 343.014,-219.858  C342.883,-219.748 342.645,-219.544 342.301,-219.247  C341.958,-218.952 341.501,-218.563 340.989,-218.154  C340.48,-217.745 339.917,-217.324 339.412,-216.97  C337.571,-215.678 335.63,-214.666 333.654,-213.997  C332.666,-213.662 331.675,-213.411 330.68,-213.244  C329.686,-213.077 328.697,-212.994 327.699,-212.994 " /><path d="M314.037,-219.842 C314.408,-219.842 314.726,-219.885 314.969,-219.942  C315.21,-219.997 315.375,-220.065 315.379,-220.067 " /><path d="M315.379,-220.067 C315.379,-220.067 315.242,-220.009 314.771,-219.742  C314.535,-219.608 314.22,-219.429 313.824,-219.204  C313.432,-218.983 312.962,-218.723 312.493,-218.48  C311.011,-217.708 309.384,-217.032 307.76,-216.594  C306.131,-216.151 304.509,-215.93 302.897,-215.929 " /><path d="M291.257,-220.154 C291.24,-220.155 291.16,-220.15 291.047,-220.119 " /><path d="M354.566,-215.02 C353.353,-215.02 352.211,-215.112 351.073,-215.28  C349.937,-215.449 348.803,-215.698 347.67,-216.029  C346.539,-216.358 345.407,-216.775 344.346,-217.231  C343.286,-217.685 342.3,-218.176 341.515,-218.583 " /><path d="M339.645,-219.534 L339.645,-219.535 " /><path d="M327.699,-212.994 C325.566,-212.994 323.407,-213.376 321.272,-214.143  C319.139,-214.905 317.046,-216.067 315.117,-217.49  C314.514,-217.933 313.866,-218.449 313.311,-218.918 " /><path d="M302.897,-215.929 C301.953,-215.93 301.059,-216.004 300.168,-216.146  C299.281,-216.288 298.401,-216.502 297.527,-216.788  C296.651,-217.075 295.771,-217.441 294.905,-217.875  C294.04,-218.307 293.195,-218.808 292.402,-219.323  C292.032,-219.563 291.743,-219.757 291.543,-219.889  C291.342,-220.022 291.222,-220.098 291.145,-220.146 " /><path d="M291.204,-220.163 Q291.259,-220.153 291.26,-220.154 " /><path d="M291.26,-220.154 Q291.261,-220.154 291.257,-220.154 " /><path d="M291.047,-220.119 C290.928,-220.087 290.775,-220.025 290.634,-219.947  C290.449,-219.846 290.287,-219.72 290.194,-219.635 " /><path d="M291.048,-259.881 C290.928,-259.913 290.775,-259.975 290.634,-260.053  C290.449,-260.154 290.287,-260.28 290.194,-260.365 " /><path d="M280.645,-215.703 C282.275,-215.706 283.857,-216.009 285.438,-216.63  C287.017,-217.257 288.597,-218.195 290.194,-219.635 " /><path d="M280.645,-215.703 C279.312,-215.704 277.947,-215.909 276.518,-216.386  C275.089,-216.868 273.596,-217.623 272.033,-218.843  C271.334,-219.398 270.623,-220.038 269.909,-220.808  C269.196,-221.577 268.479,-222.476 267.783,-223.53  C267.087,-224.583 266.412,-225.792 265.798,-227.166  C265.185,-228.54 264.633,-230.078 264.199,-231.772  C263.772,-233.409 263.461,-235.205 263.301,-237.048  C263.14,-238.89 263.13,-240.779 263.273,-242.62  C263.414,-244.461 263.708,-246.254 264.122,-247.922  C264.534,-249.591 265.065,-251.135 265.649,-252.497  C266.443,-254.342 267.341,-255.88 268.261,-257.165  C269.183,-258.451 270.128,-259.485 271.056,-260.33  C271.985,-261.175 272.898,-261.832 273.785,-262.357  C274.673,-262.881 275.535,-263.273 276.379,-263.566  C277.502,-263.956 278.587,-264.173 279.646,-264.257  C280.703,-264.339 281.742,-264.293 282.762,-264.119  C284.01,-263.908 285.241,-263.515 286.476,-262.912  C287.71,-262.306 288.948,-261.49 290.194,-260.365 " /><path id= "98" d=" M 158.28 -70 L 214.849 -70 " />
<path id= "99" d=" M 158.28 -30 L 214.849 -30 " />
<path id= "100" d=" M 214.85 -65 L 271.419 -65 " />
<path id= "101" d=" M 214.85 -35 L 271.419 -35 " />
<path id= "102" d=" M 271.42 -60 L 372.711 -60 " />
<path id= "103" d=" M 271.42 -40 L 372.711 -40 " />
<path d="M134.075,-70 C137.926,-70 141.729,-70 145.307,-70  C148.503,-70 151.513,-70 154.257,-70  C155.667,-70 157.008,-70 158.28,-70 " /><path d="M134.075,-30 C137.926,-30 141.729,-30 145.307,-30  C148.503,-30 151.513,-30 154.257,-30  C155.667,-30 157.008,-30 158.28,-30 " /><path id= "106" d=" M 158.28 30 L 214.849 30 " />
<path id= "107" d=" M 158.28 70 L 214.849 70 " />
<path id= "108" d=" M 214.85 35 L 271.419 35 " />
<path id= "109" d=" M 214.85 65 L 271.419 65 " />
<path id= "110" d=" M 271.42 40 L 372.711 40 " />
<path id= "111" d=" M 271.42 60 L 372.711 60 " />
<path d="M134.075,70 C137.926,70 141.729,70 145.307,70  C148.503,70 151.513,70 154.257,70  C155.667,70 157.008,70 158.28,70 " /><path d="M134.075,30 C137.926,30 141.729,30 145.307,30  C148.503,30 151.513,30 154.257,30  C155.667,30 157.008,30 158.28,30 " /></g>
<g   fill="none"
   stroke="rgb(0, 0, 0)"
   stroke-linecap="butt"
   stroke-linejoin="miter"
   stroke-width="1.166667"
   transform="scale(1,-1)"
  >
<path id= "1" d=" M 134.075 30 L 158.28 30 " />
<path id= "2" d=" M 160 29 L 160 -29 " />
<path id= "3" d=" M 134.075 -30 L 158.28 -30 " />
<path d="M160 29 A1 1 0 0 1 159 30" /><path d="M159 -30 A1 1 0 0 1 160 -29" /><path d="M3.38471,99.7319 C2.90414,99.5685 2.44455,99.3268 2.04592,99.034 " /><path d="M1.7782,98.8236 Q1.66003,98.724 1.54995,98.619 " /><path d="M1.40426,98.4743 L1.3943,98.4639 " /><path d="M1.39412,98.4638 L1.38921,98.4586 " /><path d="M1.38861,98.458 Q1.03134,98.0828 0.770254,97.6663 " /><path d="M0.599943,97.3748 Q0.446097,97.0891 0.332819,96.7937 " /><path d="M0.139686,96.1736 Q0.0877488,95.9583 0.0552292,95.7411 " /><path d="M1.46812e-05,95.0121 L4.91618e-06,95.007 " /><path d="M4.87906e-06,95.007 L4.55571e-06,95.0067 " /><path d="M5,100 Q4.54173,100.002 4.05394,99.9097 " /><path d="M4.05007,99.9089 L4.05006,99.9089 " /><path d="M4.04619,99.9082 C3.34094,99.7745 2.62447,99.462 2.04592,99.034 " /><path d="M1.7782,98.8236 Q1.66003,98.724 1.54995,98.619 " /><path d="M1.40426,98.4743 L1.3943,98.464 " /><path d="M1.39412,98.4638 L1.38921,98.4586 " /><path d="M1.3889,98.4583 Q1.03145,98.0829 0.770254,97.6663 " /><path d="M0.599943,97.3748 Q0.446097,97.0891 0.332819,96.7937 " /><path d="M0.139686,96.1736 Q0.0877488,95.9583 0.0552292,95.7411 " /><path d="M1.46812e-05,95.0121 L4.91618e-06,95.007 " /><path d="M4.87906e-06,95.007 L4.55571e-06,95.0067 " /><path d="M-10,-100 L-9.93712,-100  L-9.74928,-100  L-9.43883,-100  L-9.00969,-100  L-8.46724,-100  L-7.81831,-100  L-7.07107,-100  L-6.2349,-100  L-5.32032,-100  L-4.33884,-100  L-3.30279,-100  L-2.22521,-100  L-1.11964,-100  L-2.44249e-15,-100 " /><path d="M5,100 Q4.54173,100.002 4.05394,99.9097 " /><path d="M4.05007,99.9089 L4.05006,99.9089 " /><path d="M4.04619,99.9082 C3.34094,99.7745 2.62447,99.462 2.04592,99.034 " /><path d="M1.7782,98.8236 Q1.66003,98.724 1.54995,98.619 " /><path d="M1.40426,98.4743 L1.3943,98.4639 " /><path d="M1.39412,98.4638 L1.38921,98.4586 " /><path d="M1.3889,98.4583 Q1.03145,98.0829 0.770253,97.6663 " /><path d="M0.599943,97.3748 Q0.446097,97.0891 0.332819,96.7937 " /><path d="M0.139686,96.1736 Q0.0877488,95.9583 0.0552292,95.7411 " /><path d="M1.46812e-05,95.0121 L4.91618e-06,95.007 " /><path d="M4.87906e-06,95.007 L4.55571e-06,95.0067 " /><path d="M-10,100 L-9.93712,100  L-9.74928,100  L-9.43883,100  L-9.00969,100  L-8.46724,100  L-7.81831,100  L-7.07107,100  L-6.2349,100  L-5.32032,100  L-4.33884,100  L-3.30279,100  L-2.22521,100  L-1.11964,100  L-2.44249e-15,100 " /><path id= "39" d=" M 129.075 -100 L 5 -100 " />
<path id= "40" d=" M 129.075 100 L 5 100 " />
<path d="M0,-100 C1.74603,-100 3.48792,-100 5,-100 " /><path d="M0,100 C1.74603,100 3.48792,100 5,100 " /><path d="M-1.42109e-14,95 Q-1.9799e-05,95.3279 0.0429895,95.6543 " /><path id= "44" d=" M -1.1e-15 -95 L -4.29e-14 95 " />
<path d="M2.77556e-17,-95 C0.00144672,-95.9725 0.279053,-96.9525 0.876296,-97.8276  C1.06654,-98.1066 1.29033,-98.3697 1.54766,-98.6168  C2.05993,-99.1095 2.72656,-99.5196 3.44589,-99.7523  C3.96941,-99.9243 4.50644,-100.001 5,-100 " /><path id= "46" d=" M -31.9397 -95 L -10 -95 " />
<path id= "47" d=" M -31.9397 -80 L -10 -80 " />
<path id= "48" d=" M -31.9397 -80 L -31.9397 -95 " />
<path id= "49" d=" M -31.9397 -70 L -10 -70 " />
<path id= "50" d=" M -31.9397 -55 L -10 -55 " />
<path id= "51" d=" M -31.9397 -55 L -31.9397 -70 " />
<path id= "52" d=" M -31.9397 -45 L -10 -45 " />
<path id= "53" d=" M -31.9397 -30 L -10 -30 " />
<path id= "54" d=" M -31.9397 -30 L -31.9397 -45 " />
<path id= "55" d=" M -31.9397 -20 L -10 -20 " />
<path id= "56" d=" M -31.9397 -5 L -10 -5 " />
<path id= "57" d=" M -31.9397 -5 L -31.9397 -20 " />
<path id= "58" d=" M -31.9397 5 L -10 5 " />
<path id= "59" d=" M -31.9397 20 L -10 20 " />
<path id= "60" d=" M -31.9397 20 L -31.9397 5 " />
<path id= "61" d=" M -31.9397 30 L -10 30 " />
<path id= "62" d=" M -31.9397 45 L -10 45 " />
<path id= "63" d=" M -31.9397 45 L -31.9397 30 " />
<path id= "64" d=" M -31.9397 55 L -10 55 " />
<path id= "65" d=" M -31.9397 70 L -10 70 " />
<path id= "66" d=" M -31.9397 70 L -31.9397 55 " />
<path id= "67" d=" M -31.9397 80 L -10 80 " />
<path id= "68" d=" M -31.9397 95 L -10 95 " />
<path id= "69" d=" M -31.9397 95 L -31.9397 80 " />
<path d="M5 -100 A5 5 0 0 0 0 -95" /><path d="M129.075 -100 A5 5 0 0 1 134.075 -95" /><path id= "72" d=" M 134.075 -95 L 134.075 95 " />
<path d="M5 100 A5 5 0 0 1 -4.26326e-14 95" /><path d="M129.075 100 A5 5 0 0 0 134.075 95" /><path id= "75" d=" M 107.689 50 L 18.824 50 " />
<path id= "76" d=" M 18.3064 50 L 18.824 50 " />
<path id= "77" d=" M 18.3064 -50 L 18.824 -50 " />
<path id= "78" d=" M 107.689 -50 L 18.824 -50 " />
<path d="M47.4274,34.5159 C46.5544,34.1806 45.7811,33.5758 45.2295,32.7995  C44.4444,31.7082 44.1201,30.2794 44.349,28.9397  C44.5493,27.7133 45.2057,26.5741 46.1561,25.8128  C46.9388,25.1789 47.9151,24.806 48.9083,24.7653 " /><path d="M47.4274,-34.5159 C46.5544,-34.1806 45.7811,-33.5758 45.2295,-32.7995  C44.4444,-31.7082 44.1201,-30.2794 44.349,-28.9397  C44.5493,-27.7133 45.2057,-26.5741 46.1561,-25.8128  C46.9388,-25.1789 47.9151,-24.806 48.9083,-24.7653 " /><path d="M322,80 L323.679,80  L325.338,80  L326.954,80  L328.508,80  L329.98,80  L331.352,80  L332.607,80  L333.727,80  L334.701,80  L335.515,80  L336.158,80  L336.624,80  L336.906,80  L337,80 " /><path d="M307,80 L307.094,80  L307.376,80  L307.842,80  L308.485,80  L309.299,80  L310.273,80  L311.393,80  L312.648,80  L314.02,80  L315.492,80  L317.046,80  L318.662,80  L320.321,80  L322,80 " /><path d="M322,-80 L323.679,-80  L325.338,-80  L326.954,-80  L328.508,-80  L329.98,-80  L331.352,-80  L332.607,-80  L333.727,-80  L334.701,-80  L335.515,-80  L336.158,-80  L336.624,-80  L336.906,-80  L337,-80 " /><path d="M307,-80 L307.094,-80  L307.376,-80  L307.842,-80  L308.485,-80  L309.299,-80  L310.273,-80  L311.393,-80  L312.648,-80  L314.02,-80  L315.492,-80  L317.046,-80  L318.662,-80  L320.321,-80  L322,-80 " /><path d="M302,-60 L302.126,-60  L302.501,-60  L303.122,-60  L303.981,-60  L305.066,-60  L306.363,-60  L307.858,-60  L309.53,-60  L311.359,-60  L313.322,-60  L315.394,-60  L317.55,-60  L319.761,-60  L322,-60 " /><path d="M302,-40 L302.126,-40  L302.501,-40  L303.122,-40  L303.981,-40  L305.066,-40  L306.363,-40  L307.858,-40  L309.53,-40  L311.359,-40  L313.322,-40  L315.394,-40  L317.55,-40  L319.761,-40  L322,-40 " /><path id= "87" d=" M 88.8412 130 L 129 130 " />
<path id= "88" d=" M 130 129 L 130 99.9136 " />
<path id= "89" d=" M 130 -99.9136 L 130 -119 " />
<path id= "90" d=" M 88.8412 -120 L 129 -120 " />
<path d="M130 129 A1 1 0 0 1 129 130" /><path d="M129 -120 A1 1 0 0 1 130 -119" /><path d="M86.8412,-150 L85.9245,-150  L83.2186,-150  L78.8542,-150  L73.0417,-150  L66.0616,-150  L58.2507,-150  L49.9858,-150  L41.6656,-150  L33.6917,-150  L26.4487,-150  L20.2861,-150  L15.5011,-150  L12.3247,-150  L10.9102,-150 " /><path d="M57,-150 L56.8498,-150  L56.4001,-150  L55.6538,-150  L54.6157,-150  L53.2925,-150  L51.6925,-150  L49.826,-150  L47.7049,-150  L45.3428,-150  L42.7548,-150  L39.9574,-150  L36.9686,-150  L33.8073,-150  L30.4939,-150 " /><path d="M30.4939,-150 L33.8073,-150  L36.9686,-150  L39.9574,-150  L42.7548,-150  L45.3428,-150  L47.7049,-150  L49.826,-150  L51.6925,-150  L53.2925,-150  L54.6157,-150  L55.6538,-150  L56.4001,-150  L56.8498,-150  L57,-150 " /><path d="M57,-150 L56.8498,-150  L56.4001,-150  L55.6538,-150  L54.6157,-150  L53.2925,-150  L51.6925,-150  L49.826,-150  L47.7049,-150  L45.3428,-150  L42.7548,-150  L39.9574,-150  L36.9686,-150  L33.8073,-150  L30.4939,-150 " /><path d="M86.8412 -150 A2 2 0 0 1 88.8412 -148" /><path d="M86.9754,-149.995 Q87.0474,-149.991 87.129,-149.979 " /><path d="M87.3439,-149.936 Q87.4751,-149.903 87.6325,-149.837 " /><path d="M87.9748,-149.648 Q88.1502,-149.528 88.3101,-149.357 " /><path d="M88.5751,-148.997 Q88.6762,-148.821 88.7411,-148.625 " /><path id= "102" d=" M 88.8412 -148 L 88.8412 -100 " />
<path id= "103" d=" M 88.8412 100 L 88.8412 148 " />
<path d="M8.84221,-110 Q8.84984,-110 8.91379,-110 " /><path d="M8.84221,110 Q8.84984,110 8.91379,110 " /><path d="M8.84221,-110 L8.84121,-110 " /><path d="M8.84221,110 L8.84121,110 " /><path id= "108" d=" M 8.84121 -110 L 8.84121 -100 " />
<path id= "109" d=" M 8.84121 100 L 8.84121 110 " />
<path d="M86.8412,150 L85.9245,150  L83.2186,150  L78.8542,150  L73.0417,150  L66.0616,150  L58.2507,150  L49.9858,150  L41.6656,150  L33.6917,150  L26.4487,150  L20.2861,150  L15.5011,150  L12.3247,150  L10.9102,150 " /><path d="M57,150 L56.6951,150  L55.7845,150  L54.2799,150  L52.2008,150  L49.5743,150  L46.4344,150  L42.8218,150  L38.7834,150  L34.3716,150  L29.6436,150  L24.6608,150  L19.4878,150  L14.1917,150  L8.84121,150 " /><path d="M40.0016,150 L42.2112,150  L44.294,150  L46.2419,150  L48.0471,150  L49.7025,150  L51.2017,150  L52.5387,150  L53.7082,150  L54.7058,150  L55.5273,150  L56.1697,150  L56.6304,150  L56.9075,150  L57,150 " /><path d="M10,150 L8.84121,150 " /><path d="M86.9754,149.995 Q87.0474,149.991 87.129,149.979 " /><path d="M87.3439,149.936 Q87.4751,149.903 87.6325,149.837 " /><path d="M87.9748,149.648 Q88.1502,149.528 88.3101,149.357 " /><path d="M88.5751,148.997 Q88.6762,148.821 88.7411,148.625 " /><path d="M88.8412 148 A2 2 0 0 1 86.8412 150" /><path d="M8.91379,-110 L8.91016,-110 " /><path d="M8.91016,110 L8.91379,110 " /><path d="M8.90649,-150 C8.86927,-150.003 8.85393,-149.679 8.84816,-149.28  C8.84251,-148.899 8.84243,-148.448 8.84221,-148.003 " /><path d="M8.90649,-150 L10,-150 " /><path d="M10,-150 Q10,-149.998 10,-149.78 " /><path d="M8.90649,150 C8.86927,150.003 8.85393,149.679 8.84816,149.28  C8.84251,148.899 8.84243,148.448 8.84221,148.003 " /><path d="M8.90649,150 L10,150 " /><path d="M10,150 Q10,149.998 10,149.78 " /><path d="M302,60 L302.126,60  L302.501,60  L303.122,60  L303.981,60  L305.066,60  L306.363,60  L307.858,60  L309.53,60  L311.359,60  L313.322,60  L315.394,60  L317.55,60  L319.761,60  L322,60 " /><path d="M302,40 L302.126,40  L302.501,40  L303.122,40  L303.981,40  L305.066,40  L306.363,40  L307.858,40  L309.53,40  L311.359,40  L313.322,40  L315.394,40  L317.55,40  L319.761,40  L322,40 " /><path d="M-20,150 L-19.9487,150  L-19.795,150  L-19.5395,150  L-19.1829,150  L-18.7265,150  L-18.172,150  L-17.5211,150  L-16.7761,150  L-15.9395,150  L-15.0142,150  L-14.0035,150  L-12.9106,150  L-11.7394,150  L-10.4939,150 " /><path d="M-20,-130 L-19.9487,-130  L-19.795,-130  L-19.5395,-130  L-19.1829,-130  L-18.7265,-130  L-18.172,-130  L-17.5211,-130  L-16.7761,-130  L-15.9395,-130  L-15.0142,-130  L-14.0035,-130  L-12.9106,-130  L-11.7394,-130  L-10.4939,-130 " /><path d="M-20,130 L-19.82,130  L-19.2821,130  L-18.3928,130  L-17.1627,130  L-15.6067,130  L-13.7434,130  L-11.5951,130  L-9.18763,130  L-6.54991,130  L-3.71357,130  L-0.712649,130  L2.41683,130  L5.63732,130  L8.91016,130 " /><path d="M10,150 Q10,149.999 10,149.78 " /><path d="M10,150 L13.3589,150  L16.6756,150  L19.9084,150  L23.0165,150  L25.961,150  L28.7047,150  L31.2132,150  L33.4549,150  L35.4017,150  L37.0291,150  L38.3165,150  L39.2478,150  L39.8114,150  L40,150 " /><path d="M-20,150 L-19.8114,150  L-19.2478,150  L-18.3165,150  L-17.0291,150  L-15.4017,150  L-13.4549,150  L-11.2132,150  L-8.70469,150  L-5.96096,150  L-3.01651,150  L0.0916281,150  L3.32437,150  L6.64107,150  L10,150 " /><path d="M10.9102,150 C10.5495,150 10.1889,150 9.82825,150  C7.15595,150 4.49113,150 2.03228,150  C-0.42769,150 -2.67968,150 -4.55661,150  C-6.43552,150 -7.93775,150 -8.95165,150  C-9.96811,150 -10.4953,150 -10.4939,150 " /><path d="M10,-150 L13.3589,-150  L16.6756,-150  L19.9084,-150  L23.0165,-150  L25.961,-150  L28.7047,-150  L31.2132,-150  L33.4549,-150  L35.4017,-150  L37.0291,-150  L38.3165,-150  L39.2478,-150  L39.8114,-150  L40,-150 " /><path d="M-20,-150 L-19.8114,-150  L-19.2478,-150  L-18.3165,-150  L-17.0291,-150  L-15.4017,-150  L-13.4549,-150  L-11.2132,-150  L-8.70469,-150  L-5.96096,-150  L-3.01651,-150  L0.0916281,-150  L3.32437,-150  L6.64107,-150  L10,-150 " /><path d="M-20,-130 L-19.82,-130  L-19.2821,-130  L-18.3928,-130  L-17.1627,-130  L-15.6067,-130  L-13.7434,-130  L-11.5951,-130  L-9.18763,-130  L-6.54991,-130  L-3.71357,-130  L-0.712649,-130  L2.41683,-130  L5.63732,-130  L8.91016,-130 " /><path d="M10,-149.78 Q10,-149.999 10,-150 " /><path d="M8.91016,-130 C6.31834,-130 3.75584,-130 1.40281,-130  C-0.951286,-130 -3.09419,-130 -4.87572,-130  C-6.65905,-130 -8.07964,-130 -9.03771,-130  C-9.99807,-130 -10.4951,-130 -10.4939,-130 " /><path id= "141" d=" M 378.569 -3.59259e-05 L 372.711 -5.3889e-05 " />
<path id= "142" d=" M 393.956 -6.59893e-05 L 412.711 -3.59259e-05 " />
<path id= "143" d=" M 412.711 -3.59259e-05 L 378.569 -3.59259e-05 " />
<path id= "144" d=" M 378.569 200 L 372.711 200 " />
<path id= "145" d=" M 412.711 200 L 378.569 200 " />
<path d="M378.933,239.998 C378.934,237.177 378.505,234.357 377.684,231.785  C376.923,229.392 375.824,227.216 374.471,225.42 " /><path d="M378.933 239.998 A20 14.1421 90 0 1 374.477 254.572" />
<path d="M291.048,220.119 C292.651,220.556 294.209,221.39 295.624,222.576  C297.04,223.761 298.313,225.298 299.363,227.097  C300.415,228.894 301.245,230.952 301.802,233.148  C302.361,235.344 302.648,237.675 302.647,240.006  C302.647,242.338 302.359,244.666 301.801,246.857  C301.244,249.049 300.417,251.101 299.368,252.895  C298.321,254.69 297.053,256.225 295.638,257.412  C294.223,258.601 292.663,259.44 291.048,259.881 " /><path d="M279.938,229.575 C280.889,229.574 281.848,229.838 282.738,230.356  C283.629,230.873 284.45,231.642 285.136,232.607  C285.822,233.572 286.372,234.73 286.744,235.994  C287.116,237.258 287.309,238.625 287.309,239.993  C287.311,241.36 287.119,242.726 286.749,243.988  C286.38,245.25 285.833,246.407 285.15,247.372  C284.468,248.337 283.651,249.11 282.759,249.632  C281.867,250.155 280.903,250.426 279.938,250.425  C278.973,250.426 278.008,250.155 277.117,249.632  C276.225,249.11 275.407,248.337 274.725,247.372  C274.042,246.407 273.495,245.25 273.126,243.988  C272.757,242.726 272.565,241.36 272.566,239.993  C272.566,238.625 272.759,237.258 273.132,235.994  C273.503,234.73 274.053,233.571 274.74,232.607  C275.425,231.642 276.246,230.873 277.137,230.356  C278.028,229.838 278.987,229.574 279.938,229.575 " /><path id= "150" d=" M 378.569 -4.91015e-05 L 372.711 -2.97418e-05 " />
<path id= "151" d=" M 393.956 -2.27068e-05 L 412.711 -5.72416e-05 " />
<path id= "152" d=" M 412.711 -5.72416e-05 L 378.569 -4.91015e-05 " />
<path id= "153" d=" M 378.568 -200 L 372.711 -200 " />
<path id= "154" d=" M 412.711 -200 L 378.568 -200 " />
<path d="M378.933,-239.998 C378.934,-237.177 378.505,-234.357 377.684,-231.785  C376.923,-229.392 375.824,-227.216 374.471,-225.42 " /><path d="M378.933 -239.998 A20 14.1421 -90 0 0 374.477 -254.572" />
<path d="M291.047,-220.119 C292.651,-220.557 294.209,-221.39 295.624,-222.576  C297.04,-223.761 298.313,-225.298 299.363,-227.097  C300.415,-228.894 301.245,-230.952 301.802,-233.148  C302.361,-235.344 302.648,-237.676 302.647,-240.007  C302.647,-242.338 302.359,-244.666 301.801,-246.857  C301.244,-249.049 300.417,-251.101 299.368,-252.895  C298.321,-254.69 297.053,-256.225 295.638,-257.412  C294.223,-258.601 292.663,-259.44 291.048,-259.881 " /><path d="M279.938,-229.575 C280.889,-229.574 281.848,-229.838 282.738,-230.356  C283.629,-230.873 284.45,-231.642 285.136,-232.607  C285.822,-233.572 286.372,-234.73 286.744,-235.994  C287.116,-237.258 287.309,-238.625 287.309,-239.993  C287.311,-241.36 287.119,-242.726 286.749,-243.988  C286.38,-245.25 285.833,-246.407 285.15,-247.372  C284.468,-248.337 283.65,-249.11 282.759,-249.632  C281.867,-250.155 280.903,-250.426 279.938,-250.425  C278.973,-250.426 278.008,-250.155 277.117,-249.632  C276.225,-249.11 275.407,-248.337 274.725,-247.372  C274.042,-246.407 273.495,-245.25 273.126,-243.988  C272.756,-242.726 272.565,-241.36 272.566,-239.993  C272.566,-238.625 272.759,-237.258 273.132,-235.994  C273.503,-234.73 274.053,-233.572 274.74,-232.607  C275.425,-231.642 276.246,-230.873 277.137,-230.356  C278.027,-229.838 278.987,-229.574 279.938,-229.575 " /><path d="M200.706 -50 A20 14.1421 -90 0 1 214.849 -70" />
<path d="M214.849 -70 A20 14.1421 -90 0 1 224.203 -65" />
<path d="M224.203 -35 A20 14.1421 -90 0 1 214.849 -30" />
<path d="M214.849 -30 A20 14.1421 -90 0 1 200.706 -50" />
<path d="M144.138 -50 A20 14.1421 -90 0 1 158.28 -70" />
<path d="M158.28 -30 A20 14.1421 -90 0 1 144.138 -50" />
<path d="M204.242 -50 A15 10.6066 -90 0 1 214.849 -65" />
<path d="M214.849 -65 A15 10.6066 -90 0 1 214.849 -65" />
<path d="M214.849 -35 A15 10.6066 -90 0 1 214.849 -35" />
<path d="M214.849 -35 A15 10.6066 -90 0 1 204.242 -50" />
<path d="M260.812 -50 A15 10.6066 -90 0 1 271.419 -65" />
<path d="M271.419 -65 A15 10.6066 -90 0 1 279.324 -60" />
<path d="M279.324 -40 A15 10.6066 -90 0 1 271.419 -35" />
<path d="M271.419 -35 A15 10.6066 -90 0 1 260.812 -50" />
<path d="M204.243 -50 A15 10.6066 -90 0 1 214.85 -65" />
<path d="M214.85 -35 A15 10.6066 -90 0 1 204.243 -50" />
<path d="M264.347 -50 A10 7.07107 -90 0 1 271.419 -60" />
<path d="M271.419 -60 A10 7.07107 -90 0 1 271.419 -60" />
<path d="M271.419 -40 A10 7.07107 -90 0 1 271.419 -40" />
<path d="M271.419 -40 A10 7.07107 -90 0 1 264.347 -50" />
<path d="M264.349 -50 A10 7.07107 -90 0 1 271.42 -60" />
<path d="M271.42 -40 A10 7.07107 -90 0 1 264.349 -50" />
<path d="M144.138,-50 C144.137,-52.6182 144.505,-55.2353 145.214,-57.6537  C145.922,-60.0731 146.97,-62.2918 148.28,-64.1421  C149.588,-65.9945 151.157,-67.4769 152.868,-68.4776  C154.578,-69.4808 156.429,-70.0014 158.28,-70 " /><path d="M158.28,-70 C159.984,-70.001 161.687,-69.561 163.28,-68.7083  C164.874,-67.8574 166.357,-66.5943 167.634,-65 " /><path d="M167.634,-35 C166.357,-33.4057 164.874,-32.1426 163.28,-31.2917  C161.687,-30.439 159.984,-29.999 158.28,-30 " /><path d="M158.28,-30 C156.429,-29.9986 154.578,-30.5192 152.868,-31.5224  C151.157,-32.5231 149.588,-34.0055 148.28,-35.8579  C146.97,-37.7082 145.922,-39.9269 145.214,-42.3463  C144.505,-44.7647 144.137,-47.3818 144.138,-50 " /><path d="M200.706 50 A20 14.1421 90 0 0 214.849 70" />
<path d="M214.849 70 A20 14.1421 90 0 0 224.203 65" />
<path d="M224.203 35 A20 14.1421 90 0 0 214.849 30" />
<path d="M214.849 30 A20 14.1421 90 0 0 200.706 50" />
<path d="M144.138 50 A20 14.1421 90 0 0 158.28 70" />
<path d="M158.28 30 A20 14.1421 90 0 0 144.138 50" />
<path d="M204.242 50 A15 10.6066 90 0 0 214.849 65" />
<path d="M214.849 65 A15 10.6066 90 0 0 214.849 65" />
<path d="M214.849 35 A15 10.6066 90 0 0 214.849 35" />
<path d="M214.849 35 A15 10.6066 90 0 0 204.242 50" />
<path d="M260.812 50 A15 10.6066 90 0 0 271.419 65" />
<path d="M271.419 65 A15 10.6066 90 0 0 279.324 60" />
<path d="M279.324 40 A15 10.6066 90 0 0 271.419 35" />
<path d="M271.419 35 A15 10.6066 90 0 0 260.812 50" />
<path d="M204.243 50 A15 10.6066 90 0 0 214.85 65" />
<path d="M214.85 35 A15 10.6066 90 0 0 204.243 50" />
<path d="M264.347 50 A10 7.07107 90 0 0 271.419 60" />
<path d="M271.419 60 A10 7.07107 90 0 0 271.419 60" />
<path d="M271.419 40 A10 7.07107 90 0 0 271.419 40" />
<path d="M271.419 40 A10 7.07107 90 0 0 264.347 50" />
<path d="M264.349 50 A10 7.07107 90 0 0 271.42 60" />
<path d="M271.42 40 A10 7.07107 90 0 0 264.349 50" />
<path d="M144.138,50 C144.137,52.6182 144.505,55.2353 145.214,57.6537  C145.922,60.0731 146.97,62.2918 148.28,64.1421  C149.588,65.9945 151.157,67.4769 152.868,68.4776  C154.578,69.4808 156.429,70.0014 158.28,70 " /><path d="M158.28,70 C159.984,70.001 161.687,69.561 163.28,68.7083  C164.874,67.8574 166.357,66.5943 167.634,65 " /><path d="M167.634,35 C166.357,33.4057 164.874,32.1426 163.28,31.2917  C161.687,30.439 159.984,29.999 158.28,30 " /><path d="M158.28,30 C156.429,29.9986 154.578,30.5192 152.868,31.5224  C151.157,32.5231 149.588,34.0055 148.28,35.8579  C146.97,37.7082 145.922,39.9269 145.214,42.3463  C144.505,44.7647 144.137,47.3818 144.138,50 " /><path d="M4.43e-15 160 A60 60 0 0 0 33.1662 150" /><path d="M33.1662 150 A60 60 0 0 1 5.19965e-14 160" /><path d="M33.1662 150 A60 60 0 0 1 4.08965e-14 160" /><path d="M33.1662 150 A60 60 0 0 1 2.97965e-14 160" /><path d="M33.1662 150 A60 60 0 0 1 1.86865e-14 160" /><path d="M33.1662 150 A60 60 0 0 1 7.58647e-15 160" /><path d="M33.1662 150 A60 60 0 0 1 -3.51353e-15 160" /><path d="M33.1662 150 A60 60 0 0 1 -1.46135e-14 160" /><path d="M33.1662 150 A60 60 0 0 1 -2.57235e-14 160" /><path d="M33.1662 150 A60 60 0 0 1 -3.68235e-14 160" /><path d="M33.1662 150 A60 60 0 0 1 -4.79235e-14 160" /><path d="M4.43e-15 170 A70 70 0 0 0 48.9898 150" /><path id= "223" d=" M 3.4e-14 170 L -8 170 " />
<path id= "224" d=" M -8 160 L -8 170 " />
<path id= "225" d=" M 3.401e-14 160 L -8 160 " />
<path d="M4.43e-15 -160 A60 60 0 0 1 33.1662 -150" /><path d="M33.1662 -150 A60 60 0 0 0 5.19965e-14 -160" /><path d="M33.1662 -150 A60 60 0 0 0 4.08965e-14 -160" /><path d="M33.1662 -150 A60 60 0 0 0 2.97965e-14 -160" /><path d="M33.1662 -150 A60 60 0 0 0 1.86865e-14 -160" /><path d="M33.1662 -150 A60 60 0 0 0 7.58647e-15 -160" /><path d="M33.1662 -150 A60 60 0 0 0 -3.51353e-15 -160" /><path d="M33.1662 -150 A60 60 0 0 0 -1.46135e-14 -160" /><path d="M33.1662 -150 A60 60 0 0 0 -2.57235e-14 -160" /><path d="M33.1662 -150 A60 60 0 0 0 -3.68235e-14 -160" /><path d="M33.1662 -150 A60 60 0 0 0 -4.79235e-14 -160" /><path d="M4.43e-15 -170 A70 70 0 0 1 48.9898 -150" /><path id= "238" d=" M 3.4e-14 -170 L -8 -170 " />
<path id= "239" d=" M -8 -160 L -8 -170 " />
<path id= "240" d=" M 3.401e-14 -160 L -8 -160 " />
</g>
</g>



</svg>
