<?xml version="1.0" encoding="UTF-8"?>

<svg xmlns="http://www.w3.org/2000/svg" version="1.1"
    xmlns:freecad="http://www.freecadweb.org/wiki/index.php?title=Svg_Namespace"
	width="297mm"
	height="210mm"
	viewBox="0 0 297 210">
	<!-- Working space 0 0 297 210 -->
	<defs>
		<radialGradient
			id="radialGradient3661"
			gradientUnits="userSpaceOnUse"
			cy="29.149"
			cx="282.65"
			gradientTransform="matrix(.14777 .23089 -.24680 .15795 -26.318 -62.617)"
			r="19.571">
				<stop stop-color="#71b2f8" offset="0"/>
				<stop stop-color="#002795" offset="1"/>
		</radialGradient>
		<radialGradient
			id="radialGradient3817"
			gradientUnits="userSpaceOnUse"
			cy="33.9"
			cx="270.58"
			gradientTransform="matrix(.26631 .065024 -.17931 .73438 -60.668 -36.938)"
			r="19.571">
				<stop stop-color="#ff6d0f" offset="0"/>
				<stop stop-color="#ff1000" offset="1"/>
		</radialGradient>
	</defs>
	<!-- Set display:none to hide FreeCAD Logo -->
	<g
		style="display:inline"
		id="freecad-logo"
		transform="translate(271, 185) scale(1)"
		fill-rule="evenodd"
		stroke-width=".45621">
		<path d="m0.22811 0.22835v13.256h2.9558v-5.1876h2.09v-2.0452h-2.09v-2.2075h5.1486v-3.8087l-8.1044-0.0075z"
			stroke="#370700"
			fill="url(#radialGradient3817)"/>
		<path d="m13.386 4.1792-1.7193 0.98645-0.75925-0.26348-0.72439-1.8513-1.1395 0.05988-0.51976 1.9144-0.72743 0.34835-1.8143-0.79367-0.76632 0.85156 0.98645 1.7193-0.26957 0.75702-1.8513 0.72439 0.065967 1.1417 1.9144 0.51976 0.34835 0.72743-0.79976 1.8121 0.85156 0.76632 1.7193-0.98645 0.76311 0.27179 0.7183 1.8491 1.1478-0.06375 0.51367-1.9166 0.72743-0.34835 1.8182 0.80198 0.76632-0.85156-0.98645-1.7193 0.2657-0.76533 1.8491-0.7183-0.05766-1.1456-1.9166-0.51367-0.34835-0.72743 0.7959-1.8204-0.85156-0.76632zm-2.5751 2.8195 0.35295 0.20478 0.30579 0.27725 0.24481 0.33087 0.17611 0.36787 0.10354 0.39656 0.01715 0.4064-0.0587 0.4063-0.13396 0.38571-0.2131 0.35681-0.26894 0.30192-0.33087 0.24481-0.36787 0.17611-0.39656 0.10354-0.40863 0.02325-0.4063-0.0587-0.38571-0.13396-0.35681-0.2131-0.2997-0.27503-0.24703-0.32478-0.17611-0.36787-0.10132-0.40264-0.02324-0.40863 0.05869-0.4063 0.13396-0.38571 0.21087-0.35072 0.27116-0.30801 0.33087-0.24481 0.36787-0.17611 0.40264-0.10132 0.40641-0.01715 0.4063 0.05869 0.38571 0.13396z" 
		stroke="#000137"
		fill="url(#radialGradient3661)"/>
	</g>
<g id="View"
   transform="rotate(-90,240,150) translate(240,150) scale(0.3,0.3)"
  >
<g   fill="none"
   stroke="rgb(0, 0, 0)"
   stroke-linecap="butt"
   stroke-linejoin="miter"
   stroke-width="1.166667"
   transform="scale(1,-1)"
  >
<path d="M62.5942,632.684 L62.5942,632.684 " /><path d="M44.2778,602.963 C45.3543,606.98 46.4573,611.097 47.4912,614.956  C48.5256,618.816 49.4909,622.419 50.3036,625.451  C51.1279,628.528 51.7953,631.019 52.2466,632.703  C52.6992,634.392 52.9357,635.275 52.9349,635.272 " /><path d="M53.9371,600.375 C55.0135,604.392 56.1165,608.509 57.1505,612.367  C58.1848,616.228 59.1502,619.83 59.9628,622.863  C60.7871,625.94 61.4546,628.431 61.9059,630.115  C62.3585,631.804 62.595,632.687 62.5942,632.684 " /><path d="M44.2778,602.963 C45.3543,606.98 46.4573,611.097 47.4912,614.956  C48.5256,618.816 49.4909,622.419 50.3036,625.451  C51.1279,628.528 51.7953,631.019 52.2466,632.703  C52.6992,634.392 52.9357,635.275 52.9349,635.272 " /><path id= "5" d=" M 144.724 199.447 L 140.724 191.447 " />
<path d="M144.724,199.447 C144.886,199.781 145.247,200.004 145.618,200 " /><path d="M140.724,191.447 C140.637,191.274 140.602,191.076 140.625,190.884  C140.636,190.786 140.662,190.691 140.701,190.6  C140.737,190.519 140.782,190.444 140.838,190.375  C141.023,190.14 141.319,189.998 141.618,190 " /><path d="M-12.1365,196.684 C-15.1251,198.669 -17.8444,201.058 -20.1968,203.767 " /><path d="M-29.921,232.513 C-29.6963,236.093 -28.9863,239.643 -27.8166,243.035 " /><path d="M-10,288.297 C-19.0406,297.4 -25.8409,304.247 -30.9517,309.393  C-36.059,314.535 -39.4756,317.975 -41.652,320.167  C-43.8253,322.355 -44.7574,323.293 -44.8121,323.349  C-44.8642,323.401 -44.038,322.569 -42.6234,321.145  C-41.2066,319.719 -39.2006,317.699 -36.8325,315.315  C-34.4625,312.928 -31.7296,310.177 -28.8082,307.235  C-25.8852,304.292 -22.773,301.159 -19.6019,297.966  C-16.4295,294.772 -13.1975,291.517 -10,288.298 " /><path d="M-11.4788,196.51 C-11.9198,196.394 -11.9614,196.383 -11.9218,196.393  C-11.8753,196.405 -11.7417,196.441 -11.64,196.467  C-11.5327,196.496 -11.4551,196.516 -11.4071,196.529  C-11.3629,196.54 -11.3385,196.547 -11.3338,196.548 " /><path d="M-11.0573,196.621 Q-11.3147,196.553 -11.3274,196.55 " /><path d="M-11.3279,196.55 L-11.3299,196.549 " /><path d="M-11.3326,196.549 C-11.4138,196.527 -11.497,196.517 -11.5822,196.517  C-11.7844,196.516 -11.9834,196.581 -12.1365,196.684 " /><path d="M-20.4336,204.552 L-20.4336,204.552 " /><path d="M-20.4335,204.552 L-20.4335,204.552 " /><path d="M-20.4337,204.551 L-20.4337,204.551 " /><path d="M-29.6327,231.745 C-29.6326,231.745 -29.6325,231.745 -29.6323,231.745  C-29.6315,231.744 -29.6306,231.743 -29.6298,231.742  C-29.629,231.742 -29.6282,231.741 -29.6274,231.74  C-29.6252,231.738 -29.6207,231.733 -29.614,231.727  C-29.6084,231.721 -29.6027,231.715 -29.597,231.709  C-29.5862,231.698 -29.5754,231.688 -29.5647,231.677  C-29.5481,231.66 -29.5314,231.643 -29.5148,231.626  C-29.4938,231.605 -29.4728,231.584 -29.4518,231.562  C-29.4265,231.537 -29.4012,231.511 -29.3759,231.485  C-29.3465,231.455 -29.317,231.425 -29.2876,231.395  C-29.2541,231.361 -29.2207,231.327 -29.1872,231.293  C-29.15,231.254 -29.1127,231.216 -29.0754,231.178  C-29.0344,231.135 -28.9935,231.093 -28.9526,231.051  C-28.9082,231.005 -28.8638,230.959 -28.8194,230.913  C-28.7717,230.863 -28.724,230.813 -28.6764,230.763  C-28.6256,230.71 -28.5749,230.656 -28.5242,230.603  C-28.4706,230.546 -28.417,230.49 -28.3635,230.433  C-28.3073,230.373 -28.2511,230.313 -28.1949,230.253  C-28.1362,230.19 -28.0776,230.127 -28.019,230.064  C-27.9582,229.998 -27.8974,229.932 -27.8365,229.866  C-27.7737,229.797 -27.7109,229.728 -27.6481,229.659  C-27.5835,229.587 -27.5189,229.516 -27.4543,229.444  C-27.3882,229.37 -27.322,229.296 -27.2558,229.222  C-27.1214,229.07 -26.9851,228.915 -26.8469,228.756  C-26.7772,228.674 -26.7074,228.593 -26.6377,228.512  C-26.4969,228.347 -26.3551,228.179 -26.2124,228.007  C-25.3553,226.973 -24.4676,225.804 -23.6685,224.553 " /><path d="M-23.6619,224.543 Q-23.4647,224.232 -23.2763,223.921  Q-23.1845,223.766 -23.0928,223.611  Q-23.0075,223.463 -22.9223,223.314  Q-22.8468,223.179 -22.7713,223.043  Q-22.7061,222.923 -22.6409,222.802  Q-22.5836,222.694 -22.5263,222.585 " /><path d="M-22.5215,222.576 L-22.4097,222.358  L-22.2916,222.122  L-22.1649,221.861  L-22.0228,221.558  L-21.8664,221.21  L-21.7053,220.834  L-21.5483,220.447  L-21.3981,220.055  L-21.2552,219.659  L-21.1199,219.259  L-21.1111,219.233  L-21.0989,219.195  L-21.0819,219.142  L-21.0589,219.07  L-21.028,218.972  L-20.9871,218.84  L-20.9337,218.662  L-20.8648,218.424  L-20.7775,218.106  L-20.6728,217.698 " /><path d="M-29.631,231.744 C-29.6318,231.744 -29.6325,231.745 -29.6332,231.746  C-29.6942,231.807 -29.7467,231.876 -29.7906,231.953  C-29.8912,232.126 -29.9335,232.33 -29.921,232.513 " /><path d="M-27.8166,243.035 C-27.7576,243.209 -27.6397,243.381 -27.4791,243.503  C-27.423,243.546 -27.3633,243.582 -27.3001,243.612  C-27.2923,243.616 -27.2844,243.62 -27.2765,243.623  C-27.2683,243.627 -27.2558,243.632 -27.2544,243.633 " /><path d="M-27.2525,243.633 Q-27.2507,243.634 -27.2397,243.639  Q-27.1934,243.658 -27.0122,243.734 " /><path d="M-26.2639,244.054 C-25.9382,244.195 -25.5432,244.369 -25.1007,244.572 " /><path d="M-23.9766,245.103 C-23.1144,245.522 -22.167,246.013 -21.2098,246.567  C-20.2514,247.122 -19.2833,247.742 -18.3483,248.432  C-18.1481,248.58 -17.9496,248.731 -17.7527,248.885 " /><path d="M-16.2501,250.167 Q-15.6174,250.755 -15.0311,251.393 " /><path d="M2.38026,269.268 C-1.14192,268.585 -4.57117,267.425 -7.7845,265.829 " /><path d="M32.1365,263.316 C35.1251,261.331 37.8444,258.942 40.1968,256.233 " /><path d="M47.8166,216.965 C48.9863,220.357 49.6963,223.907 49.921,227.487 " /><path d="M27.7845,194.171 C24.5711,192.575 21.1419,191.415 17.6197,190.732 " /><path d="M-12.1365,196.684 C-15.1251,198.669 -17.8444,201.058 -20.1968,203.767 " /><path d="M-29.921,232.513 C-29.6963,236.093 -28.9863,239.643 -27.8166,243.035 " /><path d="M10.4664,264.385 C11.526,263.856 12.6376,263.38 13.7893,262.994  C14.9405,262.607 16.1317,262.311 17.3346,262.124  C17.5604,262.089 17.7855,262.057 18.0099,262.028  C18.2367,262 18.4559,261.976 18.6676,261.957  C19.0912,261.917 19.4386,261.895 19.7704,261.879  C20.1017,261.864 20.4532,261.855 20.8662,261.853  C21.0726,261.853 21.2824,261.855 21.4956,261.86  C21.7082,261.865 21.9137,261.873 22.1313,261.882  C23.2767,261.934 24.4056,262.055 25.4753,262.213  C26.544,262.371 27.5536,262.565 28.4327,262.754  C29.2925,262.939 30.024,263.117 30.5329,263.245  C31.0434,263.374 31.3255,263.45 31.3278,263.45 " /><path d="M31.3278,263.45 C31.3251,263.45 31.3224,263.449 31.3197,263.448  C31.3173,263.447 31.3165,263.447 31.3172,263.447  C31.3192,263.448 31.3212,263.448 31.3232,263.449  C31.325,263.449 31.3282,263.45 31.3114,263.446  C31.2079,263.416 31.1147,263.373 31.0315,263.318 " /><path d="M10.4664,264.385 C12.3746,263.428 14.4632,262.656 16.6279,262.247  C17.9307,261.997 19.2556,261.873 20.5659,261.856  C21.8618,261.838 23.1448,261.922 24.376,262.067  C25.6055,262.212 26.7832,262.416 27.8246,262.627  C28.817,262.828 29.6822,263.034 30.3015,263.187  C30.9223,263.342 31.2886,263.44 31.3245,263.449  C31.3295,263.451 31.3284,263.45 31.3354,263.452  C31.341,263.454 31.3466,263.455 31.3521,263.456  C31.3615,263.459 31.3715,263.461 31.382,263.463  C31.4486,263.477 31.5162,263.483 31.5849,263.483  C31.7862,263.484 31.9841,263.419 32.1365,263.316 " /><path d="M10.4663,264.385 C9.07837,265.078 7.77561,265.863 6.63909,266.611  C5.50586,267.355 4.54298,268.057 3.92398,268.517  C3.44337,268.876 3.17841,269.081 3.17818,269.08 " /><path d="M3.17818,269.08 C3.18006,269.079 3.18194,269.077 3.18381,269.076  C3.18449,269.075 3.18516,269.075 3.18583,269.074  C3.18735,269.073 3.17611,269.082 3.18959,269.071  C3.27421,269.004 3.34459,268.928 3.40072,268.844 " /><path d="M10.4664,264.385 C10.2316,264.502 9.99382,264.625 9.7765,264.74  C9.5573,264.857 9.34046,264.975 9.12598,265.095  C8.69716,265.335 8.28129,265.578 7.87838,265.825  C6.46836,266.685 5.21917,267.567 4.35741,268.198  C3.66706,268.703 3.24293,269.032 3.18576,269.074  C3.18647,269.074 3.17741,269.081 3.17864,269.08  C3.17912,269.08 3.1779,269.08 3.17499,269.083  C3.16575,269.09 3.15769,269.096 3.1508,269.1  C2.929,269.262 2.62808,269.319 2.38026,269.268 " /><path d="M33.868,207.226 C35.1613,208.908 36.7303,210.386 38.4066,211.611  C39.3766,212.323 40.3816,212.959 41.3739,213.527  C42.3646,214.095 43.3438,214.595 44.2197,215.015  C45.0948,215.434 45.8633,215.774 46.405,216.008  C46.9483,216.241 47.2569,216.368 47.2554,216.368 " /><path d="M46.9392,216.293 C47.0076,216.298 47.0765,216.31 47.1459,216.329  C47.1737,216.339 47.2014,216.348 47.2292,216.357  C47.3139,216.393 47.2808,216.379 47.2659,216.372  C47.2447,216.364 47.2324,216.358 47.2288,216.357  C47.2248,216.355 47.2445,216.363 47.2445,216.363  C47.2445,216.363 47.2518,216.366 47.255,216.368 " /><path d="M47.255,216.368 C47.2541,216.367 46.9002,216.222 46.2855,215.956  C45.673,215.69 44.8112,215.306 43.8494,214.835  C42.3995,214.126 40.7523,213.233 39.1786,212.157  C37.6001,211.082 36.0902,209.811 34.7848,208.333  C34.4199,207.922 34.0739,207.499 33.7405,207.06  C33.5742,206.839 33.42,206.628 33.2777,206.425  C33.1372,206.225 33.0102,206.038 32.8968,205.866  C32.6699,205.522 32.4732,205.208 32.2275,204.791  C32.1067,204.585 31.9787,204.361 31.8567,204.139  C31.7329,203.913 31.6238,203.705 31.5,203.467  C30.9372,202.372 30.4537,201.256 30.0395,200.183  C29.6258,199.113 29.2813,198.087 29.008,197.215  C28.7823,196.495 28.6061,195.884 28.4868,195.461  C28.3674,195.037 28.3053,194.805 28.3048,194.804 " /><path d="M28.3048,194.804 Q28.3046,194.804 28.3055,194.807  Q28.3259,194.883 28.3341,194.959  Q28.3432,195.045 28.338,195.127 " /><path d="M33.868,207.226 C33.5873,206.862 33.3277,206.504 33.077,206.135  C32.8268,205.767 32.5876,205.393 32.3595,205.013  C31.9039,204.256 31.4931,203.48 31.1211,202.702  C30.3841,201.162 29.7949,199.597 29.3381,198.233  C28.8877,196.889 28.5694,195.758 28.4137,195.2  C28.3407,194.936 28.3044,194.804 28.3046,194.804  C28.2819,194.72 28.2485,194.64 28.2044,194.564  C28.1041,194.39 27.9491,194.252 27.7845,194.171 " /><path d="M47.8166,216.965 C47.7576,216.791 47.6397,216.619 47.4791,216.497  C47.423,216.454 47.3633,216.418 47.3001,216.388  C47.2852,216.381 47.2703,216.374 47.2554,216.368 " /><path d="M41.0565,240.937 C40.4649,242.795 40.1486,244.716 40.0239,246.595  C39.8974,248.469 39.956,250.312 40.0683,251.883  C40.142,252.915 40.2376,253.816 40.3109,254.45  C40.3849,255.087 40.4338,255.447 40.4335,255.448 " /><path d="M40.4335,255.448 C40.433,255.444 40.4325,255.44 40.4319,255.436  C40.4314,255.432 40.4311,255.43 40.431,255.429  C40.4311,255.431 40.4315,255.434 40.4322,255.439  C40.4326,255.443 40.4336,255.451 40.4301,255.424  C40.425,255.391 40.4183,255.358 40.41,255.326  C40.3924,255.259 40.3691,255.196 40.34,255.137 " /><path d="M49.3696,228.445 C49.436,228.412 49.4995,228.371 49.56,228.321  C49.5818,228.301 49.6036,228.282 49.6254,228.262  C42.5585,235.377 36.0337,241.947 30,248.022 " /><path d="M23.0697,255 Q20.4717,257.616 18.0047,260.1 " /><path d="M15.6666,262.454 C7.81375,270.361 0.974177,277.247 -5,283.262 " /><path d="M-10,288.297 C-19.0406,297.4 -25.8409,304.247 -30.9517,309.393  C-36.059,314.535 -39.4756,317.975 -41.652,320.167  C-43.8253,322.355 -44.7574,323.293 -44.8121,323.349  C-44.8642,323.401 -44.038,322.569 -42.6234,321.145  C-41.2066,319.719 -39.2006,317.699 -36.8325,315.315  C-34.4625,312.928 -31.7296,310.177 -28.8082,307.235  C-25.8852,304.292 -22.773,301.159 -19.6019,297.966  C-16.4295,294.772 -13.1975,291.517 -10,288.298 " /><path d="M-5,283.264 C-1.2468,279.485 2.40403,275.809 5.86875,272.32  C9.33491,268.83 12.6159,265.527 15.668,262.454 " /><path d="M43.6986,234.23 C46.2303,231.681 47.6928,230.208 48.5942,229.3  C49.4906,228.398 49.8335,228.053 49.9829,227.902  C50.1261,227.758 50.074,227.81 50.0069,227.878  C49.9351,227.95 49.8428,228.043 49.781,228.105  C49.6509,228.236 49.6357,228.252 49.6329,228.254  C49.632,228.255 49.632,228.255 49.6327,228.255 " /><path d="M49.6327,228.255 C49.6345,228.254 49.3356,228.551 48.826,229.081  C48.3325,229.595 47.6609,230.309 46.9353,231.143  C46.2085,231.977 45.4275,232.931 44.6824,233.96  C43.936,234.99 43.2254,236.095 42.6078,237.26  C41.989,238.426 41.4631,239.653 41.0565,240.937 " /><path d="M40.1968,256.233 C40.3182,256.095 40.4082,255.906 40.4335,255.706  C40.4426,255.636 40.4443,255.566 40.4387,255.497  C40.4377,255.487 40.4368,255.477 40.4359,255.467  C40.4353,255.462 40.4346,255.457 40.434,255.451  C40.433,255.444 40.4347,255.457 40.4314,255.431  C40.4216,255.353 40.37,254.967 40.3,254.355  C40.2305,253.744 40.1426,252.907 40.0737,251.958  C40.0035,250.994 39.9521,249.915 39.9525,248.794  C39.9527,247.671 40.0045,246.506 40.1368,245.334  C40.3342,243.563 40.7283,241.768 41.356,240.059  C41.4256,239.867 41.5044,239.664 41.5814,239.47  C41.6587,239.276 41.7386,239.084 41.821,238.894  C41.9864,238.511 42.1628,238.137 42.3164,237.827  C42.4719,237.514 42.6075,237.256 42.7803,236.941  C42.867,236.783 42.9608,236.616 43.062,236.441  C43.1623,236.269 43.266,236.095 43.3732,235.919  C43.9858,234.916 44.6623,233.958 45.3495,233.07  C46.036,232.182 46.7351,231.36 47.3705,230.649  C48.0053,229.939 48.5739,229.341 48.9795,228.921  C49.3864,228.501 49.6236,228.264 49.6324,228.255  C49.6336,228.254 49.6357,228.252 49.6389,228.248  C49.6403,228.247 49.6372,228.25 49.6439,228.243  C49.6479,228.239 49.654,228.233 49.6624,228.225  C49.6684,228.219 49.6785,228.208 49.6457,228.241  C49.7009,228.184 49.7487,228.12 49.7893,228.05  C49.8908,227.875 49.9336,227.671 49.921,227.487 " /><path d="M3.94358,197.636 C5.84813,197.219 7.66989,196.533 9.35973,195.701  C11.0463,194.873 12.6126,193.901 13.9174,193.018  C14.7735,192.439 15.5061,191.906 16.019,191.525  C16.5333,191.142 16.8205,190.92 16.8217,190.92 " /><path d="M16.8217,190.92 C16.8186,190.922 16.8154,190.925 16.8122,190.927  C16.8092,190.93 16.8075,190.931 16.807,190.931  C16.8079,190.931 16.8106,190.929 16.815,190.925  C16.818,190.923 16.8243,190.918 16.8026,190.935  C16.7765,190.956 16.7517,190.978 16.7282,191.001  C16.6789,191.05 16.6359,191.102 16.5993,191.156 " /><path d="M-11.0315,196.682 Q-11.1241,196.621 -11.234,196.58  Q-11.2759,196.566 -11.3179,196.552  Q-8.10512,197.4 -5,198.22 " /><path d="M-5,198.22 C-7.87413,197.461 -9.4832,197.037 -10.4545,196.78  C-11.4188,196.526 -11.7521,196.438 -11.8782,196.405  C-11.9967,196.373 -11.9048,196.398 -11.8063,196.424  C-11.7024,196.451 -11.5852,196.482 -11.5078,196.502  C-11.3461,196.545 -11.3316,196.549 -11.3278,196.55  C-11.327,196.55 -11.327,196.55 -11.3279,196.55 " /><path d="M-11.3279,196.55 C-11.3296,196.549 -10.9228,196.659 -10.2092,196.835  C-9.51729,197.006 -8.56275,197.23 -7.47811,197.442  C-6.39175,197.654 -5.17504,197.853 -3.91163,197.984  C-2.64676,198.116 -1.33428,198.178 -0.0164477,198.131  C1.30228,198.084 2.6279,197.926 3.94358,197.636 " /><path d="M17.6197,190.732 C17.4394,190.696 17.2314,190.713 17.0457,190.791  C16.9804,190.818 16.919,190.851 16.8614,190.891  C16.8535,190.897 16.8455,190.902 16.8375,190.908  C16.8332,190.911 16.8289,190.914 16.8245,190.918  C16.8186,190.922 16.8287,190.915 16.8083,190.93  C16.7452,190.978 16.4372,191.215 15.942,191.582  C15.4478,191.948 14.7664,192.442 13.9793,192.976  C13.18,193.519 12.2712,194.103 11.2999,194.663  C10.3276,195.225 9.29267,195.762 8.21143,196.234  C6.57897,196.948 4.82713,197.505 3.03371,197.815  C2.83184,197.851 2.61698,197.884 2.41098,197.914  C2.20429,197.945 1.99781,197.971 1.79152,197.995  C1.37762,198.043 0.9658,198.078 0.620631,198.099  C0.271736,198.121 -0.0201728,198.133 -0.379412,198.141  C-0.559509,198.145 -0.750531,198.147 -0.952479,198.147  C-1.15194,198.146 -1.35464,198.143 -1.56057,198.138  C-2.73585,198.11 -3.90322,198.002 -5.01642,197.852  C-6.12868,197.701 -7.18952,197.506 -8.12295,197.312  C-9.05541,197.117 -9.85782,196.924 -10.4239,196.782  C-10.9915,196.64 -11.3148,196.553 -11.3274,196.55  C-11.3276,196.55 -11.3278,196.55 -11.3279,196.55  C-11.3291,196.549 -11.3302,196.549 -11.3313,196.549  C-11.4129,196.528 -11.4965,196.517 -11.5822,196.517  C-11.7844,196.516 -11.9834,196.581 -12.1365,196.684 " /><path d="M-21.657,220.717 C-20.8488,218.761 -20.3537,216.669 -20.1306,214.61  C-19.9575,213.049 -19.927,211.496 -19.9697,210.049  C-20.0118,208.607 -20.1271,207.271 -20.2317,206.27  C-20.2873,205.737 -20.3395,205.302 -20.376,205.006  C-20.4136,204.707 -20.4328,204.555 -20.4336,204.552 " /><path d="M-20.4336,204.552 C-20.4335,204.553 -20.4334,204.553 -20.4333,204.554  C-20.4333,204.554 -20.4333,204.554 -20.4333,204.554  C-20.4332,204.555 -20.4345,204.545 -20.4331,204.556  C-20.4175,204.667 -20.3864,204.769 -20.34,204.863 " /><path d="M-29.3696,231.555 C-29.4394,231.59 -29.5058,231.633 -29.5689,231.686  C-29.5891,231.705 -29.6092,231.723 -29.6294,231.742  C-29.6167,231.729 -29.6288,231.741 -29.629,231.742  C-29.6306,231.743 -29.6313,231.744 -29.6312,231.744  C-29.6317,231.744 -29.6322,231.745 -29.6327,231.745 " /><path d="M-29.6327,231.745 C-29.6335,231.746 -29.6325,231.745 -29.6298,231.742  C-29.6286,231.741 -29.6263,231.739 -29.6228,231.735  C-29.6199,231.732 -29.617,231.729 -29.614,231.727  C-29.6084,231.721 -29.6027,231.715 -29.597,231.709  C-29.5862,231.698 -29.5754,231.688 -29.5647,231.677  C-29.5481,231.66 -29.5314,231.643 -29.5148,231.626  C-29.4938,231.605 -29.4728,231.584 -29.4518,231.562  C-29.4265,231.537 -29.4012,231.511 -29.3759,231.485  C-29.3465,231.455 -29.317,231.425 -29.2876,231.395  C-29.2541,231.361 -29.2207,231.327 -29.1872,231.293  C-29.15,231.254 -29.1127,231.216 -29.0754,231.178  C-29.0344,231.135 -28.9935,231.093 -28.9526,231.051  C-28.9082,231.005 -28.8638,230.959 -28.8194,230.913  C-28.7717,230.863 -28.724,230.813 -28.6764,230.763  C-28.6256,230.71 -28.5749,230.656 -28.5242,230.603  C-28.4706,230.546 -28.417,230.49 -28.3635,230.433  C-28.3073,230.373 -28.2511,230.313 -28.1949,230.253  C-28.1362,230.19 -28.0776,230.127 -28.019,230.064  C-27.9582,229.998 -27.8974,229.932 -27.8365,229.866  C-27.7737,229.797 -27.7109,229.728 -27.6481,229.659  C-27.5835,229.587 -27.5189,229.516 -27.4543,229.444  C-27.3882,229.37 -27.322,229.296 -27.2558,229.222  C-27.1214,229.07 -26.9851,228.915 -26.8469,228.756  C-26.7772,228.674 -26.7074,228.593 -26.6377,228.512  C-26.4969,228.347 -26.3551,228.179 -26.2124,228.007  C-25.6401,227.316 -25.0546,226.566 -24.4902,225.772  C-24.2084,225.374 -23.9319,224.965 -23.6652,224.548  C-23.5326,224.339 -23.4029,224.13 -23.2763,223.921  C-23.2151,223.818 -23.1539,223.715 -23.0928,223.611  C-23.0359,223.512 -22.9791,223.413 -22.9223,223.314  C-22.8719,223.224 -22.8216,223.133 -22.7713,223.043  C-22.7278,222.963 -22.6844,222.883 -22.6409,222.802  C-22.6019,222.728 -22.5629,222.654 -22.5239,222.58  C-22.4858,222.506 -22.4478,222.432 -22.4097,222.358  C-22.3703,222.28 -22.3309,222.201 -22.2916,222.122  C-22.2493,222.035 -22.2071,221.948 -22.1649,221.861  C-22.1175,221.76 -22.0701,221.659 -22.0228,221.558  C-21.9706,221.442 -21.9185,221.326 -21.8664,221.21  C-21.8127,221.085 -21.759,220.959 -21.7053,220.834  C-21.653,220.705 -21.6006,220.576 -21.5483,220.447  C-21.4983,220.316 -21.4482,220.185 -21.3981,220.055  C-21.3505,219.923 -21.3028,219.791 -21.2552,219.659  C-21.2101,219.526 -21.165,219.393 -21.1199,219.259  C-21.117,219.251 -21.1141,219.242 -21.1111,219.233  C-21.1071,219.22 -21.103,219.207 -21.0989,219.195  C-21.0932,219.177 -21.0876,219.16 -21.0819,219.142  C-21.0742,219.118 -21.0666,219.094 -21.0589,219.07  C-21.0486,219.038 -21.0383,219.005 -21.028,218.972  C-21.0143,218.928 -21.0007,218.884 -20.9871,218.84  C-20.9693,218.78 -20.9515,218.721 -20.9337,218.662  C-20.9107,218.582 -20.8878,218.503 -20.8648,218.424  C-20.8357,218.318 -20.8066,218.212 -20.7775,218.106  C-20.7426,217.97 -20.7077,217.834 -20.6728,217.698  C-20.6068,217.425 -20.545,217.152 -20.4871,216.878  C-20.4316,216.604 -20.3799,216.329 -20.3322,216.054  C-20.1232,214.818 -20.0132,213.577 -19.9719,212.37  C-19.9636,212.103 -19.9578,211.837 -19.9544,211.572  C-19.9523,211.309 -19.9524,211.048 -19.9547,210.789  C-19.9581,210.532 -19.9633,210.277 -19.9704,210.025  C-19.9746,209.901 -19.9789,209.776 -19.9832,209.652  C-19.9932,209.405 -20.0045,209.163 -20.0173,208.925  C-20.0241,208.807 -20.031,208.69 -20.0379,208.573  C-20.0454,208.458 -20.0529,208.344 -20.0604,208.229  C-20.0685,208.118 -20.0766,208.007 -20.0846,207.895  C-20.0931,207.788 -20.1016,207.68 -20.1101,207.572  C-20.1189,207.468 -20.1277,207.364 -20.1365,207.26  C-20.1455,207.16 -20.1545,207.06 -20.1636,206.96  C-20.1727,206.864 -20.1818,206.769 -20.1909,206.673  C-20.2,206.582 -20.2091,206.491 -20.2182,206.4  C-20.2271,206.314 -20.2361,206.229 -20.245,206.143  C-20.2538,206.062 -20.2625,205.982 -20.2712,205.901  C-20.2796,205.826 -20.288,205.751 -20.2964,205.677  C-20.3043,205.608 -20.3123,205.539 -20.3202,205.47  C-20.3276,205.407 -20.335,205.345 -20.3424,205.282  C-20.3491,205.226 -20.3559,205.17 -20.3627,205.114  C-20.3687,205.065 -20.3747,205.016 -20.3808,204.967  C-20.386,204.925 -20.3913,204.883 -20.3965,204.841  C-20.4009,204.807 -20.4053,204.772 -20.4097,204.738  C-20.4131,204.711 -20.4166,204.683 -20.4201,204.656  C-20.4226,204.637 -20.4251,204.618 -20.4276,204.598  C-20.4291,204.587 -20.4306,204.575 -20.4321,204.563  C-20.4325,204.56 -20.4328,204.558 -20.4332,204.555  C-20.4339,204.55 -20.4334,204.553 -20.4336,204.552  C-20.4336,204.552 -20.4336,204.552 -20.4336,204.551  C-20.4338,204.55 -20.4335,204.553 -20.4356,204.535  C-20.4512,204.395 -20.4377,204.256 -20.3949,204.12  C-20.3736,204.054 -20.3461,203.991 -20.3126,203.931  C-20.2954,203.901 -20.2769,203.872 -20.2572,203.844  C-20.247,203.831 -20.2369,203.817 -20.2267,203.803  C-20.2221,203.798 -20.2174,203.792 -20.2127,203.786  C-20.2076,203.78 -20.1989,203.77 -20.1968,203.767 " /><path d="M-21.657,220.717 C-21.8313,221.142 -22.0123,221.546 -22.2061,221.947  C-22.3999,222.348 -22.6042,222.742 -22.8189,223.129  C-23.2473,223.903 -23.7133,224.646 -24.201,225.357  C-25.1662,226.766 -26.2276,228.059 -27.1798,229.136  C-28.1189,230.198 -28.939,231.039 -29.3444,231.453  C-29.5366,231.648 -29.6329,231.746 -29.6332,231.746  C-29.6942,231.807 -29.7467,231.876 -29.7906,231.953  C-29.8912,232.126 -29.9335,232.33 -29.921,232.513 " /><path d="M-15.0001,251.427 C-16.313,249.986 -17.8185,248.752 -19.3836,247.704  C-20.9437,246.657 -22.5686,245.787 -23.9858,245.098  C-24.9155,244.646 -25.7437,244.279 -26.3299,244.025  C-26.9183,243.771 -27.2543,243.633 -27.2553,243.632 " /><path d="M-27.2553,243.632 C-27.2516,243.634 -27.2479,243.635 -27.2441,243.637  C-27.2406,243.638 -27.2385,243.639 -27.2379,243.639  C-27.239,243.639 -27.2421,243.638 -27.2472,243.635  C-27.2506,243.634 -27.2579,243.631 -27.2327,243.641  C-27.2015,243.653 -27.17,243.664 -27.1382,243.673  C-27.0714,243.691 -27.005,243.702 -26.9392,243.707 " /><path d="M-8.33805,264.873 C-8.34237,264.941 -8.33926,265.011 -8.32873,265.082  C-8.3231,265.111 -8.31747,265.14 -8.31184,265.168  C-8.28961,265.25 -8.29836,265.218 -8.3023,265.204  C-8.30786,265.183 -8.3111,265.172 -8.31202,265.168  C-8.31301,265.165 -8.30782,265.184 -8.30785,265.184  C-8.30786,265.184 -8.3058,265.192 -8.30491,265.195 " /><path d="M-8.30491,265.195 C-8.30567,265.193 -8.36173,264.984 -8.46928,264.601  C-8.66994,263.889 -9.04548,262.586 -9.56383,261.109  C-10.1105,259.55 -10.809,257.821 -11.6998,256.152  C-12.5897,254.479 -13.6852,252.862 -15.0001,251.427 " /><path d="M-27.8166,243.035 C-27.7576,243.209 -27.6397,243.381 -27.4791,243.503  C-27.423,243.546 -27.3633,243.582 -27.3001,243.612  C-27.2912,243.616 -27.2823,243.62 -27.2734,243.625  C-27.2685,243.627 -27.2635,243.629 -27.2585,243.631  C-27.2516,243.634 -27.2633,243.629 -27.2397,243.639  C-27.1669,243.67 -26.8071,243.818 -26.242,244.063  C-25.6782,244.308 -24.909,244.651 -24.053,245.066  C-23.1835,245.487 -22.2234,245.982 -21.2524,246.543  C-20.2802,247.104 -19.2972,247.731 -18.3483,248.432  C-16.9132,249.489 -15.5554,250.728 -14.3898,252.125  C-14.2577,252.282 -14.1214,252.452 -13.9924,252.615  C-13.8631,252.779 -13.7365,252.944 -13.6127,253.111  C-13.3642,253.445 -13.1286,253.785 -12.9371,254.073  C-12.7437,254.364 -12.5875,254.611 -12.401,254.918  C-12.3075,255.072 -12.2104,255.237 -12.1096,255.412  C-12.0105,255.585 -11.9115,255.762 -11.8127,255.942  C-11.2474,256.979 -10.7545,258.049 -10.3271,259.093  C-9.89995,260.136 -9.53743,261.157 -9.23921,262.065  C-8.94132,262.972 -8.70806,263.763 -8.54881,264.32  C-8.38948,264.879 -8.30559,265.195 -8.30483,265.196 " /><path d="M-7.7845,265.829 C-7.94967,265.748 -8.10517,265.609 -8.20536,265.434  C-8.2397,265.375 -8.26757,265.313 -8.28896,265.248  C-8.29425,265.231 -8.29954,265.213 -8.30484,265.196 " /><path d="M-12.1365,296.684 C-15.1251,298.669 -17.8444,301.058 -20.1968,303.767 " /><path d="M-29.921,332.513 C-29.6963,336.093 -28.9863,339.643 -27.8166,343.035 " /><path d="M8.20472,370 Q5.34399,372.883 2.67221,375.575 " /><path d="M0.55727,377.706 C-8.42148,386.754 -15.7728,394.161 -21.8112,400.246 " /><path d="M-22.5898,401.031 C-28.6325,407.12 -33.3216,411.845 -36.9406,415.491  C-40.5581,419.137 -43.1053,421.703 -44.8225,423.434  C-46.5383,425.163 -47.4238,426.055 -47.6811,426.314  C-47.9372,426.573 -47.5648,426.197 -46.7322,425.358  C-45.8986,424.518 -44.6045,423.214 -42.9888,421.586  C-41.3722,419.957 -39.4336,418.004 -37.2862,415.84  C-35.1379,413.675 -32.7804,411.3 -30.3045,408.805  C-27.8278,406.309 -25.2324,403.694 -22.5896,401.031 " /><path d="M-21.811,400.247 C-18.0629,396.47 -14.2349,392.612 -10.4693,388.818  C-6.70196,385.022 -2.99615,381.287 0.556457,377.708 " /><path d="M2.67377,375.574 Q5.51814,372.708 8.20545,370 " /><path d="M-11.4788,296.51 C-11.9417,296.388 -11.9649,296.382 -11.9129,296.395  C-11.8525,296.411 -11.7088,296.449 -11.6066,296.476  C-11.4996,296.504 -11.4262,296.524 -11.3863,296.534  C-11.3459,296.545 -11.3346,296.548 -11.3299,296.549 " /><path d="M-11.3272,296.55 L-11.3269,296.55 " /><path d="M-11.0573,296.621 Q-11.3147,296.553 -11.3274,296.55 " /><path d="M-11.3279,296.55 L-11.3299,296.549 " /><path d="M-11.3326,296.549 C-11.4138,296.527 -11.497,296.517 -11.5822,296.517  C-11.7844,296.516 -11.9834,296.581 -12.1365,296.684 " /><path d="M-20.4336,304.552 L-20.4336,304.552 " /><path d="M-20.4335,304.552 L-20.4335,304.552 " /><path d="M-20.4337,304.551 L-20.4337,304.551 " /><path d="M-29.6327,331.745 L-29.6327,331.745 " /><path d="M-29.6327,331.745 C-29.6326,331.745 -29.6325,331.745 -29.6323,331.745  C-29.6315,331.744 -29.6306,331.743 -29.6298,331.742  C-29.629,331.742 -29.6282,331.741 -29.6274,331.74  C-29.6252,331.738 -29.6207,331.733 -29.614,331.727  C-29.6084,331.721 -29.6027,331.715 -29.597,331.709  C-29.5862,331.698 -29.5754,331.688 -29.5647,331.677  C-29.5481,331.66 -29.5314,331.643 -29.5148,331.626  C-29.4938,331.605 -29.4728,331.584 -29.4518,331.562  C-29.4265,331.537 -29.4012,331.511 -29.3759,331.485  C-29.3465,331.455 -29.317,331.425 -29.2876,331.395  C-29.2541,331.361 -29.2207,331.327 -29.1872,331.293  C-29.15,331.254 -29.1127,331.216 -29.0754,331.178  C-29.0344,331.135 -28.9935,331.093 -28.9526,331.051  C-28.9082,331.005 -28.8638,330.959 -28.8194,330.913  C-28.7717,330.863 -28.724,330.813 -28.6764,330.763  C-28.6256,330.71 -28.5749,330.656 -28.5242,330.603  C-28.4706,330.546 -28.417,330.49 -28.3635,330.433  C-28.3073,330.373 -28.2511,330.313 -28.1949,330.253  C-28.1362,330.19 -28.0776,330.127 -28.019,330.064  C-27.9582,329.998 -27.8974,329.932 -27.8365,329.866  C-27.7737,329.797 -27.7109,329.728 -27.6481,329.659  C-27.5835,329.587 -27.5189,329.516 -27.4543,329.444  C-27.3882,329.37 -27.322,329.296 -27.2558,329.222  C-27.1214,329.07 -26.9851,328.915 -26.8469,328.756  C-26.7772,328.674 -26.7074,328.593 -26.6377,328.512  C-26.4969,328.347 -26.3551,328.179 -26.2124,328.007  C-25.3553,326.973 -24.4676,325.804 -23.6685,324.553 " /><path d="M-23.6619,324.543 Q-23.4647,324.232 -23.2763,323.921  Q-23.1845,323.766 -23.0928,323.611  Q-23.0075,323.463 -22.9223,323.314  Q-22.8468,323.179 -22.7713,323.043  Q-22.7061,322.923 -22.6409,322.802  Q-22.5836,322.694 -22.5263,322.585 " /><path d="M-22.5215,322.576 L-22.4097,322.358  L-22.2916,322.122  L-22.1649,321.861  L-22.0228,321.558  L-21.8664,321.21  L-21.7053,320.834  L-21.5483,320.447  L-21.3981,320.055  L-21.2552,319.659  L-21.1199,319.259  L-21.1111,319.233  L-21.0989,319.195  L-21.0819,319.142  L-21.0589,319.07  L-21.028,318.972  L-20.9871,318.84  L-20.9337,318.662  L-20.8648,318.424  L-20.7775,318.106  L-20.6728,317.698 " /><path d="M-29.631,331.744 C-29.6318,331.744 -29.6325,331.745 -29.6332,331.746  C-29.6942,331.807 -29.7467,331.876 -29.7906,331.953  C-29.8912,332.126 -29.9335,332.33 -29.921,332.513 " /><path d="M-27.8166,343.035 C-27.7576,343.209 -27.6397,343.381 -27.4791,343.503  C-27.423,343.546 -27.3633,343.582 -27.3001,343.612  C-27.2912,343.616 -27.2823,343.62 -27.2734,343.625  C-27.2685,343.627 -27.2635,343.629 -27.2585,343.631  C-27.2516,343.634 -27.2633,343.629 -27.2397,343.639  C-27.1669,343.67 -26.8071,343.818 -26.242,344.063  C-25.6782,344.308 -24.909,344.651 -24.053,345.066  C-23.1835,345.487 -22.2234,345.982 -21.2524,346.543  C-20.2802,347.104 -19.2972,347.731 -18.3483,348.432  C-18.1481,348.58 -17.9496,348.731 -17.7527,348.885 " /><path d="M-16.2501,350.167 Q-15.6174,350.755 -15.0311,351.393 " /><path d="M2.38026,369.268 C-1.14192,368.585 -4.57117,367.425 -7.7845,365.829 " /><path d="M32.1365,363.316 C35.1251,361.331 37.8444,358.942 40.1968,356.233 " /><path d="M47.8166,316.965 C48.9863,320.357 49.6963,323.907 49.921,327.487 " /><path d="M27.7845,294.171 C24.5711,292.575 21.1419,291.415 17.6197,290.732 " /><path d="M-12.1365,296.684 C-15.1251,298.669 -17.8444,301.058 -20.1968,303.767 " /><path d="M-29.921,332.513 C-29.6963,336.093 -28.9863,339.643 -27.8166,343.035 " /><path d="M10.4664,364.385 C11.526,363.856 12.6376,363.38 13.7893,362.994  C14.9405,362.607 16.1317,362.311 17.3346,362.124  C17.5604,362.089 17.7855,362.057 18.0099,362.028  C18.2367,362 18.4559,361.976 18.6676,361.957  C19.0912,361.917 19.4386,361.895 19.7704,361.879  C20.1017,361.864 20.4532,361.855 20.8662,361.853  C21.0726,361.853 21.2824,361.855 21.4956,361.86  C21.7082,361.865 21.9137,361.873 22.1313,361.882  C23.2767,361.934 24.4056,362.055 25.4753,362.213  C26.544,362.371 27.5536,362.565 28.4327,362.754  C29.2925,362.939 30.024,363.117 30.5329,363.245  C31.0434,363.374 31.3255,363.45 31.3278,363.45 " /><path d="M31.3278,363.45 C31.3251,363.45 31.3224,363.449 31.3197,363.448  C31.3173,363.447 31.3165,363.447 31.3172,363.447  C31.3192,363.448 31.3212,363.448 31.3232,363.449  C31.325,363.449 31.3282,363.45 31.3114,363.446  C31.2079,363.416 31.1147,363.373 31.0315,363.318 " /><path d="M10.4664,364.385 C12.3746,363.428 14.4632,362.656 16.6279,362.247  C17.9307,361.997 19.2556,361.873 20.5659,361.856  C21.8618,361.838 23.1448,361.922 24.376,362.067  C25.6055,362.212 26.7832,362.416 27.8246,362.627  C28.817,362.828 29.6822,363.034 30.3015,363.187  C30.9223,363.342 31.2886,363.44 31.3245,363.449  C31.3295,363.451 31.3284,363.45 31.3354,363.452  C31.341,363.454 31.3466,363.455 31.3521,363.456  C31.3615,363.459 31.3715,363.461 31.382,363.463  C31.4486,363.477 31.5162,363.483 31.5849,363.483  C31.7862,363.484 31.9841,363.419 32.1365,363.316 " /><path d="M10.4663,364.385 C9.07837,365.078 7.77561,365.863 6.63909,366.611  C5.50586,367.355 4.54298,368.057 3.92398,368.517  C3.44337,368.876 3.17841,369.081 3.17818,369.08 " /><path d="M3.17818,369.08 C3.18006,369.079 3.18194,369.077 3.18381,369.076  C3.18449,369.075 3.18516,369.075 3.18583,369.074  C3.18735,369.073 3.17611,369.082 3.18959,369.071  C3.27421,369.004 3.34459,368.928 3.40072,368.844 " /><path d="M10.4664,364.385 C10.2316,364.502 9.99382,364.625 9.7765,364.74  C9.5573,364.857 9.34046,364.975 9.12598,365.095  C8.69716,365.335 8.28129,365.578 7.87838,365.825  C6.46836,366.685 5.21917,367.567 4.35741,368.198  C3.66706,368.703 3.24293,369.032 3.18576,369.074  C3.18647,369.074 3.17741,369.081 3.17864,369.08  C3.17912,369.08 3.1779,369.08 3.17499,369.083  C3.16575,369.09 3.15769,369.096 3.1508,369.1  C2.929,369.262 2.62808,369.319 2.38026,369.268 " /><path d="M33.868,307.226 C35.1613,308.908 36.7303,310.386 38.4066,311.611  C39.3766,312.323 40.3816,312.959 41.3739,313.527  C42.3646,314.095 43.3438,314.595 44.2197,315.015  C45.0948,315.434 45.8633,315.774 46.405,316.008  C46.9483,316.241 47.2569,316.368 47.2554,316.368 " /><path d="M46.9392,316.293 C47.0076,316.298 47.0765,316.31 47.1459,316.329  C47.1737,316.339 47.2014,316.348 47.2292,316.357  C47.3139,316.393 47.2808,316.379 47.2659,316.372  C47.2447,316.364 47.2324,316.358 47.2288,316.357  C47.2248,316.355 47.2445,316.363 47.2445,316.363  C47.2445,316.363 47.2518,316.366 47.255,316.368 " /><path d="M47.255,316.368 C47.2541,316.367 46.9002,316.222 46.2855,315.956  C45.673,315.69 44.8112,315.306 43.8494,314.835  C42.3995,314.126 40.7523,313.233 39.1786,312.157  C37.6001,311.082 36.0902,309.811 34.7848,308.333  C34.4199,307.922 34.0739,307.499 33.7405,307.06  C33.5742,306.839 33.42,306.628 33.2777,306.425  C33.1372,306.225 33.0102,306.038 32.8968,305.866  C32.6699,305.522 32.4732,305.208 32.2275,304.791  C32.1067,304.585 31.9787,304.361 31.8567,304.139  C31.7329,303.913 31.6238,303.705 31.5,303.467  C30.9372,302.372 30.4537,301.256 30.0395,300.183  C29.6258,299.113 29.2813,298.087 29.008,297.215  C28.7823,296.495 28.6061,295.884 28.4868,295.461  C28.3674,295.037 28.3053,294.805 28.3048,294.804 " /><path d="M28.3048,294.804 Q28.3046,294.804 28.3055,294.807  Q28.3259,294.883 28.3341,294.959  Q28.3432,295.045 28.338,295.127 " /><path d="M33.868,307.226 C33.5873,306.862 33.3277,306.504 33.077,306.135  C32.8268,305.767 32.5876,305.393 32.3595,305.013  C31.9039,304.256 31.4931,303.48 31.1211,302.702  C30.3841,301.162 29.7949,299.597 29.3381,298.233  C28.8877,296.889 28.5694,295.758 28.4137,295.2  C28.3407,294.936 28.3044,294.804 28.3046,294.804  C28.2819,294.72 28.2485,294.64 28.2044,294.564  C28.1041,294.39 27.9491,294.252 27.7845,294.171 " /><path d="M47.8166,316.965 C47.7576,316.791 47.6397,316.619 47.4791,316.497  C47.423,316.454 47.3633,316.418 47.3001,316.388  C47.2852,316.381 47.2703,316.374 47.2554,316.368 " /><path d="M41.0565,340.937 C40.4649,342.795 40.1486,344.716 40.0239,346.595  C39.8974,348.469 39.956,350.312 40.0683,351.883  C40.142,352.915 40.2376,353.816 40.3109,354.45  C40.3849,355.087 40.4338,355.447 40.4335,355.448 " /><path d="M40.4335,355.448 C40.433,355.444 40.4325,355.44 40.4319,355.436  C40.4314,355.432 40.4311,355.43 40.431,355.429  C40.4311,355.431 40.4315,355.434 40.4322,355.439  C40.4326,355.443 40.4336,355.451 40.4301,355.424  C40.425,355.391 40.4183,355.358 40.41,355.326  C40.3924,355.259 40.3691,355.196 40.34,355.137 " /><path d="M49.3696,328.445 C49.436,328.412 49.4995,328.371 49.56,328.321  C49.5818,328.301 49.6036,328.282 49.6254,328.262  C37.6663,340.313 27.2111,350.848 18.0324,360.097 " /><path d="M15.7017,362.446 Q14.4171,363.74 13.1667,365 " /><path d="M8.20472,370 Q5.34399,372.883 2.67221,375.575 " /><path d="M0.55727,377.706 C-8.42148,386.754 -15.7728,394.161 -21.8112,400.246 " /><path d="M-22.5898,401.031 C-28.6325,407.12 -33.3216,411.845 -36.9406,415.491  C-40.5581,419.137 -43.1053,421.703 -44.8225,423.434  C-46.5383,425.163 -47.4238,426.055 -47.6811,426.314  C-47.9372,426.573 -47.5648,426.197 -46.7322,425.358  C-45.8986,424.518 -44.6045,423.214 -42.9888,421.586  C-41.3722,419.957 -39.4336,418.004 -37.2862,415.84  C-35.1379,413.675 -32.7804,411.3 -30.3045,408.805  C-27.8278,406.309 -25.2324,403.694 -22.5896,401.031 " /><path d="M-21.811,400.247 C-18.0629,396.47 -14.2349,392.612 -10.4693,388.818  C-6.70196,385.022 -2.99615,381.287 0.556457,377.708 " /><path d="M2.67377,375.574 Q5.51814,372.708 8.20545,370 " /><path d="M13.1674,365 Q14.46,363.698 15.7026,362.445 " /><path d="M43.6854,334.248 C46.2401,331.673 47.7106,330.192 48.6148,329.28  C49.5139,328.374 49.8542,328.031 50.0006,327.884  C50.1407,327.743 50.085,327.799 50.0151,327.869  C49.9405,327.944 49.8463,328.039 49.7833,328.103  C49.6508,328.236 49.6358,328.252 49.6329,328.254  C49.632,328.255 49.632,328.255 49.6327,328.255 " /><path d="M49.6327,328.255 C49.6345,328.254 49.3356,328.551 48.826,329.081  C48.3325,329.595 47.6609,330.309 46.9353,331.143  C46.2085,331.977 45.4275,332.931 44.6824,333.96  C43.936,334.99 43.2254,336.095 42.6078,337.26  C41.989,338.426 41.4631,339.653 41.0565,340.937 " /><path d="M40.1968,356.233 C40.3182,356.095 40.4082,355.906 40.4335,355.706  C40.4426,355.636 40.4443,355.566 40.4387,355.497  C40.4377,355.487 40.4368,355.477 40.4359,355.467  C40.4353,355.462 40.4346,355.457 40.434,355.451  C40.433,355.444 40.4347,355.457 40.4314,355.431  C40.4216,355.353 40.37,354.967 40.3,354.355  C40.2305,353.744 40.1426,352.907 40.0737,351.958  C40.0035,350.994 39.9521,349.915 39.9525,348.794  C39.9527,347.671 40.0045,346.506 40.1368,345.334  C40.3342,343.563 40.7283,341.768 41.356,340.059  C41.4256,339.867 41.5044,339.664 41.5814,339.47  C41.6587,339.276 41.7386,339.084 41.821,338.894  C41.9864,338.511 42.1628,338.137 42.3164,337.827  C42.4719,337.514 42.6075,337.256 42.7803,336.941  C42.867,336.783 42.9608,336.616 43.062,336.441  C43.1623,336.269 43.266,336.095 43.3732,335.919  C43.9858,334.916 44.6623,333.958 45.3495,333.07  C46.036,332.182 46.7351,331.36 47.3705,330.649  C48.0053,329.939 48.5739,329.341 48.9795,328.921  C49.3864,328.501 49.6236,328.264 49.6324,328.255  C49.6336,328.254 49.6357,328.252 49.6389,328.248  C49.6403,328.247 49.6372,328.25 49.6439,328.243  C49.6479,328.239 49.654,328.233 49.6624,328.225  C49.6684,328.219 49.6785,328.208 49.6457,328.241  C49.7009,328.184 49.7487,328.12 49.7893,328.05  C49.8908,327.875 49.9336,327.671 49.921,327.487 " /><path d="M3.94358,297.636 C5.84813,297.219 7.66989,296.533 9.35973,295.701  C11.0463,294.873 12.6126,293.901 13.9174,293.018  C14.7735,292.439 15.5061,291.906 16.019,291.525  C16.5333,291.142 16.8205,290.92 16.8217,290.92 " /><path d="M16.8217,290.92 C16.8186,290.922 16.8154,290.925 16.8122,290.927  C16.8092,290.93 16.8075,290.931 16.807,290.931  C16.8079,290.931 16.8106,290.929 16.815,290.925  C16.818,290.923 16.8243,290.918 16.8026,290.935  C16.7765,290.956 16.7517,290.978 16.7282,291.001  C16.6789,291.05 16.6359,291.102 16.5993,291.156 " /><path d="M-11.0315,296.682 Q-11.1241,296.621 -11.234,296.58  Q-11.2759,296.566 -11.3179,296.552  Q-8.10502,297.4 -5,298.22 " /><path d="M-5,298.22 C-7.8728,297.461 -9.48151,297.037 -10.4527,296.781  C-11.417,296.526 -11.7505,296.438 -11.8769,296.405  C-11.9956,296.374 -11.904,296.398 -11.8057,296.424  C-11.702,296.451 -11.585,296.482 -11.5076,296.502  C-11.3461,296.545 -11.3316,296.549 -11.3278,296.55  C-11.327,296.55 -11.327,296.55 -11.3279,296.55 " /><path d="M-11.3279,296.55 C-11.3296,296.549 -10.9228,296.659 -10.2092,296.835  C-9.51729,297.006 -8.56275,297.23 -7.47811,297.442  C-6.39175,297.654 -5.17504,297.853 -3.91163,297.984  C-2.64676,298.116 -1.33428,298.178 -0.0164477,298.131  C1.30228,298.084 2.6279,297.926 3.94358,297.636 " /><path d="M17.6197,290.732 C17.4394,290.696 17.2314,290.713 17.0457,290.791  C16.9804,290.818 16.919,290.851 16.8614,290.891  C16.8535,290.897 16.8455,290.902 16.8375,290.908  C16.8332,290.911 16.8289,290.914 16.8245,290.918  C16.8186,290.922 16.8287,290.915 16.8083,290.93  C16.7452,290.978 16.4372,291.215 15.942,291.582  C15.4478,291.948 14.7664,292.442 13.9793,292.976  C13.18,293.519 12.2712,294.103 11.2999,294.663  C10.3276,295.225 9.29267,295.762 8.21143,296.234  C6.57897,296.948 4.82713,297.505 3.03371,297.815  C2.83184,297.851 2.61698,297.884 2.41098,297.914  C2.20429,297.945 1.99781,297.971 1.79152,297.995  C1.37762,298.043 0.9658,298.078 0.620631,298.099  C0.271736,298.121 -0.0201728,298.133 -0.379412,298.141  C-0.559509,298.145 -0.750531,298.147 -0.952479,298.147  C-1.15194,298.146 -1.35464,298.143 -1.56057,298.138  C-2.73585,298.11 -3.90322,298.002 -5.01642,297.852  C-6.12868,297.701 -7.18952,297.506 -8.12295,297.312  C-9.05541,297.117 -9.85782,296.924 -10.4239,296.782  C-10.9915,296.64 -11.3148,296.553 -11.3274,296.55  C-11.3276,296.55 -11.3278,296.55 -11.3279,296.55  C-11.3291,296.549 -11.3302,296.549 -11.3313,296.549  C-11.4129,296.528 -11.4965,296.517 -11.5822,296.517  C-11.7844,296.516 -11.9834,296.581 -12.1365,296.684 " /><path d="M-21.657,320.717 C-20.8488,318.761 -20.3537,316.669 -20.1306,314.61  C-19.9575,313.049 -19.927,311.496 -19.9697,310.049  C-20.0118,308.607 -20.1271,307.271 -20.2317,306.27  C-20.2873,305.737 -20.3395,305.302 -20.376,305.006  C-20.4136,304.707 -20.4328,304.555 -20.4336,304.552 " /><path d="M-20.4336,304.552 C-20.4335,304.553 -20.4334,304.553 -20.4333,304.554  C-20.4333,304.554 -20.4333,304.554 -20.4333,304.554  C-20.4332,304.555 -20.4345,304.545 -20.4331,304.556  C-20.4175,304.667 -20.3864,304.769 -20.34,304.863 " /><path d="M-29.3696,331.555 C-29.4394,331.59 -29.5058,331.633 -29.5689,331.686  C-29.5891,331.705 -29.6092,331.723 -29.6294,331.742  C-29.6167,331.729 -29.6288,331.741 -29.629,331.742  C-29.6306,331.743 -29.6313,331.744 -29.6312,331.744  C-29.6317,331.744 -29.6322,331.745 -29.6327,331.745 " /><path d="M-29.6327,331.745 C-29.6335,331.746 -29.6325,331.745 -29.6298,331.742  C-29.6286,331.741 -29.6263,331.739 -29.6228,331.735  C-29.6199,331.732 -29.617,331.729 -29.614,331.727  C-29.6084,331.721 -29.6027,331.715 -29.597,331.709  C-29.5862,331.698 -29.5754,331.688 -29.5647,331.677  C-29.5481,331.66 -29.5314,331.643 -29.5148,331.626  C-29.4938,331.605 -29.4728,331.584 -29.4518,331.562  C-29.4265,331.537 -29.4012,331.511 -29.3759,331.485  C-29.3465,331.455 -29.317,331.425 -29.2876,331.395  C-29.2541,331.361 -29.2207,331.327 -29.1872,331.293  C-29.15,331.254 -29.1127,331.216 -29.0754,331.178  C-29.0344,331.135 -28.9935,331.093 -28.9526,331.051  C-28.9082,331.005 -28.8638,330.959 -28.8194,330.913  C-28.7717,330.863 -28.724,330.813 -28.6764,330.763  C-28.6256,330.71 -28.5749,330.656 -28.5242,330.603  C-28.4706,330.546 -28.417,330.49 -28.3635,330.433  C-28.3073,330.373 -28.2511,330.313 -28.1949,330.253  C-28.1362,330.19 -28.0776,330.127 -28.019,330.064  C-27.9582,329.998 -27.8974,329.932 -27.8365,329.866  C-27.7737,329.797 -27.7109,329.728 -27.6481,329.659  C-27.5835,329.587 -27.5189,329.516 -27.4543,329.444  C-27.3882,329.37 -27.322,329.296 -27.2558,329.222  C-27.1214,329.07 -26.9851,328.915 -26.8469,328.756  C-26.7772,328.674 -26.7074,328.593 -26.6377,328.512  C-26.4969,328.347 -26.3551,328.179 -26.2124,328.007  C-25.6401,327.316 -25.0546,326.566 -24.4902,325.772  C-24.2084,325.374 -23.9319,324.965 -23.6652,324.548  C-23.5326,324.339 -23.4029,324.13 -23.2763,323.921  C-23.2151,323.818 -23.1539,323.715 -23.0928,323.611  C-23.0359,323.512 -22.9791,323.413 -22.9223,323.314  C-22.8719,323.224 -22.8216,323.133 -22.7713,323.043  C-22.7278,322.963 -22.6844,322.883 -22.6409,322.802  C-22.6019,322.728 -22.5629,322.654 -22.5239,322.58  C-22.4858,322.506 -22.4478,322.432 -22.4097,322.358  C-22.3703,322.28 -22.3309,322.201 -22.2916,322.122  C-22.2493,322.035 -22.2071,321.948 -22.1649,321.861  C-22.1175,321.76 -22.0701,321.659 -22.0228,321.558  C-21.9706,321.442 -21.9185,321.326 -21.8664,321.21  C-21.8127,321.085 -21.759,320.959 -21.7053,320.834  C-21.653,320.705 -21.6006,320.576 -21.5483,320.447  C-21.4983,320.316 -21.4482,320.185 -21.3981,320.055  C-21.3505,319.923 -21.3028,319.791 -21.2552,319.659  C-21.2101,319.526 -21.165,319.393 -21.1199,319.259  C-21.117,319.251 -21.1141,319.242 -21.1111,319.233  C-21.1071,319.22 -21.103,319.207 -21.0989,319.195  C-21.0932,319.177 -21.0876,319.16 -21.0819,319.142  C-21.0742,319.118 -21.0666,319.094 -21.0589,319.07  C-21.0486,319.038 -21.0383,319.005 -21.028,318.972  C-21.0143,318.928 -21.0007,318.884 -20.9871,318.84  C-20.9693,318.78 -20.9515,318.721 -20.9337,318.662  C-20.9107,318.582 -20.8878,318.503 -20.8648,318.424  C-20.8357,318.318 -20.8066,318.212 -20.7775,318.106  C-20.7426,317.97 -20.7077,317.834 -20.6728,317.698  C-20.6068,317.425 -20.545,317.152 -20.4871,316.878  C-20.4316,316.604 -20.3799,316.329 -20.3322,316.054  C-20.1232,314.818 -20.0132,313.577 -19.9719,312.37  C-19.9636,312.103 -19.9578,311.837 -19.9544,311.572  C-19.9523,311.309 -19.9524,311.048 -19.9547,310.789  C-19.9581,310.532 -19.9633,310.277 -19.9704,310.025  C-19.9746,309.901 -19.9789,309.776 -19.9832,309.652  C-19.9932,309.405 -20.0045,309.163 -20.0173,308.925  C-20.0241,308.807 -20.031,308.69 -20.0379,308.573  C-20.0454,308.458 -20.0529,308.344 -20.0604,308.229  C-20.0685,308.118 -20.0766,308.007 -20.0846,307.895  C-20.0931,307.788 -20.1016,307.68 -20.1101,307.572  C-20.1189,307.468 -20.1277,307.364 -20.1365,307.26  C-20.1455,307.16 -20.1545,307.06 -20.1636,306.96  C-20.1727,306.864 -20.1818,306.769 -20.1909,306.673  C-20.2,306.582 -20.2091,306.491 -20.2182,306.4  C-20.2271,306.314 -20.2361,306.229 -20.245,306.143  C-20.2538,306.062 -20.2625,305.982 -20.2712,305.901  C-20.2796,305.826 -20.288,305.751 -20.2964,305.677  C-20.3043,305.608 -20.3123,305.539 -20.3202,305.47  C-20.3276,305.407 -20.335,305.345 -20.3424,305.282  C-20.3491,305.226 -20.3559,305.17 -20.3627,305.114  C-20.3687,305.065 -20.3747,305.016 -20.3808,304.967  C-20.386,304.925 -20.3913,304.883 -20.3965,304.841  C-20.4009,304.807 -20.4053,304.772 -20.4097,304.738  C-20.4131,304.711 -20.4166,304.683 -20.4201,304.656  C-20.4226,304.637 -20.4251,304.618 -20.4276,304.598  C-20.4291,304.587 -20.4306,304.575 -20.4321,304.563  C-20.4325,304.56 -20.4328,304.558 -20.4332,304.555  C-20.4339,304.55 -20.4334,304.553 -20.4336,304.552  C-20.4336,304.552 -20.4336,304.552 -20.4336,304.551  C-20.4338,304.55 -20.4335,304.553 -20.4356,304.535  C-20.4512,304.395 -20.4377,304.256 -20.3949,304.12  C-20.3736,304.054 -20.3461,303.991 -20.3126,303.931  C-20.2954,303.901 -20.2769,303.872 -20.2572,303.844  C-20.247,303.831 -20.2369,303.817 -20.2267,303.803  C-20.2221,303.798 -20.2174,303.792 -20.2127,303.786  C-20.2076,303.78 -20.1989,303.77 -20.1968,303.767 " /><path d="M-21.657,320.717 C-21.8313,321.142 -22.0123,321.546 -22.2061,321.947  C-22.3999,322.348 -22.6042,322.742 -22.8189,323.129  C-23.2473,323.903 -23.7133,324.646 -24.201,325.357  C-25.1662,326.766 -26.2276,328.059 -27.1798,329.136  C-28.1189,330.198 -28.939,331.039 -29.3444,331.453  C-29.5366,331.648 -29.6329,331.746 -29.6332,331.746  C-29.6942,331.807 -29.7467,331.876 -29.7906,331.953  C-29.8912,332.126 -29.9335,332.33 -29.921,332.513 " /><path d="M-15.0001,351.427 C-16.313,349.986 -17.8185,348.752 -19.3836,347.704  C-20.9437,346.657 -22.5686,345.787 -23.9858,345.098  C-24.9155,344.646 -25.7437,344.279 -26.3299,344.025  C-26.9183,343.771 -27.2543,343.633 -27.2553,343.632 " /><path d="M-27.2553,343.632 C-27.2516,343.634 -27.2479,343.635 -27.2441,343.637  C-27.2406,343.638 -27.2385,343.639 -27.2379,343.639  C-27.239,343.639 -27.2421,343.638 -27.2472,343.635  C-27.2506,343.634 -27.2579,343.631 -27.2327,343.641  C-27.2015,343.653 -27.17,343.664 -27.1382,343.673  C-27.0714,343.691 -27.005,343.702 -26.9392,343.707 " /><path d="M-8.33805,364.873 C-8.34237,364.941 -8.33926,365.011 -8.32873,365.082  C-8.3231,365.111 -8.31747,365.14 -8.31184,365.168  C-8.28961,365.25 -8.29836,365.218 -8.3023,365.204  C-8.30786,365.183 -8.3111,365.172 -8.31202,365.168  C-8.31301,365.165 -8.30782,365.184 -8.30785,365.184  C-8.30786,365.184 -8.3058,365.192 -8.30491,365.195 " /><path d="M-8.30491,365.195 C-8.30567,365.193 -8.36173,364.984 -8.46928,364.601  C-8.66994,363.889 -9.04548,362.586 -9.56383,361.109  C-10.1105,359.55 -10.809,357.821 -11.6998,356.152  C-12.5897,354.479 -13.6852,352.862 -15.0001,351.427 " /><path d="M-27.8166,343.035 C-27.7576,343.209 -27.6397,343.381 -27.4791,343.503  C-27.423,343.546 -27.3633,343.582 -27.3001,343.612  C-27.2912,343.616 -27.2823,343.62 -27.2734,343.625  C-27.2685,343.627 -27.2635,343.629 -27.2585,343.631  C-27.2516,343.634 -27.2633,343.629 -27.2397,343.639  C-27.1669,343.67 -26.8071,343.818 -26.242,344.063  C-25.6782,344.308 -24.909,344.651 -24.053,345.066  C-23.1835,345.487 -22.2234,345.982 -21.2524,346.543  C-20.2802,347.104 -19.2972,347.731 -18.3483,348.432  C-16.9132,349.489 -15.5554,350.728 -14.3898,352.125  C-14.2577,352.282 -14.1214,352.452 -13.9924,352.615  C-13.8631,352.779 -13.7365,352.944 -13.6127,353.111  C-13.3642,353.445 -13.1286,353.785 -12.9371,354.073  C-12.7437,354.364 -12.5875,354.611 -12.401,354.918  C-12.3075,355.072 -12.2104,355.237 -12.1096,355.412  C-12.0105,355.585 -11.9115,355.762 -11.8127,355.942  C-11.2474,356.979 -10.7545,358.049 -10.3271,359.093  C-9.89995,360.136 -9.53743,361.157 -9.23921,362.065  C-8.94132,362.972 -8.70806,363.763 -8.54881,364.32  C-8.38948,364.879 -8.30559,365.195 -8.30483,365.196 " /><path d="M-7.7845,365.829 C-7.94967,365.748 -8.10517,365.609 -8.20536,365.434  C-8.2397,365.375 -8.26757,365.313 -8.28896,365.248  C-8.29425,365.231 -8.29954,365.213 -8.30484,365.196 " /><path id= "142" d=" M 50 0 L 50 10 " />
<path id= "143" d=" M 50 20 L 50 30 " />
<path id= "144" d=" M 50 40 L 50 50 " />
<path d="M405.935,562.294 L405.93,562.299 " /><path d="M406.786,561.498 C406.722,561.563 406.61,561.675 406.451,561.834  C405.712,562.572 403.931,564.353 401.297,566.987  C398.718,569.566 395.319,572.965 391.456,576.829  C387.596,580.689 383.271,585.013 378.933,589.352 " /><path d="M392.879,527.29 C394.201,527.301 395.522,527.444 396.816,527.715 " /><path d="M400.87,529.029 C401.454,529.29 402.024,529.579 402.581,529.894  C404.5,530.983 406.237,532.392 407.698,534.046  C409.16,535.699 410.345,537.597 411.188,539.636 " /><path d="M378.933,589.352 C378.556,591.369 378.008,593.414 377.234,595.361  C376.461,597.309 375.458,599.157 374.21,600.816  C372.965,602.477 371.472,603.945 369.8,605.203  C368.133,606.464 366.284,607.512 364.452,608.439  C363.377,608.973 362.31,609.494 361.233,610.019  C360.16,610.546 359.083,611.086 358.069,611.72  C357.054,612.352 356.108,613.087 355.292,613.959  C354.473,614.826 353.789,615.839 353.213,616.877 " /><path d="M350.681,623.389 C350.365,624.392 350.048,625.394 349.686,626.384  C349.355,627.249 348.996,628.158 348.54,629.001  C348.087,629.847 347.537,630.628 346.879,631.305  C346.223,631.984 345.458,632.559 344.629,633.042  C343.801,633.527 342.909,633.921 342.051,634.272  C340.633,634.83 339.185,635.283 337.731,635.728 " /><path d="M324.003,647.407 Q323.629,648.241 323.235,649.059 " /><path d="M321.921,651.516 C321.417,652.345 320.849,653.137 320.188,653.844 " /><path d="M318.576,655.253 Q317.903,655.727 317.164,656.09  Q316.938,656.204 316.709,656.312 " /><path d="M313.048,657.853 C311.529,658.483 310.042,659.187 308.663,660.07  C307.282,660.949 306.008,662.003 304.877,663.202 " /><path d="M350.648,561.067 C348.302,561.506 345.988,562.159 343.798,563.117  C341.611,564.072 339.556,565.349 337.776,566.944  C336.448,568.13 335.276,569.486 334.257,570.944  C333.235,572.402 332.364,573.961 331.561,575.548  C331.05,576.556 330.565,577.576 330.069,578.59  C329.572,579.605 329.065,580.614 328.487,581.586  C328.166,582.126 327.819,582.658 327.437,583.16  C327.055,583.664 326.636,584.135 326.181,584.573  C325.274,585.449 324.227,586.182 323.123,586.787  C321.636,587.602 320.046,588.198 318.44,588.731  C316.833,589.266 315.208,589.731 313.617,590.314  C312.74,590.633 311.848,591.009 311.002,591.462  C310.156,591.916 309.369,592.46 308.693,593.118  C308.014,593.774 307.444,594.544 306.96,595.374  C306.476,596.203 306.071,597.081 305.728,597.949  C305.059,599.634 304.551,601.377 304.015,603.108  C303.685,604.177 303.347,605.243 302.956,606.291  C302.564,607.339 302.121,608.369 301.565,609.341  C301.053,610.238 300.433,611.082 299.69,611.801  C298.95,612.523 298.107,613.138 297.226,613.675 " /><path d="M286.389,619.601 Q286.245,619.728 286.105,619.86 " /><path d="M285.558,620.415 Q285.324,620.67 285.108,620.94 " /><path d="M284.253,622.202 Q284.052,622.55 283.872,622.91 " /><path d="M283.22,624.336 L283.018,624.819 " /><path d="M282.715,625.561 L282.713,625.568  L282.697,625.608 " /><path d="M302.647,665.991 C301.72,667.353 300.928,668.803 300.239,670.299  C299.374,672.181 298.671,674.133 298.076,676.116 " /><path d="M296.442,676.566 L296.446,676.569 " /><path d="M296.869,676.797 Q296.933,676.814 297.001,676.822 " /><path d="M263.434,643.558 C263.43,643.553 263.425,643.548 263.42,643.542  C263.33,643.439 263.249,643.303 263.206,643.144  C263.163,642.985 263.158,642.803 263.203,642.633  C263.249,642.45 263.351,642.283 263.476,642.163  C263.601,642.041 263.749,641.965 263.884,641.924 " /><path d="M378.568,561.431 C380.935,563.804 383.912,565.564 387.131,566.495  C390.347,567.434 393.804,567.542 397.074,566.808  C400.141,566.125 403.04,564.705 405.459,562.7  C410.545,557.551 413.91,554.145 416.185,551.842  C418.454,549.547 419.629,548.358 420.165,547.818  C420.696,547.283 420.585,547.399 420.145,547.846  C419.702,548.298 418.929,549.084 418.034,549.994  C417.136,550.906 416.114,551.944 415.097,552.977  C414.078,554.012 413.063,555.044 412.122,556  C411.179,556.958 410.31,557.841 409.544,558.62  C408.777,559.4 408.114,560.073 407.557,560.641  C406.441,561.777 405.761,562.47 405.391,562.849  C405.02,563.23 404.947,563.308 405.003,563.255  C405.061,563.201 405.243,563.019 405.432,562.831  C405.624,562.64 405.822,562.442 405.98,562.286  C406.139,562.128 406.26,562.008 406.344,561.925  C406.429,561.842 406.48,561.793 406.517,561.757  C406.555,561.721 406.58,561.697 406.608,561.671  C406.636,561.644 406.666,561.615 406.699,561.584  C406.764,561.52 406.826,561.458 406.84,561.444  C406.846,561.438 406.849,561.435 406.848,561.437  C406.847,561.437 406.852,561.432 406.85,561.435 " /><path d="M406.85,561.435 C406.84,561.444 406.701,561.583 406.442,561.842  C406.116,562.168 405.602,562.682 404.901,563.383  C403.886,564.399 402.477,565.807 400.743,567.541  C399.01,569.274 396.952,571.333 394.656,573.628  C392.361,575.923 389.83,578.455 387.169,581.115  C384.509,583.775 381.721,586.564 378.933,589.352 " /><path d="M378.568,561.431 C377.53,560.393 376.607,559.24 375.82,558 " /><path d="M350.648,561.067 C354.285,557.43 357.928,553.788 361.287,550.428  C364.649,547.067 367.728,543.988 370.3,541.415  C372.876,538.84 374.944,536.772 376.356,535.359  C377.772,533.944 378.531,533.185 378.568,533.147  C378.589,533.126 378.589,533.127 378.578,533.138  C378.568,533.147 378.565,533.15 378.601,533.115  C378.635,533.081 378.704,533.013 378.766,532.953  C378.797,532.923 378.824,532.896 378.848,532.873  C378.873,532.85 378.892,532.832 378.923,532.802  C381.02,530.803 383.558,529.27 386.303,528.344  C388.485,527.605 390.796,527.248 393.099,527.293  C395.403,527.337 397.698,527.784 399.85,528.607  C401.845,529.369 403.716,530.453 405.369,531.805  C407.023,533.156 408.458,534.775 409.601,536.579 " /><path d="M378.933,589.352 C378.556,591.369 378.008,593.414 377.234,595.361  C376.461,597.309 375.458,599.157 374.21,600.816  C372.965,602.477 371.472,603.945 369.8,605.203  C368.133,606.464 366.284,607.512 364.452,608.439  C363.377,608.973 362.31,609.494 361.233,610.019  C360.16,610.546 359.083,611.086 358.069,611.72  C357.054,612.352 356.108,613.087 355.292,613.959  C354.473,614.826 353.789,615.839 353.213,616.877  C352.399,618.365 351.801,619.954 351.268,621.56  C350.735,623.168 350.267,624.793 349.686,626.384  C349.355,627.25 348.996,628.158 348.54,629.002  C348.086,629.848 347.537,630.629 346.878,631.306  C346.222,631.984 345.458,632.56 344.628,633.043  C343.8,633.527 342.908,633.921 342.05,634.273  C340.155,635.018 338.204,635.574 336.262,636.181  C334.323,636.789 332.392,637.448 330.62,638.458  C329.799,638.92 329.036,639.488 328.366,640.146  C327.694,640.802 327.112,641.546 326.599,642.336  C326.086,643.126 325.639,643.96 325.222,644.802  C324.804,645.646 324.413,646.496 324.026,647.357  C323.359,648.814 322.694,650.273 321.847,651.637  C321.002,652.996 319.975,654.26 318.661,655.193  C317.312,656.142 315.787,656.738 314.267,657.356  C312.744,657.967 311.224,658.595 309.798,659.393  C308.37,660.185 307.032,661.141 305.828,662.26  C304.624,663.376 303.551,664.648 302.647,665.991 " /><path d="M350.648,561.067 C348.302,561.506 345.987,562.159 343.798,563.117  C341.61,564.072 339.556,565.349 337.776,566.944  C336.448,568.13 335.276,569.486 334.257,570.944  C333.235,572.402 332.364,573.961 331.561,575.548  C331.05,576.556 330.565,577.576 330.069,578.59  C329.572,579.605 329.065,580.614 328.487,581.586  C328.166,582.126 327.819,582.658 327.437,583.16  C327.054,583.664 326.636,584.135 326.181,584.573  C325.273,585.449 324.227,586.182 323.123,586.787  C321.636,587.602 320.047,588.198 318.441,588.731  C316.834,589.266 315.208,589.731 313.617,590.314  C312.741,590.633 311.849,591.009 311.003,591.462  C310.156,591.915 309.369,592.459 308.693,593.118  C308.015,593.774 307.444,594.544 306.96,595.373  C306.476,596.202 306.071,597.08 305.728,597.948  C305.061,599.63 304.553,601.37 304.019,603.097  C303.689,604.163 303.352,605.225 302.963,606.271  C302.574,607.315 302.133,608.343 301.581,609.313  C301.069,610.214 300.449,611.063 299.705,611.786  C298.964,612.512 298.117,613.131 297.233,613.671  C295.327,614.832 293.25,615.668 291.239,616.623  C290.286,617.075 289.345,617.551 288.445,618.103  C287.546,618.653 286.691,619.28 285.939,620.021  C285.505,620.445 285.113,620.905 284.763,621.399  C284.415,621.893 284.116,622.42 283.847,622.961  C283.307,624.046 282.876,625.175 282.418,626.295  C281.977,627.381 281.512,628.47 280.971,629.517  C280.432,630.566 279.818,631.574 279.117,632.518  C278.414,633.464 277.631,634.342 276.768,635.151  C275.909,635.959 274.978,636.694 274.009,637.353 " /><path d="M274.007,637.355 C272.645,638.282 271.194,639.074 269.698,639.762  C267.817,640.627 265.866,641.33 263.884,641.924 " /><path d="M302.647,665.991 C301.72,667.353 300.928,668.803 300.239,670.299  C299.374,672.181 298.671,674.133 298.076,676.116 " /><path d="M274.009,637.353 L274.007,637.355 " /><path d="M279.938,660.062 C283.183,663.308 286.445,666.57 289.154,669.279  C291.232,671.357 292.985,673.11 294.23,674.355  C295.479,675.604 296.22,676.345 296.378,676.502  C296.401,676.526 296.411,676.536 296.41,676.535  C296.411,676.536 296.414,676.539 296.419,676.544  C296.424,676.549 296.429,676.553 296.434,676.558  C296.44,676.564 296.44,676.564 296.447,676.57  C296.549,676.662 296.685,676.746 296.844,676.79  C297.004,676.836 297.187,676.843 297.36,676.799  C297.545,676.754 297.713,676.652 297.835,676.526  C297.958,676.401 298.035,676.252 298.076,676.116 " /><path d="M279.938,660.062 C276.692,656.817 273.43,653.555 270.721,650.846  C268.643,648.768 266.89,647.015 265.645,645.77  C264.396,644.521 263.655,643.78 263.498,643.622  C263.474,643.599 263.464,643.589 263.465,643.59  C263.464,643.589 263.461,643.586 263.456,643.581  C263.451,643.576 263.447,643.571 263.442,643.566  C263.436,643.56 263.436,643.56 263.43,643.553  C263.338,643.451 263.254,643.315 263.209,643.155  C263.164,642.996 263.157,642.813 263.201,642.64  C263.246,642.455 263.348,642.287 263.474,642.165  C263.599,642.042 263.748,641.965 263.884,641.924 " /><path id= "176" d=" M 172.422 297.578 L 228.991 354.146 " />
<path id= "177" d=" M 225.46 357.677 L 282.025 414.242 " />
<path id= "178" d=" M 278.491 417.779 L 316.487 455.775 " />
<path id= "179" d=" M 341.225 480.513 L 388.459 527.747 " />
<path d="M130,280 C132.662,280.037 135.323,280.222 137.963,280.573  C143.105,281.253 148.166,282.577 152.959,284.565  C157.754,286.548 162.269,289.192 166.386,292.347  C168.5,293.966 170.513,295.717 172.422,297.574 " /><path d="M4.02818,7.88491 C4.00469,7.97857 3.97942,8.08331 3.90102,8.23108  C3.84959,8.32631 3.77211,8.4315 3.67246,8.51888  C3.59437,8.58805 3.5062,8.64447 3.40794,8.68813  C3.2779,8.74514 3.14135,8.77375 2.99829,8.77398  C2.82978,8.77397 2.66152,8.73033 2.5155,8.65054  C2.51033,8.64766 2.50517,8.64479 2.5,8.64192 " /><path d="M6.02818,7.88491 C6.00469,7.97857 5.97942,8.08331 5.90102,8.23108  C5.84958,8.32631 5.77211,8.4315 5.67246,8.51887  C5.59437,8.58805 5.5062,8.64447 5.40794,8.68813  C5.2779,8.74514 5.14135,8.77375 4.99829,8.77398  C4.82978,8.77397 4.66152,8.73033 4.5155,8.65054  C4.41137,8.59302 4.32154,8.52233 4.24602,8.43846  C4.17489,8.36078 4.12003,8.27411 4.08211,8.19896  C4.04546,8.12331 4.01907,8.05699 4.00292,8 " /><path d="M8.02818,7.88491 C8.00468,7.97857 7.97942,8.08331 7.90102,8.23108  C7.84958,8.32631 7.77211,8.4315 7.67246,8.51887  C7.59437,8.58805 7.5062,8.64447 7.40794,8.68813  C7.2779,8.74514 7.14135,8.77375 6.99829,8.77398  C6.82978,8.77397 6.66152,8.73033 6.5155,8.65054  C6.41137,8.59302 6.32154,8.52233 6.24602,8.43847  C6.17489,8.36078 6.12003,8.27411 6.08211,8.19896  C6.04546,8.12331 6.01907,8.05699 6.00292,8 " /><path d="M10.0282,7.88491 C10.0047,7.97857 9.97942,8.08331 9.90101,8.23108  C9.84958,8.32631 9.77211,8.4315 9.67246,8.51887  C9.59437,8.58805 9.5062,8.64447 9.40794,8.68813  C9.2779,8.74514 9.14135,8.77375 8.99829,8.77398  C8.82978,8.77397 8.66152,8.73033 8.5155,8.65054  C8.41137,8.59302 8.32155,8.52233 8.24602,8.43847  C8.17489,8.36078 8.12003,8.27412 8.08211,8.19896  C8.04546,8.12331 8.01907,8.05699 8.00292,8 " /><path d="M12.0282,7.88491 C12.0047,7.97857 11.9794,8.08331 11.901,8.23108  C11.8496,8.32631 11.7721,8.4315 11.6725,8.51887  C11.5944,8.58805 11.5062,8.64447 11.4079,8.68813  C11.2779,8.74514 11.1413,8.77375 10.9983,8.77398  C10.8298,8.77397 10.6615,8.73033 10.5155,8.65054  C10.4114,8.59302 10.3215,8.52233 10.246,8.43847  C10.1749,8.36079 10.12,8.27412 10.0821,8.19896  C10.0455,8.12331 10.0191,8.05699 10.0029,8 " /><path d="M14.0282,7.88491 C14.0047,7.97857 13.9794,8.08331 13.901,8.23108  C13.8496,8.32631 13.7721,8.4315 13.6725,8.51887  C13.5944,8.58805 13.5062,8.64446 13.4079,8.68813  C13.2779,8.74514 13.1413,8.77375 12.9983,8.77398  C12.8298,8.77397 12.6615,8.73033 12.5155,8.65054  C12.4114,8.59302 12.3215,8.52233 12.246,8.43847  C12.1749,8.36079 12.12,8.27412 12.0821,8.19896  C12.0455,8.12331 12.0191,8.05699 12.0029,8 " /><path d="M16.0282,7.88491 C16.0047,7.97857 15.9794,8.08331 15.901,8.23108  C15.8496,8.32631 15.7721,8.4315 15.6725,8.51887  C15.5944,8.58805 15.5062,8.64446 15.4079,8.68813  C15.2779,8.74514 15.1413,8.77375 14.9983,8.77398  C14.8298,8.77397 14.6615,8.73034 14.5155,8.65054  C14.4114,8.59302 14.3215,8.52233 14.246,8.43847  C14.1749,8.36079 14.12,8.27412 14.0821,8.19897  C14.0455,8.12331 14.0191,8.05699 14.0029,8 " /><path d="M18.0282,7.88491 C18.0047,7.97857 17.9794,8.08331 17.901,8.23108  C17.8496,8.32631 17.7721,8.4315 17.6725,8.51887  C17.5944,8.58805 17.5062,8.64446 17.4079,8.68813  C17.2779,8.74514 17.1413,8.77375 16.9983,8.77398  C16.8298,8.77397 16.6615,8.73034 16.5155,8.65054  C16.4114,8.59302 16.3215,8.52233 16.246,8.43847  C16.1749,8.36079 16.12,8.27412 16.0821,8.19897  C16.0455,8.12331 16.0191,8.05699 16.0029,8 " /><path d="M20.0282,7.88485 C20.0047,7.97853 19.9794,8.08327 19.901,8.23105  C19.8496,8.32628 19.7721,8.43148 19.6725,8.51886  C19.5944,8.58803 19.5062,8.64445 19.408,8.68812  C19.2779,8.74513 19.1414,8.77375 18.9983,8.77398  C18.8298,8.77397 18.6615,8.73034 18.5155,8.65055  C18.4114,8.59303 18.3216,8.52234 18.246,8.43848  C18.1749,8.3608 18.12,8.27412 18.0821,8.19897  C18.0455,8.12332 18.0191,8.05699 18.0029,8 " /><path d="M20.0794,7.66735 L20.0282,7.88485 " /></g>
<g   fill="none"
   stroke="rgb(0, 0, 0)"
   stroke-linecap="butt"
   stroke-linejoin="miter"
   stroke-width="1.166667"
   transform="scale(1,-1)"
  >
<path id= "1" d=" M 131 200 L 159 200 " />
<path d="M130 201 A1 1 0 0 1 131 200" /><path id= "3" d=" M 160 201 L 160 239 " />
<path d="M159 200 A1 1 0 0 1 160 201" /><path id= "5" d=" M 131 240 L 159 240 " />
<path d="M130 239 A1 1 0 0 0 131 240" /><path d="M159 240 A1 1 0 0 0 160 239" /><path id= "8" d=" M -0.997092 427.292 L -5.10703e-15 429.43 " />
<path id= "9" d=" M -0.997092 477.292 L -5.10703e-15 479.43 " />
<path id= "10" d=" M -0.997092 527.292 L 3.33067e-16 529.43 " />
<path id= "11" d=" M 0 425 L 0 429.43 " />
<path id= "12" d=" M 0 424.62 L 0 425 " />
<path d="M8.78186e-14 424.62 A2 2 0 0 0 -0.997092 427.292" /><path id= "14" d=" M 0 429.43 L 0 445 " />
<path id= "15" d=" M 0 475 L 0 479.43 " />
<path id= "16" d=" M 0 474.62 L 0 475 " />
<path d="M8.78186e-14 474.62 A2 2 0 0 0 -0.997092 477.292" /><path id= "18" d=" M 0 479.43 L 0 495 " />
<path id= "19" d=" M 0 525 L 0 529.43 " />
<path id= "20" d=" M 0 524.62 L 0 525 " />
<path d="M9.28146e-14 524.62 A2 2 0 0 0 -0.997092 527.292" /><path id= "22" d=" M 0 529.43 L 0 545 " />
<path id= "23" d=" M 0 380 L 0 424.62 " />
<path d="M5 446.34 A10 10 0 1 0 -2.44929e-15 465" /><path d="M5 496.34 A10 10 0 1 0 -2.44929e-15 515" /><path d="M5 546.34 A10 10 0 1 0 -2.44929e-15 565" /><path d="M0,465 Q-0.000493509,465.001 0.201581,464.998 " /><path id= "28" d=" M 0 465 L 0 474.62 " />
<path d="M0,515 Q-0.000493509,515.001 0.201581,514.998 " /><path id= "30" d=" M 0 515 L 0 524.62 " />
<path d="M0 380 A5 5 0 0 1 5 375" /><path d="M5 463.66 A10 10 0 0 0 5 446.34" /><path d="M5 513.66 A10 10 0 0 0 5 496.34" /><path d="M5 563.66 A10 10 0 0 0 5 546.34" /><path id= "35" d=" M 5 446.34 L 5 455 " />
<path id= "36" d=" M 5 455 L 5 463.66 " />
<path d="M0 465 A10 10 0 0 0 5 463.66" /><path d="M5 455 A5 5 0 1 0 -1.22465e-15 460" /><path d="M0 460 A5 5 0 0 0 5 455" /><path id= "40" d=" M -31.9397 375.342 L -5.88836 446.917 " />
<path id= "41" d=" M -31 375 L -5.02845 446.356 " />
<path id= "42" d=" M -31 375 L -31.9397 375.342 " />
<path id= "43" d=" M 5 496.34 L 5 505 " />
<path id= "44" d=" M 5 505 L 5 513.66 " />
<path d="M0 515 A10 10 0 0 0 5 513.66" /><path d="M5 505 A5 5 0 1 0 -1.22465e-15 510" /><path d="M0 510 A5 5 0 0 0 5 505" /><path id= "48" d=" M -31.9397 425.342 L -5.88836 496.917 " />
<path id= "49" d=" M -31 425 L -5.02845 496.356 " />
<path id= "50" d=" M -31 425 L -31.9397 425.342 " />
<path id= "51" d=" M 5 546.34 L 5 555 " />
<path id= "52" d=" M 5 555 L 5 563.66 " />
<path d="M0 565 A10 10 0 0 0 5 563.66" /><path d="M5 555 A5 5 0 1 0 -1.22465e-15 560" /><path d="M0 560 A5 5 0 0 0 5 555" /><path id= "56" d=" M 0 565 L 0 598.484 " />
<path d="M0,565 Q-0.000493509,565.001 0.201581,564.998 " /><path id= "58" d=" M -31.9397 475.342 L -5.88836 546.917 " />
<path id= "59" d=" M -31 475 L -5.02845 546.356 " />
<path id= "60" d=" M -31 475 L -31.9397 475.342 " />
<path id= "61" d=" M 5.27864 375 L 5 375 " />
<path id= "62" d=" M 130.369 570.068 L 6.2941 603.314 " />
<path id= "63" d=" M 134.075 421.146 L 134.075 565.238 " />
<path id= "64" d=" M 97.2291 382.229 L 132.61 417.61 " />
<path d="M39.4928 413.595 A40 40 0 0 0 88.8387 384.569" /><path d="M5,455 C4.99917,453.879 4.62498,452.735 3.82645,451.782  C3.46111,451.344 2.99618,450.957 2.51727,450.68  C2.03041,450.396 1.55456,450.232 1.18205,450.142  C0.779964,450.045 0.484432,450.021 0.289742,450.008  C0.0958846,450.001 -0.000696145,449.998 -4.26326e-14,450 " /><path d="M1.38778e-17,460 C0.000231393,459.999 0.129728,460.004 0.397206,459.984 " /><path d="M-2.13302e-14,460 C0.000230686,459.999 0.129728,460.004 0.397209,459.984 " /><path id= "69" d=" M 97.2291 382.229 L 132.61 417.61 " />
<path d="M39.4928 413.595 A40 40 0 0 0 88.8387 384.569" /><path d="M0.397124,500.016 C0.129695,499.996 0.000226803,500.001 -4.26326e-14,500 " /><path d="M0,510 C0.000231393,509.999 0.129728,510.004 0.397206,509.984 " /><path d="M-2.13024e-14,510 C0.000230686,509.999 0.129728,510.004 0.397209,509.984 " /><path d="M0.397124,550.016 C0.129695,549.996 0.000226803,550.001 -4.26326e-14,550 " /><path d="M1.38778e-17,560 C0.000231393,559.999 0.129728,560.004 0.397206,559.984 " /><path d="M-2.13024e-14,560 C0.000230686,559.999 0.129728,560.004 0.397209,559.984 " /><path d="M8.88318 376.535 A5 5 0 0 0 5.27864 375" /><path d="M6.2941 603.314 A5 5 0 0 1 8.88178e-16 598.484" /><path d="M134.075 565.238 A5 5 0 0 1 130.369 570.068" /><path d="M15.5187,600.842 Q15.5246,600.84 15.5305,600.839  Q15.5482,600.834 15.5659,600.829  Q15.5951,600.821 15.6244,600.813  Q15.6648,600.803 15.7052,600.792  Q15.7563,600.778 15.8074,600.764  Q15.8685,600.748 15.9297,600.732  Q16,600.713 16.0704,600.694  Q16.1492,600.673 16.228,600.652  Q16.3141,600.629 16.4002,600.606  Q16.4927,600.581 16.5851,600.556  Q16.6827,600.53 16.7803,600.504  Q16.8818,600.477 16.9833,600.449  Q17.1908,600.394 17.4025,600.337 " /><path d="M106.268,576.526 C106.479,576.469 106.689,576.413 106.89,576.359  C106.955,576.342 107.02,576.324 107.085,576.307  C107.147,576.29 107.208,576.274 107.27,576.257  C107.327,576.242 107.385,576.226 107.442,576.211  C107.495,576.197 107.547,576.183 107.6,576.169  C107.647,576.156 107.694,576.144 107.741,576.131  C107.781,576.12 107.822,576.109 107.863,576.098  C107.897,576.089 107.931,576.08 107.965,576.071  C107.992,576.064 108.019,576.056 108.046,576.049  C108.065,576.044 108.085,576.039 108.104,576.034  C108.116,576.03 108.128,576.027 108.14,576.024  C108.144,576.023 108.148,576.022 108.152,576.021 " /><path d="M132.61 417.61 A5 5 0 0 1 134.075 421.146" /><path d="M88.8387 384.569 A5 5 0 0 1 97.2291 382.229" /><path id= "84" d=" M 0 450 L 0 460 " />
<path id= "85" d=" M 0 500 L 0 510 " />
<path id= "86" d=" M 0 550 L 0 560 " />
<path d="M15.5187 600.842 A4 4 0 0 0 14.4427 604.746" /><path d="M15.5187 600.842 A4 4 0 0 0 14.4427 604.746" /><path d="M108.152 576.021 A4 4 0 0 1 111.035 578.864" /><path id= "90" d=" M 14.4427 604.746 L 14.9603 606.677 " />
<path id= "91" d=" M 111.035 578.864 L 111.553 580.796 " />
<path d="M108.724 585.695 A4 4 0 0 0 111.553 580.796" /><path d="M19.8593 609.506 A4 4 0 0 1 14.9603 606.677" /><path d="M14.9603 606.677 A4 4 0 0 0 19.8593 609.506" /><path id= "95" d=" M 108.724 585.695 L 19.8593 609.506 " />
<path d="M111.553 580.796 A4 4 0 0 1 108.724 585.695" /><path d="M56.4705 629.148 A5 5 0 0 1 62.5942 632.684" /><path d="M62.5942 632.684 A5 5 0 0 1 52.9349 635.272" /><path d="M52.9349 635.272 A5 5 0 0 1 56.4705 629.148" /><path d="M5 455 A5 5 0 0 0 4.17424 452.248" /><circle cx ="322" cy ="475" r ="15" /><circle cx ="322" cy ="475" r ="20" /><path id= "103" d=" M 88.8412 200 L 129 200 " />
<path id= "104" d=" M 130 201 L 130 359 " />
<path d="M129 200 A1 1 0 0 1 130 201" /><path id= "106" d=" M 88.8412 360 L 129 360 " />
<path d="M129 360 A1 1 0 0 0 130 359" /><path id= "108" d=" M 155.276 199.447 L 159.276 191.447 " />
<path d="M155.276 199.447 A1 1 0 0 1 154.382 200" /><path d="M159.276 191.447 A1 1 0 0 0 158.382 190" /><path d="M158.382,190 L158.172,190  L157.552,190  L156.553,190  L155.226,190  L153.637,190  L151.865,190  L150,190  L148.135,190  L146.363,190  L144.774,190  L143.447,190  L142.448,190  L141.828,190  L141.618,190 " /><path d="M141.618,190 L141.828,190  L142.448,190  L143.447,190  L144.774,190  L146.363,190  L148.135,190  L150,190  L151.865,190  L153.637,190  L155.226,190  L156.553,190  L157.552,190  L158.172,190  L158.382,190 " /><path id= "113" d=" M 8.84121 276.986 L 8.84121 283.014 " />
<path id= "114" d=" M 8.84121 175.715 L 8.84121 183.014 " />
<path id= "115" d=" M 88.8412 176.937 L 88.8412 374.703 " />
<path d="M86.7048 174.942 A2 2 0 0 1 86.8412 174.937" /><path d="M88.8412 374.703 A40 40 0 0 1 8.91371 377.11" /><path d="M60.0185 150.962 A25 25 0 0 0 86.7048 174.942" /><path d="M8.84121,283.014 C8.84121,283.562 8.84121,284.105 8.84121,284.477  C8.84121,284.82 8.84121,285.017 8.84121,285.015 " /><path d="M10.8714 374.992 A45 45 0 1 0 8.84121 285.015" /><path id= "121" d=" M 30.9808 150 L 59.0192 150 " />
<path d="M8.84121,276.986 C8.84121,276.438 8.84121,275.895 8.84121,275.523  C8.84121,275.18 8.84121,274.984 8.84121,274.985 " /><path d="M8.84121,175.715 C8.84121,175.438 8.84121,175.163 8.84121,174.974  C8.84121,174.801 8.84121,174.702 8.84121,174.703 " /><path d="M8.84121 174.703 A25 25 0 0 0 29.9815 150.962" /><path d="M8.84121 274.985 A45 45 0 0 0 10 275" /><path d="M8.84121,183.014 C8.84121,183.562 8.84121,184.105 8.84121,184.477  C8.84121,184.82 8.84121,185.017 8.84121,185.015 " /><path d="M10 275 A45 45 0 1 0 8.84121 185.015" /><path d="M86.8412,174.937 C86.9717,174.938 87.104,174.947 87.2827,174.986  C87.4586,175.026 87.6887,175.103 87.9306,175.26  C88.1713,175.415 88.4113,175.651 88.5782,175.946  C88.7468,176.239 88.842,176.588 88.8412,176.937 " /><path d="M8.90649 376.987 A40 40 0 0 0 8.91379 377.112" /><path d="M8.84221 374.985 A40 40 0 0 1 8.84121 374.703" /><path d="M10.8714,374.992 C10.5695,374.997 10.2689,375.072 10,375.21 " /><path d="M8.91009,376.987 L8.91371,377.11 " /><path d="M60.0185 150.962 A1 1 0 0 0 59.0192 150" /><path d="M30.9808 150 A1 1 0 0 0 29.9815 150.962" /><path d="M88.8412 374.703 A40 40 0 0 1 39.4928 413.595" /><path id= "136" d=" M 8.84121 370 L 30.6155 370 " />
<path id= "137" d=" M 8.84121 370 L 8.84121 374.703 " />
<path d="M8.90649,376.987 C8.8914,376.724 8.87924,376.463 8.87046,376.232  C8.85863,375.905 8.8512,375.644 8.84816,375.448  C8.84251,375.133 8.84243,374.987 8.84221,374.985 " /><path d="M8.90649 376.987 A47 47 0 0 0 10 377" /><path d="M10,377 C10,376.775 10,376.553 10,376.339  C10,376.27 10,376.201 10,376.132  C10,376.067 10,376.001 10,375.936  C10,375.875 10,375.814 10,375.753  C10,375.697 10,375.642 10,375.586  C10,375.536 10,375.486 10,375.436  C10,375.393 10,375.35 10,375.307  C10,375.27 10,375.234 10,375.198  C10,375.169 10,375.141 10,375.112  C10,375.092 10,375.071 10,375.05  C10,375.038 10,375.025 10,375.013  C10,375.008 10,375.004 10,375 " /><path d="M8.84221 374.985 A45 45 0 0 0 10 375" /><path id= "142" d=" M -5 170 L 20 170 " />
<path id= "143" d=" M -10 175 L -10 196.887 " />
<path id= "144" d=" M -10 259.919 L -10 296.887 " />
<path id= "145" d=" M -10 325.528 L -10 334.472 " />
<path id= "146" d=" M -10 359.919 L -10 365 " />
<path d="M-10 175 A5 5 0 0 1 -5 170" /><path id= "148" d=" M -5 370 L 8.84121 370 " />
<path d="M-10 365 A5 5 0 0 0 -5 370" /><path d="M-10 365 A5 5 0 0 0 -5 370" /><path d="M322 495 A20 20 0 0 0 326.835 494.407" /><path d="M341.225 480.513 A20 20 0 0 0 316.487 455.775" /><path d="M302.593 470.165 A20 20 0 0 0 322 495" /><path id= "154" d=" M -10 225.528 L -10 234.472 " />
<circle cx ="10" cy ="230" r ="15" /><circle cx ="10" cy ="230" r ="10" /><circle cx ="10" cy ="330" r ="15" /><circle cx ="10" cy ="330" r ="10" /><path d="M10,263.889 C10,262.662 10,261.332 10,260 " /><path d="M10,363.889 C10,362.662 10,361.332 10,360 " /><path id= "161" d=" M 30 0 L 30 10 " />
<path id= "162" d=" M 30 20 L 30 30 " />
<path id= "163" d=" M 30 40 L 30 50 " />
<path d="M388.459 527.747 A20 20 -22.5 0 1 406.781 561.503" />
<path d="M406.393 561.877 A20 20 -22.5 0 1 405.934 562.294" />
<path d="M394.572 527.376 A20 20 -22.5 0 1 411.188 539.636" />
<path d="M302.647,665.991 L302.647,665.991 " /><path d="M378.568 561.431 A20 20 147.62 0 1 375.82 558" />
<path d="M375.82 558 A20 20 147.62 1 1 409.601 536.579" />
<path d="M409.601 536.579 A20 20 147.62 0 1 378.568 561.431" />
<path d="M350.648,561.067 C350.644,561.064 351.411,561.83 352.832,563.252  C353.449,563.868 354.186,564.605 355.021,565.44  C355.601,566.02 356.223,566.642 356.888,567.307  C359.227,569.647 362.05,572.47 364.875,575.294  C368.118,578.538 371.342,581.761 373.83,584.249  C374.81,585.229 375.678,586.098 376.405,586.824  C377.42,587.839 378.155,588.574 378.56,588.979  C378.808,589.227 378.932,589.351 378.933,589.352 " /><path id= "172" d=" M 378.933 589.352 L 350.648 561.067 " />
<path d="M302.647,665.991 C302.648,665.992 302.274,665.618 301.555,664.899  C300.838,664.182 299.776,663.12 298.45,661.793  C297.125,660.469 295.537,658.881 293.805,657.149  C292.074,655.418 290.202,653.546 288.328,651.672  C286.546,649.89 284.765,648.109 283.106,646.45  C281.447,644.791 279.911,643.255 278.603,641.947  C277.295,640.639 276.216,639.559 275.44,638.783  C274.662,638.006 274.188,637.532 274.052,637.396 " /><path d="M274.052,637.396 Q274.04,637.384 274.032,637.375 " /><path d="M274.019,637.363 Q274.024,637.367 274.032,637.375 " /><path d="M274.019,637.363 Q274.009,637.353 274.009,637.353 " /><path d="M275.392,638.736 C275.386,638.731 275.359,638.705 275.338,638.685  C275.318,638.665 275.298,638.645 275.278,638.626  C275.203,638.552 275.132,638.481 275.063,638.414  C274.945,638.296 274.836,638.189 274.738,638.09  C274.249,637.604 274.005,637.359 274.007,637.355 " /><path d="M274.007,637.355 Q274.008,637.354 274.019,637.363 " /><path d="M274.032,637.375 L274.019,637.363 " /><path d="M274.032,637.375 Q274.039,637.385 274.052,637.396 " /><path d="M279.938,660.062 C282.063,662.188 284.206,664.331 286.196,666.321  C288.186,668.311 290.021,670.146 291.553,671.678  C293.087,673.212 294.316,674.441 295.146,675.271  C295.979,676.103 296.411,676.535 296.411,676.536  C296.414,676.538 295.985,676.11 295.158,675.283  C294.334,674.459 293.112,673.237 291.586,671.711  C290.062,670.187 288.235,668.359 286.242,666.366  C284.25,664.374 282.094,662.219 279.938,660.062  C277.781,657.906 275.625,655.75 273.633,653.758  C271.641,651.765 269.813,649.938 268.289,648.414  C266.763,646.888 265.541,645.666 264.717,644.842  C263.89,644.015 263.462,643.586 263.464,643.589  C263.465,643.589 263.897,644.021 264.729,644.854  C265.559,645.684 266.788,646.913 268.322,648.447  C269.854,649.979 271.689,651.814 273.679,653.804  C275.669,655.794 277.812,657.937 279.938,660.062 " /><path d="M200.706,382.431 L201.061,382.076  L202.107,381.03  L203.792,379.345  L206.031,377.106  L208.712,374.425  L211.702,371.435  L214.849,368.289  L217.995,365.142  L220.985,362.152  L223.666,359.471  L225.905,357.232  L227.59,355.547  L228.636,354.501  L228.991,354.146 " /><path id= "183" d=" M 144.138 325.862 L 200.706 382.431 " />
<path d="M144.138,325.862 L144.492,325.508  L145.538,324.462  L147.223,322.777  L149.463,320.537  L152.144,317.856  L155.133,314.867  L158.28,311.72  L161.427,308.573  L164.416,305.584  L167.097,302.903  L169.337,300.663  L171.022,298.978  L172.068,297.932  L172.422,297.578 " /><path d="M260.812,435.455 L261.078,435.189  L261.862,434.405  L263.126,433.141  L264.805,431.462  L266.817,429.451  L269.058,427.209  L271.419,424.849  L273.779,422.488  L276.021,420.247  L278.032,418.235  L279.711,416.556  L280.975,415.292  L281.759,414.508  L282.025,414.242 " /><path id= "186" d=" M 204.247 378.89 L 260.812 435.455 " />
<path id= "187" d=" M 264.349 431.921 L 302.593 470.165 " />
<path id= "188" d=" M 326.835 494.407 L 372.072 539.644 " />
<path d="M264.349,431.921 L264.526,431.744  L265.049,431.221  L265.892,430.378  L267.011,429.259  L268.352,427.918  L269.847,426.423  L271.42,424.85  L272.993,423.277  L274.488,421.782  L275.829,420.441  L276.948,419.322  L277.791,418.479  L278.314,417.956  L278.491,417.779 " /><path d="M130,320 Q138.241,320.115 144.138,325.858 " /><path d="M144.138,325.858 C144.137,325.859 144.505,325.491 145.214,324.781  C145.922,324.074 146.97,323.026 148.28,321.716  C149.588,320.407 151.157,318.838 152.868,317.128  C154.578,315.418 156.429,313.567 158.28,311.716  C160.131,309.864 161.982,308.014 163.692,306.304  C165.403,304.593 166.972,303.024 168.28,301.716  C169.59,300.406 170.638,299.358 171.346,298.65  C172.055,297.941 172.423,297.573 172.422,297.574 " /><path d="M130,320 Q138.241,320.115 144.138,325.858 " /><path d="M4.43e-15 -165 A60 60 0 0 1 60 -105" /><path d="M59.1608 -115 A60 60 0 0 0 5.19965e-14 -165" /><path d="M59.1608 -115 A60 60 0 0 0 4.08965e-14 -165" /><path d="M59.1608 -115 A60 60 0 0 0 2.97965e-14 -165" /><path d="M59.1608 -115 A60 60 0 0 0 1.86865e-14 -165" /><path d="M59.1608 -115 A60 60 0 0 0 7.58647e-15 -165" /><path d="M59.1608 -115 A60 60 0 0 0 -3.51353e-15 -165" /><path d="M59.1608 -115 A60 60 0 0 0 -1.46135e-14 -165" /><path d="M59.1608 -115 A60 60 0 0 0 -2.57235e-14 -165" /><path d="M59.1608 -115 A60 60 0 0 0 -3.68235e-14 -165" /><path d="M59.1608 -115 A60 60 0 0 0 -4.79235e-14 -165" /><path d="M4.43e-15 -175 A70 70 0 0 1 70 -105" /><path id= "205" d=" M 3.4e-14 -175 L -8 -175 " />
<path id= "206" d=" M -8 -165 L -8 -175 " />
<path id= "207" d=" M 3.401e-14 -165 L -8 -165 " />
<path id= "208" d=" M 59.1608 90 L 59.1608 80 " />
<path id= "209" d=" M 59.1608 70 L 59.1608 60 " />
<path id= "210" d=" M 59.1608 50 L 59.1608 40 " />
<path id= "211" d=" M 59.1608 30 L 59.1608 20 " />
<path id= "212" d=" M 59.1608 10 L 59.1608 0 " />
<path id= "213" d=" M 59.1608 -10 L 59.1608 -20 " />
<path id= "214" d=" M 59.1608 -30 L 59.1608 -40 " />
<path id= "215" d=" M 59.1608 -50 L 59.1608 -60 " />
<path id= "216" d=" M 59.1608 -70 L 59.1608 -80 " />
<path id= "217" d=" M 59.1608 -90 L 59.1608 -100 " />
<path d="M-5.15143e-14,-105 L7.83751,-105  L15.5765,-105  L23.1195,-105  L30.3719,-105  L37.2422,-105  L43.6443,-105  L49.4975,-105  L54.7282,-105  L59.2707,-105  L63.0678,-105  L66.0718,-105  L68.245,-105  L69.5599,-105  L70,-105 " /><path id= "219" d=" M -2.2e-14 -105 L -8 -105 " />
<path d="M4.44089e-15,95 L7.83751,95  L15.5765,95  L23.1195,95  L30.3719,95  L37.2422,95  L43.6443,95  L49.4975,95  L54.7282,95  L59.2707,95  L63.0678,95  L66.0718,95  L68.245,95  L69.5599,95  L70,95 " /><path id= "221" d=" M 3.4e-14 95 L -8 95 " />
<path d="M69.282,90 L67.9044,90  L65.8214,90  L63.0547,90  L59.6331,90  L55.5921,90  L50.9737,90  L45.8258,90  L40.2019,90  L34.1604,90  L27.7641,90  L21.0794,90  L14.1758,90  L7.12488,90  L8.88178e-16,90 " /><path id= "223" d=" M 1.42109e-14 90 L -8 90 " />
<path id= "224" d=" M 69.282 90 L 69.282 80 " />
<path d="M69.282,80 L67.9044,80  L65.8214,80  L63.0547,80  L59.6331,80  L55.5921,80  L50.9737,80  L45.8258,80  L40.2019,80  L34.1604,80  L27.7641,80  L21.0794,80  L14.1758,80  L7.12488,80  L-4.44089e-15,80 " /><path id= "226" d=" M 8.88178e-15 80 L -8 80 " />
<path d="M69.282,70 L67.9044,70  L65.8214,70  L63.0547,70  L59.6331,70  L55.5921,70  L50.9737,70  L45.8258,70  L40.2019,70  L34.1604,70  L27.7641,70  L21.0794,70  L14.1758,70  L7.12488,70  L-1.02141e-14,70 " /><path id= "228" d=" M 3.55271e-15 70 L -8 70 " />
<path id= "229" d=" M 69.282 70 L 69.282 60 " />
<path d="M69.282,60 L67.9044,60  L65.8214,60  L63.0547,60  L59.6331,60  L55.5921,60  L50.9737,60  L45.8258,60  L40.2019,60  L34.1604,60  L27.7641,60  L21.0794,60  L14.1758,60  L7.12488,60  L-1.55431e-14,60 " /><path id= "231" d=" M -1.77636e-15 60 L -8 60 " />
<path d="M69.282,50 L67.9044,50  L65.8214,50  L63.0547,50  L59.6331,50  L55.5921,50  L50.9737,50  L45.8258,50  L40.2019,50  L34.1604,50  L27.7641,50  L21.0794,50  L14.1758,50  L7.12488,50  L-2.13163e-14,50 " /><path id= "233" d=" M -8.88178e-15 50 L -8 50 " />
<path id= "234" d=" M 69.282 50 L 69.282 40 " />
<path d="M69.282,40 L67.9044,40  L65.8214,40  L63.0547,40  L59.6331,40  L55.5921,40  L50.9737,40  L45.8258,40  L40.2019,40  L34.1604,40  L27.7641,40  L21.0794,40  L14.1758,40  L7.12488,40  L-2.66454e-14,40 " /><path id= "236" d=" M -1.42109e-14 40 L -8 40 " />
<path d="M69.282,30 L67.9044,30  L65.8214,30  L63.0547,30  L59.6331,30  L55.5921,30  L50.9737,30  L45.8258,30  L40.2019,30  L34.1604,30  L27.7641,30  L21.0794,30  L14.1758,30  L7.12488,30  L-3.24185e-14,30 " /><path id= "238" d=" M -1.95399e-14 30 L -8 30 " />
<path id= "239" d=" M 69.282 30 L 69.282 20 " />
<path d="M69.282,20 L67.9044,20  L65.8214,20  L63.0547,20  L59.6331,20  L55.5921,20  L50.9737,20  L45.8258,20  L40.2019,20  L34.1604,20  L27.7641,20  L21.0794,20  L14.1758,20  L7.12488,20  L-3.77476e-14,20 " /><path id= "241" d=" M -2.4869e-14 20 L -8 20 " />
<path d="M69.282,10 L67.9044,10  L65.8214,10  L63.0547,10  L59.6331,10  L55.5921,10  L50.9737,10  L45.8258,10  L40.2019,10  L34.1604,10  L27.7641,10  L21.0794,10  L14.1758,10  L7.12488,10  L-4.35207e-14,10 " /><path id= "243" d=" M -3.01981e-14 10 L -8 10 " />
<path id= "244" d=" M 69.282 10 L 69.282 0 " />
<path d="M69.282,-4.26326e-14 L67.9044,-2.84217e-14  L65.8214,-2.84217e-14  L63.0547,-2.84217e-14  L59.6331,-2.84217e-14  L55.5921,-2.84217e-14  L50.9737,-1.42109e-14  L45.8258,-1.42109e-14  L40.2019,-1.42109e-14  L34.1604,0  L27.7641,0  L21.0794,0  L14.1758,1.42109e-14  L7.12488,1.42109e-14  L-4.88498e-14,1.42109e-14 " /><path id= "246" d=" M -3.55271e-14 0 L -8 0 " />
<path d="M69.282,-10 L67.9044,-10  L65.8214,-10  L63.0547,-10  L59.6331,-10  L55.5921,-10  L50.9737,-10  L45.8258,-10  L40.2019,-10  L34.1604,-10  L27.7641,-10  L21.0794,-10  L14.1758,-10  L7.12488,-10  L-5.4623e-14,-10 " /><path id= "248" d=" M -4.08562e-14 -10 L -8 -10 " />
<path id= "249" d=" M 69.282 -10 L 69.282 -20 " />
<path d="M69.282,-20 L67.9044,-20  L65.8214,-20  L63.0547,-20  L59.6331,-20  L55.5921,-20  L50.9737,-20  L45.8258,-20  L40.2019,-20  L34.1604,-20  L27.7641,-20  L21.0794,-20  L14.1758,-20  L7.12488,-20  L-5.9952e-14,-20 " /><path id= "251" d=" M -4.61853e-14 -20 L -8 -20 " />
<path d="M69.282,-30 L67.9044,-30  L65.8214,-30  L63.0547,-30  L59.6331,-30  L55.5921,-30  L50.9737,-30  L45.8258,-30  L40.2019,-30  L34.1604,-30  L27.7641,-30  L21.0794,-30  L14.1758,-30  L7.12488,-30  L-6.57252e-14,-30 " /><path id= "253" d=" M -5.32907e-14 -30 L -8 -30 " />
<path id= "254" d=" M 69.282 -30 L 69.282 -40 " />
<path d="M69.282,-40 L67.9044,-40  L65.8214,-40  L63.0547,-40  L59.6331,-40  L55.5921,-40  L50.9737,-40  L45.8258,-40  L40.2019,-40  L34.1604,-40  L27.7641,-40  L21.0794,-40  L14.1758,-40  L7.12488,-40  L-7.10543e-14,-40 " /><path id= "256" d=" M -5.86198e-14 -40 L -8 -40 " />
<path d="M69.282,-50 L67.9044,-50  L65.8214,-50  L63.0547,-50  L59.6331,-50  L55.5921,-50  L50.9737,-50  L45.8258,-50  L40.2019,-50  L34.1604,-50  L27.7641,-50  L21.0794,-50  L14.1758,-50  L7.12488,-50  L-7.63833e-14,-50 " /><path id= "258" d=" M -6.39488e-14 -50 L -8 -50 " />
<path id= "259" d=" M 69.282 -50 L 69.282 -60 " />
<path d="M69.282,-60 L67.9044,-60  L65.8214,-60  L63.0547,-60  L59.6331,-60  L55.5921,-60  L50.9737,-60  L45.8258,-60  L40.2019,-60  L34.1604,-60  L27.7641,-60  L21.0794,-60  L14.1758,-60  L7.12488,-60  L-8.21565e-14,-60 " /><path id= "261" d=" M -6.92779e-14 -60 L -8 -60 " />
<path d="M69.282,-70 L67.9044,-70  L65.8214,-70  L63.0547,-70  L59.6331,-70  L55.5921,-70  L50.9737,-70  L45.8258,-70  L40.2019,-70  L34.1604,-70  L27.7641,-70  L21.0794,-70  L14.1758,-70  L7.12488,-70  L-8.79297e-14,-70 " /><path id= "263" d=" M -7.4607e-14 -70 L -8 -70 " />
<path id= "264" d=" M 69.282 -70 L 69.282 -80 " />
<path d="M69.282,-80 L67.9044,-80  L65.8214,-80  L63.0547,-80  L59.6331,-80  L55.5921,-80  L50.9737,-80  L45.8258,-80  L40.2019,-80  L34.1604,-80  L27.7641,-80  L21.0794,-80  L14.1758,-80  L7.12488,-80  L-9.32587e-14,-80 " /><path id= "266" d=" M -7.99361e-14 -80 L -8 -80 " />
<path d="M69.282,-90 L67.9044,-90  L65.8214,-90  L63.0547,-90  L59.6331,-90  L55.5921,-90  L50.9737,-90  L45.8258,-90  L40.2019,-90  L34.1604,-90  L27.7641,-90  L21.0794,-90  L14.1758,-90  L7.12488,-90  L-9.90319e-14,-90 " /><path id= "268" d=" M -8.52651e-14 -90 L -8 -90 " />
<path id= "269" d=" M 69.282 -90 L 69.282 -100 " />
<path d="M69.282,-100 L67.9044,-100  L65.8214,-100  L63.0547,-100  L59.6331,-100  L55.5921,-100  L50.9737,-100  L45.8258,-100  L40.2019,-100  L34.1604,-100  L27.7641,-100  L21.0794,-100  L14.1758,-100  L7.12488,-100  L-1.04361e-13,-100 " /><path id= "271" d=" M -9.05942e-14 -100 L -8 -100 " />
<path id= "272" d=" M 70 -105 L 70 95 " />
<path id= "273" d=" M -8 -105 L -8 -100 " />
<path id= "274" d=" M -8 90 L -8 95 " />
<path id= "275" d=" M -8 70 L -8 80 " />
<path id= "276" d=" M -8 50 L -8 60 " />
<path id= "277" d=" M -8 30 L -8 40 " />
<path id= "278" d=" M -8 10 L -8 20 " />
<path id= "279" d=" M -8 -10 L -8 0 " />
<path id= "280" d=" M -8 -30 L -8 -20 " />
<path id= "281" d=" M -8 -50 L -8 -40 " />
<path id= "282" d=" M -8 -70 L -8 -60 " />
<path id= "283" d=" M -8 -90 L -8 -80 " />
<path id= "284" d=" M 60 150.805 L 60 95 " />
<path id= "285" d=" M 30 150.805 L 30 95 " />
<path id= "286" d=" M 30 90 L 30 80 " />
<path id= "287" d=" M 30 70 L 30 60 " />
<path id= "288" d=" M 70 95 L 70 -105 " />
<path id= "289" d=" M 3.99715 8 L 4.02587 8 " />
<path d="M2.5,0.649613 L2.52588,1.39333e-14 " /><path d="M3.97412,8 Q4.00115,7.99989 4.02818,7.88491 " /><path d="M4.02818,7.88491 C4.05698,7.76137 4.08578,7.54431 4.11457,7.23375  C4.16577,6.68536 4.217,5.84961 4.26819,4.82199  C4.31938,3.796 4.37062,2.57854 4.42181,1.30879  C4.43924,0.875629 4.45668,0.439366 4.47412,1.46549e-14 " /><path id= "293" d=" M 5.99715 8 L 6.02587 8 " />
<path d="M4.02587,8 C4.08738,8.0026 4.14889,7.54232 4.2104,6.69299  C4.2726,5.83864 4.33479,4.58997 4.39699,3.15154  C4.43995,2.15925 4.48291,1.07983 4.52587,1.41045e-14 " /><path d="M5.97412,8 Q6.00115,7.99989 6.02818,7.88491 " /><path d="M6.02818,7.88491 C6.05761,7.75858 6.08704,7.53467 6.11648,7.2132  C6.18981,6.42014 6.26314,5.02963 6.33647,3.3527  C6.38235,2.30591 6.42824,1.15327 6.47412,1.46549e-14 " /><path id= "297" d=" M 7.99715 8 L 8.02587 8 " />
<path d="M6.02587,8 C6.07733,8.00129 6.12878,7.68168 6.18024,7.07757  C6.24423,6.33018 6.30822,5.14033 6.37221,3.71379  C6.42342,2.57407 6.47465,1.28756 6.52587,1.49227e-14 " /><path d="M7.97412,8 Q8.00115,7.99989 8.02818,7.88491 " /><path d="M8.02818,7.88491 C8.07048,7.70577 8.11279,7.31448 8.15509,6.74147  C8.21618,5.91669 8.27726,4.70909 8.33834,3.30982  C8.3836,2.27462 8.42887,1.13741 8.47412,1.55558e-14 " /><path id= "301" d=" M 9.99715 8 L 10.0259 8 " />
<path d="M8.02587,8 C8.07415,8.00104 8.12245,7.72013 8.17072,7.18585  C8.219,6.65348 8.2673,5.86788 8.31558,4.90911  C8.38567,3.51973 8.45578,1.7629 8.52587,1.5099e-14 " /><path d="M9.97412,8 Q10.0011,7.99989 10.0282,7.88491 " /><path d="M10.0282,7.88491 C10.0903,7.62368 10.1524,6.89784 10.2145,5.82594  C10.301,4.34007 10.3876,2.179 10.4741,1.30842e-14 " /><path id= "305" d=" M 11.9971 8 L 12.0259 8 " />
<path d="M10.0259,8 C10.0742,8.00104 10.1225,7.71992 10.1708,7.18524  C10.2191,6.65248 10.2674,5.86632 10.3157,4.90693  C10.3857,3.51789 10.4558,1.76197 10.5259,1.43694e-14 " /><path d="M11.9741,8 Q12.0011,7.99989 12.0282,7.88491 " /><path d="M12.0282,7.88491 C12.0705,7.70586 12.1127,7.31487 12.155,6.74232  C12.2161,5.91808 12.2772,4.71126 12.3382,3.31274  C12.3835,2.27663 12.4288,1.13861 12.4741,1.48869e-14 " /><path id= "309" d=" M 13.9971 8 L 14.0259 8 " />
<path d="M12.0259,8 C12.0877,8.00265 12.1495,7.53758 12.2113,6.68011  C12.2733,5.82459 12.3353,4.57804 12.3973,3.14347  C12.4402,2.15341 12.483,1.0769 12.5259,1.37668e-14 " /><path d="M13.9741,8 Q14.0011,7.99989 14.0282,7.88491 " /><path d="M14.0282,7.88491 C14.0566,7.76314 14.085,7.55041 14.1134,7.24671  C14.1878,6.45867 14.2622,5.05179 14.3366,3.34953  C14.3824,2.30358 14.4283,1.15211 14.4741,1.93951e-17 " /><path id= "313" d=" M 15.9971 8 L 16.0259 8 " />
<path d="M14.0259,8 C14.0874,8.00259 14.1489,7.54253 14.2104,6.69358  C14.2725,5.83978 14.3347,4.59201 14.3969,3.15448  C14.4399,2.16138 14.4829,1.0809 14.5259,2.22045e-16 " /><path d="M15.9741,8 Q16.0011,7.99989 16.0282,7.88491 " /><path d="M16.0282,7.88491 C16.0559,7.76598 16.0837,7.5601 16.1114,7.26728  C16.1871,6.47675 16.2627,5.04373 16.3384,3.30813  C16.3836,2.27324 16.4289,1.13695 16.4741,2.61639e-16 " /><path id= "317" d=" M 17.9971 8 L 18.0259 8 " />
<path d="M16.0259,8 C16.0782,8.00138 16.1306,7.66992 16.183,7.04468  C16.2547,6.19414 16.3264,4.78684 16.3981,3.12464  C16.4407,2.13977 16.4833,1.07008 16.5259,-5.37448e-16 " /><path d="M17.9741,8 Q18.0011,7.99989 18.0282,7.88491 " /><path d="M18.0282,7.88491 C18.0568,7.7622 18.0854,7.54718 18.114,7.23984  C18.1884,6.44887 18.2627,5.0405 18.3371,3.33813  C18.3828,2.29523 18.4284,1.14792 18.4741,-2.22045e-16 " /><path id= "321" d=" M 19.9971 8 L 20 8 " />
<path d="M18.0259,8 C18.0782,8.00137 18.1305,7.67076 18.1828,7.04703  C18.2541,6.20277 18.3253,4.80881 18.3966,3.16058  C18.4397,2.16581 18.4828,1.08311 18.5259,-2.22045e-16 " /><path d="M19.9741,8 Q19.9871,7.99999 20,7.97355 " /><path d="M20,7.97355 L20,7.97354 " /><path d="M20,8 Q20,7.99998 20,7.99062 " /><path d="M20.0537,7.75141 Q20.0665,7.72198 20.0794,7.66735 " /><path d="M20.0794,7.66735 C20.1535,7.35776 20.2276,6.39722 20.3016,5.0047  C20.3757,3.61892 20.4498,1.81348 20.5239,-4.44089e-16 " /><path id= "328" d=" M 20.3521 4 L 22.5 4 " />
<path id= "329" d=" M 27.5 4 L 30 4 " />
<path id= "330" d=" M 27.5 20 L 27.5 30 " />
<path id= "331" d=" M 22.5 28.2843 L 22.5 30 " />
<path id= "332" d=" M 27.5 0.522105 L 27.5 5.22105 " />
<path d="M27.5,10 Q27.5,7.63866 27.5,5.22105 " /><path id= "334" d=" M 22.5 1.53073 L 22.5 10 " />
<path d="M22.5,28.2843 Q22.5,28.0174 22.5,27.7504  Q22.5,27.4787 22.5,27.2069  Q22.5,26.9304 22.5,26.6539  Q22.5,26.3727 22.5,26.0915  Q22.5,25.8058 22.5,25.52  Q22.5,25.2298 22.5,24.9396  Q22.5,24.645 22.5,24.3505  Q22.5,24.0516 22.5,23.7528  Q22.5,23.4498 22.5,23.1469  Q22.5,22.8398 22.5,22.5328  Q22.5,21.913 22.5,21.2813  Q22.5,20.6463 22.5,20 " /><path d="M27.5,5.22105 L25.131,10 " /><path d="M27.5,20 L22.5,28.2843 " /><path d="M27.5,-10.3528 C27.5,-13.7243 27.5,-16.9761 27.5,-20 " /><path id= "339" d=" M 27.5 -10 L 27.5 -10.3528 " />
<path d="M22.5,-10 C22.5,-11.8075 22.5,-13.5823 22.5,-15.3073 " /><path d="M25.0946,-20 L22.5,-15.3073 " /><path d="M27.5,-10.3528 L27.3296,-10 " /><path d="M27.5,-34.641 L27.5,-35.1883  L27.5,-35.7079  L27.5,-36.1994  L27.5,-36.6625  L27.5,-37.0967  L27.5,-37.5017  L27.5,-37.8772  L27.5,-38.2229  L27.5,-38.5385  L27.5,-38.8239  L27.5,-39.0786  L27.5,-39.3027  L27.5,-39.4958  L27.5,-39.6578 " /><path id= "344" d=" M 27.5 -30 L 27.5 -34.641 " />
<path d="M22.5,-30 L22.5,-30.6153  L22.5,-31.2136  L22.5,-31.7946  L22.5,-32.3579  L22.5,-32.9032  L22.5,-33.4302  L22.5,-33.9386  L22.5,-34.4282  L22.5,-34.8987  L22.5,-35.3497  L22.5,-35.7811  L22.5,-36.1927  L22.5,-36.5841  L22.5,-36.9552 " /><path id= "346" d=" M 22.5 -15.3073 L 22.5 -20 " />
<path d="M27.5,-39.6578 L22.5,-36.9552 " /><path d="M27.5,-34.641 L23.8495,-30 " /><path id= "349" d=" M 22.5 -36.9552 L 22.5 -40 " />
<path d="M26.2446,-38.9792 L22.5,-40 " /><path d="M50,10 L50,9.93712  L50,9.74928  L50,9.43883  L50,9.00969  L50,8.46724  L50,7.81831  L50,7.07107  L50,6.2349  L50,5.32032  L50,4.33884  L50,3.30279  L50,2.22521  L50,1.11964  L50,-1.4877e-14 " /><path d="M30,10 L30,9.93712  L30,9.74928  L30,9.43883  L30,9.00969  L30,8.46724  L30,7.81831  L30,7.07107  L30,6.2349  L30,5.32032  L30,4.33884  L30,3.30279  L30,2.22521  L30,1.11964  L30,6.66134e-16 " /><path id= "353" d=" M -8 9.3923 L -8 -1.65024e-12 " />
<path d="M-8 9.3923 A1 1 180 0 0 -7.79417 10" />
<path d="M0 9.3923 A1 1 0 0 1 -0.20583 10" />
<path d="M-0.20583 -10 A1 1 180 0 0 -1 -10.3923" />
<path d="M-0.20583 -10 A1 1 180 0 0 -1 -10.3923" />
<path id= "358" d=" M -7 -10.3923 L -1 -10.3923 " />
<path d="M-7.79417 -10 A1 1 0 0 1 -7 -10.3923" />
<path d="M-7.79417 -10 A1 1 0 0 1 -7 -10.3923" />
<path id= "361" d=" M -7 -10.3923 L -1 -10.3923 " />
<path d="M2.5,23.2568 Q2.5,21.6344 2.5,20 " /><path d="M2.5,10 Q2.5,5.0125 2.5,6.21725e-15 " /><path d="M2.5,-10 Q2.5,-15.0383 2.5,-20 " /><path d="M2.5,-30 C2.5,-33.3966 2.5,-36.7361 2.5,-40 " /><path d="M0,10 Q0,5.0125 0,6.21725e-15 " /><path d="M0,-10 Q0,-15.0383 0,-20 " /><path d="M0,-30 C0,-33.3966 0,-36.7361 0,-40 " /><path d="M0,109.508 L0,108.532  L0,107.547  L0,106.553  L0,105.548  L0,104.534  L0,103.511  L0,102.479  L0,101.437  L0,100.387  L0,99.3269  L0,98.2583  L0,97.1809  L0,96.0947  L0,95 " /><path d="M0,90 Q0,85.1388 0,80 " /><path d="M0,70 Q0,65.0886 0,60 " /><path d="M0,50 Q0,45.0548 0,40 " /><path d="M0,30 Q0,25.0285 0,20 " /><path d="M0,109.508 L2.5,118.025 " /><path d="M2.5,118.025 L2.5,116.557  L2.5,115.061  L2.5,113.536  L2.5,111.982  L2.5,110.402  L2.5,108.794  L2.5,107.159  L2.5,105.498  L2.5,103.811  L2.5,102.098  L2.5,100.36  L2.5,98.5977  L2.5,96.8108  L2.5,95 " /><path d="M2.5,90 Q2.5,85.1388 2.5,80 " /><path d="M2.5,70 Q2.5,65.0886 2.5,60 " /><path d="M2.5,50 Q2.5,45.0548 2.5,40 " /><path d="M2.5,30 Q2.5,26.6422 2.5,23.2568 " /><path d="M1.87387,20 L2.5,23.2568 " /><path d="M0,-50 C0,-53.2056 0,-56.5455 0,-60 " /><path d="M0,-70 C0,-73.2633 0,-76.6018 0,-80 " /><path d="M0,-90 Q0,-94.9526 0,-100 " /><path d="M0,-105 L0,-110.419  L0,-115.539  L0,-120.349  L0,-124.834  L0,-128.982  L0,-132.783  L0,-136.226  L0,-139.301  L0,-142.001  L0,-144.318  L0,-146.246  L0,-147.78  L0,-148.915  L0,-149.649 " /><path d="M0.631327,-100 L2.5,-92.5744 " /><path d="M2.5,-50 C2.5,-53.2073 2.5,-56.5472 2.5,-60 " /><path d="M2.5,-70 C2.5,-73.2642 2.5,-76.6028 2.5,-80 " /><path d="M2.5,-90 Q2.5,-91.2836 2.5,-92.5744 " /><path d="M2.5,-92.5744 Q2.5,-96.3872 2.5,-100 " /><path d="M2.5,-105 L2.5,-109.784  L2.5,-114.338  L2.5,-118.654  L2.5,-122.722  L2.5,-126.533  L2.5,-130.081  L2.5,-133.357  L2.5,-136.355  L2.5,-139.068  L2.5,-141.49  L2.5,-143.618  L2.5,-145.445  L2.5,-146.969  L2.5,-148.186 " /><path d="M0,-149.649 L2.5,-148.186 " /><path d="M0,109.508 Q0,111.292 0,113.075  Q0,116.689 0,120.313  Q0,122.106 0,123.9  Q0,125.656 0,127.412  Q0,129.11 0,130.808  Q0,132.429 0,134.05  Q0,135.576 0,137.102  Q0,138.514 0,139.927  Q0,141.211 0,142.494  Q0,143.634 0,144.774  Q0,145.758 0,146.741  Q0,147.557 0,148.372  Q0,149.011 0,149.649 " /><path d="M2.5,118.025 L2.5,120.786  L2.5,123.52  L2.5,126.209  L2.5,128.837  L2.5,131.384  L2.5,133.835  L2.5,136.172  L2.5,138.381  L2.5,140.447  L2.5,142.356  L2.5,144.096  L2.5,145.654  L2.5,147.02  L2.5,148.186 " /><path d="M0,149.649 L2.5,148.186 " /></g>
</g>



</svg>
