<?xml version="1.0" encoding="UTF-8"?>

<svg xmlns="http://www.w3.org/2000/svg" version="1.1"
    xmlns:freecad="http://www.freecadweb.org/wiki/index.php?title=Svg_Namespace"
	width="210mm"
	height="297mm"
	viewBox="0 0 210 297">
	<!-- Working space 0 0 210 297 -->
	<defs>
		<radialGradient
			id="radialGradient3661"
			gradientUnits="userSpaceOnUse"
			cy="29.149"
			cx="282.65"
			gradientTransform="matrix(.14777 .23089 -.24680 .15795 -26.318 -62.617)"
			r="19.571">
				<stop stop-color="#71b2f8" offset="0"/>
				<stop stop-color="#002795" offset="1"/>
		</radialGradient>
		<radialGradient
			id="radialGradient3817"
			gradientUnits="userSpaceOnUse"
			cy="33.9"
			cx="270.58"
			gradientTransform="matrix(.26631 .065024 -.17931 .73438 -60.668 -36.938)"
			r="19.571">
				<stop stop-color="#ff6d0f" offset="0"/>
				<stop stop-color="#ff1000" offset="1"/>
		</radialGradient>
	</defs>
	<!-- Set display:none to hide FreeCAD Logo -->
	<g
		style="display:inline"
		id="freecad-logo"
		transform="translate(184, 272) scale(1)"
		fill-rule="evenodd"
		stroke-width=".45621">
		<path d="m0.22811 0.22835v13.256h2.9558v-5.1876h2.09v-2.0452h-2.09v-2.2075h5.1486v-3.8087l-8.1044-0.0075z"
			stroke="#370700"
			fill="url(#radialGradient3817)"/>
		<path d="m13.386 4.1792-1.7193 0.98645-0.75925-0.26348-0.72439-1.8513-1.1395 0.05988-0.51976 1.9144-0.72743 0.34835-1.8143-0.79367-0.76632 0.85156 0.98645 1.7193-0.26957 0.75702-1.8513 0.72439 0.065967 1.1417 1.9144 0.51976 0.34835 0.72743-0.79976 1.8121 0.85156 0.76632 1.7193-0.98645 0.76311 0.27179 0.7183 1.8491 1.1478-0.06375 0.51367-1.9166 0.72743-0.34835 1.8182 0.80198 0.76632-0.85156-0.98645-1.7193 0.2657-0.76533 1.8491-0.7183-0.05766-1.1456-1.9166-0.51367-0.34835-0.72743 0.7959-1.8204-0.85156-0.76632zm-2.5751 2.8195 0.35295 0.20478 0.30579 0.27725 0.24481 0.33087 0.17611 0.36787 0.10354 0.39656 0.01715 0.4064-0.0587 0.4063-0.13396 0.38571-0.2131 0.35681-0.26894 0.30192-0.33087 0.24481-0.36787 0.17611-0.39656 0.10354-0.40863 0.02325-0.4063-0.0587-0.38571-0.13396-0.35681-0.2131-0.2997-0.27503-0.24703-0.32478-0.17611-0.36787-0.10132-0.40264-0.02324-0.40863 0.05869-0.4063 0.13396-0.38571 0.21087-0.35072 0.27116-0.30801 0.33087-0.24481 0.36787-0.17611 0.40264-0.10132 0.40641-0.01715 0.4063 0.05869 0.38571 0.13396z" 
		stroke="#000137"
		fill="url(#radialGradient3661)"/>
	</g>
<g id="Ortho_0_0"
   transform="rotate(0,105,148.5) translate(105,148.5) scale(0.5,0.5)"
  >
<g   fill="none"
   stroke="rgb(0, 0, 0)"
   stroke-linecap="butt"
   stroke-linejoin="miter"
   stroke-width="0.700000"
   transform="scale(1,-1)"
  >
<path d="M-7.97357,-0.649787 C-7.92831,-1.20331 -7.82734,-1.74648 -7.67067,-2.27932  C-7.2619,-3.67507 -6.46744,-4.95489 -5.39834,-5.94116  C-4.16784,-7.0841 -2.57427,-7.82729 -0.907836,-8.03824  C0.715983,-8.25022 2.40046,-7.95681 3.85899,-7.21126  C5.19344,-6.53457 6.33556,-5.48568 7.12599,-4.21469  C7.91316,-2.95653 8.35265,-1.48429 8.38699,1.33227e-15 " /><path d="M8,0 C8.00129,1.29348 7.68168,2.58562 7.07757,3.72935  C6.33018,5.15425 5.14033,6.34149 3.71379,7.08574  C3.50251,7.19647 3.28671,7.29756 3.06639,7.38899  C1.48049,8.05138 -0.320889,8.18008 -1.98485,7.74986  C-3.51067,7.36195 -4.91388,6.50976 -5.96164,5.33468  C-7.11889,4.04748 -7.83707,2.37508 -7.97359,0.649541 " /><path d="M-4.59783,-6.54675 L-4.5539,-6.57738 " /><path d="M-3.74227,-7.07074 L-3.73576,-7.07419 " /><path d="M-2.66418,-7.54335 L-2.62157,-7.55826 " /><path d="M-2.62157,-7.55827 L-2.61888,-7.5592 " /><path d="M-2.61888,-7.5592 L-2.61619,-7.56013 " /><path d="M-2.61618,-7.56013 L-2.61219,-7.56151 " /><path d="M-2.61219,-7.56151 L-2.58054,-7.57237 " /><path d="M-2.58054,-7.57237 L-2.57655,-7.57373 " /><path d="M-2.57652,-7.57374 L-2.57383,-7.57466 " /><path d="M-2.57383,-7.57466 L-2.57113,-7.57557 " /><path d="M-2.57113,-7.57557 L-2.52834,-7.58996 " /><path d="M-2.52834,-7.58996 L-2.52564,-7.59086 " /><path d="M-2.52283,-7.59179 L-2.51297,-7.59506 " /><path d="M-2.51297,-7.59506 L-2.50565,-7.59748 " /><path d="M-2.50565,-7.59748 L-2.49578,-7.60073 " /><path d="M-2.49578,-7.60073 L-2.48846,-7.60313 " /><path d="M-2.48846,-7.60313 L-2.47858,-7.60635 " /><path d="M-2.47853,-7.60637 L-2.46864,-7.60959 " /><path d="M-2.46863,-7.60959 L-2.4613,-7.61196 " /><path d="M-2.4613,-7.61197 L-2.4514,-7.61516 " /><path d="M-2.4514,-7.61516 L-2.44406,-7.61752 " /><path d="M-2.44405,-7.61752 L-2.43415,-7.62069 " /><path d="M-2.43325,-7.62098 L-2.42357,-7.62406 " /><path d="M-2.42355,-7.62407 L-2.41979,-7.62526 " /><path d="M-2.41763,-7.62595 L-2.41387,-7.62714 " /><path d="M-2.41385,-7.62714 L-2.39034,-7.63454 " /><path d="M-2.39033,-7.63455 L-2.37289,-7.63999 " /><path d="M-2.37288,-7.63999 L-2.34933,-7.64726 " /><path d="M-2.34933,-7.64726 L-2.33186,-7.65261 " /><path d="M-2.33185,-7.65261 L-2.30826,-7.65976 " /><path d="M-2.30824,-7.65977 L-2.30607,-7.66042 " /><path d="M-2.30229,-7.66156 L-2.29851,-7.66269 " /><path d="M-2.2985,-7.6627 L-2.27902,-7.66851 " /><path d="M-2.279,-7.66852 L-2.27683,-7.66916 " /><path d="M-2.18678,-7.69532 L-2.16306,-7.70202 " /><path d="M-2.12365,-7.71298 L-2.01706,-7.74154 " /><path d="M-2.00721,-7.7441 L-1.99739,-7.74664 " /><path d="M-1.95973,-7.75625 Q-1.66566,-7.83055 -1.36669,-7.88239 " /><path d="M7.18673,-3.51438 L7.19371,-3.50008 " /><path d="M7.27247,-3.33334 L7.28131,-3.31398 " /><path d="M7.60503,-2.48265 L7.60531,-2.48179 " /><path d="M7.98535,-0.483849 L7.98579,-0.476541 " /><path d="M7.99067,-0.386287 L7.99072,-0.385217 " /><path d="M7.99999,-0.01264 L8,-0.00726021 " /><path d="M8,-0.00725625 L8,-1.77983e-15 " /><circle cx ="0" cy ="0" r ="100" /><path d="M-22.9963 -39.8617 A5 5 0 0 1 -19.6474 -30.8738" /><path d="M-22.9963 -39.8617 A98.6542 98.6542 0 0 1 -25.4285 -48.5769" /><path d="M-13.5527 -19.2205 A98.75 98.75 0 0 1 -19.6474 -30.8738" /><path d="M-27.6593 -62.0559 A7 7 0 0 1 -25.4285 -48.5769" /><path d="M-13.5527 -19.2205 A3 3 0 1 1 -15.668 -17.8875" /><path d="M-27.6593 -62.0559 A98.75 98.75 0 0 1 -27.9704 -67.0222" /><path d="M-15.668 -17.8875 A101.25 101.25 0 0 1 -21.9597 -29.9214" /><path d="M-30.4728 -67.0417 A9 9 0 1 1 -27.9704 -67.0222" /><path d="M-21.9597 -29.9214 A5 5 0 0 1 -25.5526 -38.9433" /><path d="M-30.142 -61.7499 A101.25 101.25 0 0 1 -30.4728 -67.0417" /><path d="M-25.5526 -38.9433 A101.37 101.37 0 0 1 -28.0969 -48.0645" /><path d="M-28.0969 -48.0645 A7 7 0 0 1 -30.142 -61.7499" /><path d="M-44.4473 -11.9257 A5 5 0 0 1 -35.7239 -7.93826" /><path d="M-44.4473 -11.9257 A98.6542 98.6542 0 0 1 -52.3297 -16.3684" /><path d="M-23.1742 -4.0077 A98.75 98.75 0 0 1 -35.7239 -7.93826" /><path d="M-63.4382 -24.322 A7 7 0 0 1 -52.3297 -16.3684" /><path d="M-23.1742 -4.0077 A3 3 0 1 1 -23.7273 -1.56942" /><path d="M-63.4382 -24.322 A98.75 98.75 0 0 1 -67.1699 -27.6138" /><path d="M-23.7273 -1.56942 A101.25 101.25 0 0 1 -36.6855 -5.62978" /><path d="M-68.9532 -25.8581 A9 9 0 1 1 -67.1699 -27.6138" /><path d="M-36.6855 -5.62978 A5 5 0 0 1 -45.6054 -9.46865" /><path d="M-64.9774 -22.3501 A101.25 101.25 0 0 1 -68.9532 -25.8581" /><path d="M-45.6054 -9.46865 A101.37 101.37 0 0 1 -53.8542 -14.1193" /><path d="M-53.8542 -14.1193 A7 7 0 0 1 -64.9774 -22.3501" /><path d="M11.9257 -44.4473 A5 5 0 0 1 7.93826 -35.7239" /><path d="M11.9257 -44.4473 A98.6542 98.6542 0 0 1 16.3684 -52.3297" /><path d="M4.0077 -23.1742 A98.75 98.75 0 0 1 7.93826 -35.7239" /><path d="M24.322 -63.4382 A7 7 0 0 1 16.3684 -52.3297" /><path d="M4.0077 -23.1742 A3 3 0 1 1 1.56942 -23.7273" /><path d="M24.322 -63.4382 A98.75 98.75 0 0 1 27.6138 -67.1699" /><path d="M1.56942 -23.7273 A101.25 101.25 0 0 1 5.62978 -36.6855" /><path d="M25.8581 -68.9532 A9 9 0 1 1 27.6138 -67.1699" /><path d="M5.62978 -36.6855 A5 5 0 0 1 9.46865 -45.6054" /><path d="M22.3501 -64.9774 A101.25 101.25 0 0 1 25.8581 -68.9532" /><path d="M9.46865 -45.6054 A101.37 101.37 0 0 1 14.1193 -53.8542" /><path d="M14.1193 -53.8542 A7 7 0 0 1 22.3501 -64.9774" /><circle cx ="0" cy ="0" r ="8" /><path d="M39.8617 -22.9963 A5 5 0 0 1 30.8738 -19.6474" /><path d="M39.8617 -22.9963 A98.6542 98.6542 0 0 1 48.5769 -25.4285" /><path d="M19.2205 -13.5527 A98.75 98.75 0 0 1 30.8738 -19.6474" /><path d="M62.0559 -27.6593 A7 7 0 0 1 48.5769 -25.4285" /><path d="M19.2205 -13.5527 A3 3 0 1 1 17.8875 -15.668" /><path d="M62.0559 -27.6593 A98.75 98.75 0 0 1 67.0222 -27.9704" /><path d="M17.8875 -15.668 A101.25 101.25 0 0 1 29.9214 -21.9597" /><path d="M67.0417 -30.4728 A9 9 0 1 1 67.0222 -27.9704" /><path d="M29.9214 -21.9597 A5 5 0 0 1 38.9433 -25.5526" /><path d="M61.7499 -30.142 A101.25 101.25 0 0 1 67.0417 -30.4728" /><path d="M38.9433 -25.5526 A101.37 101.37 0 0 1 48.0645 -28.0969" /><path d="M48.0645 -28.0969 A7 7 0 0 1 61.7499 -30.142" /><path d="M-39.8617 22.9963 A5 5 0 0 1 -30.8738 19.6474" /><path d="M-39.8617 22.9963 A98.6542 98.6542 0 0 1 -48.5769 25.4285" /><path d="M-19.2205 13.5527 A98.75 98.75 0 0 1 -30.8738 19.6474" /><path d="M-62.0559 27.6593 A7 7 0 0 1 -48.5769 25.4285" /><path d="M-19.2205 13.5527 A3 3 0 1 1 -17.8875 15.668" /><path d="M-62.0559 27.6593 A98.75 98.75 0 0 1 -67.0222 27.9704" /><path d="M-17.8875 15.668 A101.25 101.25 0 0 1 -29.9214 21.9597" /><path d="M-67.0417 30.4728 A9 9 0 1 1 -67.0222 27.9704" /><path d="M-29.9214 21.9597 A5 5 0 0 1 -38.9433 25.5526" /><path d="M-61.7499 30.142 A101.25 101.25 0 0 1 -67.0417 30.4728" /><path d="M-38.9433 25.5526 A101.37 101.37 0 0 1 -48.0645 28.0969" /><path d="M-48.0645 28.0969 A7 7 0 0 1 -61.7499 30.142" /><path d="M-11.9257 44.4473 A5 5 0 0 1 -7.93826 35.7239" /><path d="M-11.9257 44.4473 A98.6542 98.6542 0 0 1 -16.3684 52.3297" /><path d="M-4.0077 23.1742 A98.75 98.75 0 0 1 -7.93826 35.7239" /><path d="M-24.322 63.4382 A7 7 0 0 1 -16.3684 52.3297" /><path d="M-4.0077 23.1742 A3 3 0 1 1 -1.56942 23.7273" /><path d="M-24.322 63.4382 A98.75 98.75 0 0 1 -27.6138 67.1699" /><path d="M-1.56942 23.7273 A101.25 101.25 0 0 1 -5.62978 36.6855" /><path d="M-25.8581 68.9532 A9 9 0 1 1 -27.6138 67.1699" /><path d="M-5.62978 36.6855 A5 5 0 0 1 -9.46865 45.6054" /><path d="M-22.3501 64.9774 A101.25 101.25 0 0 1 -25.8581 68.9532" /><path d="M-9.46865 45.6054 A101.37 101.37 0 0 1 -14.1193 53.8542" /><path d="M-14.1193 53.8542 A7 7 0 0 1 -22.3501 64.9774" /><path d="M44.4473 11.9257 A5 5 0 0 1 35.7239 7.93826" /><path d="M44.4473 11.9257 A98.6542 98.6542 0 0 1 52.3297 16.3684" /><path d="M23.1742 4.0077 A98.75 98.75 0 0 1 35.7239 7.93826" /><path d="M63.4382 24.322 A7 7 0 0 1 52.3297 16.3684" /><path d="M23.1742 4.0077 A3 3 0 1 1 23.7273 1.56942" /><path d="M63.4382 24.322 A98.75 98.75 0 0 1 67.1699 27.6138" /><path d="M23.7273 1.56942 A101.25 101.25 0 0 1 36.6855 5.62978" /><path d="M68.9532 25.8581 A9 9 0 1 1 67.1699 27.6138" /><path d="M36.6855 5.62978 A5 5 0 0 1 45.6054 9.46865" /><path d="M64.9774 22.3501 A101.25 101.25 0 0 1 68.9532 25.8581" /><path d="M45.6054 9.46865 A101.37 101.37 0 0 1 53.8542 14.1193" /><path d="M53.8542 14.1193 A7 7 0 0 1 64.9774 22.3501" /><path d="M22.9963 39.8617 A5 5 0 0 1 19.6474 30.8738" /><path d="M22.9963 39.8617 A98.6542 98.6542 0 0 1 25.4285 48.5769" /><path d="M13.5527 19.2205 A98.75 98.75 0 0 1 19.6474 30.8738" /><path d="M27.6593 62.0559 A7 7 0 0 1 25.4285 48.5769" /><path d="M13.5527 19.2205 A3 3 0 1 1 15.668 17.8875" /><path d="M27.6593 62.0559 A98.75 98.75 0 0 1 27.9704 67.0222" /><path d="M15.668 17.8875 A101.25 101.25 0 0 1 21.9597 29.9214" /><path d="M30.4728 67.0417 A9 9 0 1 1 27.9704 67.0222" /><path d="M21.9597 29.9214 A5 5 0 0 1 25.5526 38.9433" /><path d="M30.142 61.7499 A101.25 101.25 0 0 1 30.4728 67.0417" /><path d="M25.5526 38.9433 A101.37 101.37 0 0 1 28.0969 48.0645" /><path d="M28.0969 48.0645 A7 7 0 0 1 30.142 61.7499" /><path d="M23.2568 148.186 A150 150 0 0 1 10.253 149.649" /><path d="M26.7554 96.3543 A33.9618 33.9618 0 0 1 10.253 149.649" /><path d="M91.0097 41.4395 A110.498 110.498 0 0 1 118.025 92.5744" /><path d="M118.025 92.5744 A150 150 0 0 1 23.2568 148.186" /><path d="M35.0514 93.6557 A33.9618 33.9618 0 0 1 23.2568 148.186" /><path d="M91.0097 41.4395 A100 100 0 0 1 35.0514 93.6557" /><path d="M10.253,149.649 L16.7549,148.918 " /><path d="M16.7549,148.918 L23.2568,148.186 " /><path d="M-148.186 23.2568 A150 150 0 0 1 -149.649 10.253" /><path d="M-96.3543 26.7554 A33.9618 33.9618 0 0 1 -149.649 10.253" /><path d="M-41.4395 91.0097 A110.498 110.498 0 0 1 -92.5744 118.025" /><path d="M-92.5744 118.025 A150 150 0 0 1 -148.186 23.2568" /><path d="M-93.6557 35.0514 A33.9618 33.9618 0 0 1 -148.186 23.2568" /><path d="M-41.4395 91.0097 A100 100 0 0 1 -93.6557 35.0514" /><path d="M-149.649,10.253 L-148.918,16.7549 " /><path d="M-148.918,16.7549 L-148.186,23.2568 " /><path d="M-23.2568 -148.186 A150 150 0 0 1 -10.253 -149.649" /><path d="M-26.7554 -96.3543 A33.9618 33.9618 0 0 1 -10.253 -149.649" /><path d="M-91.0097 -41.4395 A110.498 110.498 0 0 1 -118.025 -92.5744" /><path d="M-118.025 -92.5744 A150 150 0 0 1 -23.2568 -148.186" /><path d="M-35.0514 -93.6557 A33.9618 33.9618 0 0 1 -23.2568 -148.186" /><path d="M-91.0097 -41.4395 A100 100 0 0 1 -35.0514 -93.6557" /><path d="M-10.253,-149.649 L-16.7549,-148.918 " /><path d="M-16.7549,-148.918 L-23.2568,-148.186 " /><path d="M148.186 -23.2568 A150 150 0 0 1 149.649 -10.253" /><path d="M96.3543 -26.7554 A33.9618 33.9618 0 0 1 149.649 -10.253" /><path d="M41.4395 -91.0097 A110.498 110.498 0 0 1 92.5744 -118.025" /><path d="M92.5744 -118.025 A150 150 0 0 1 148.186 -23.2568" /><path d="M93.6557 -35.0514 A33.9618 33.9618 0 0 1 148.186 -23.2568" /><path d="M41.4395 -91.0097 A100 100 0 0 1 93.6557 -35.0514" /><path d="M149.649,-10.253 L148.918,-16.7549 " /><path d="M148.918,-16.7549 L148.186,-23.2568 " /></g>
</g>



</svg>
