<?xml version="1.0" encoding="UTF-8"?>

<svg xmlns="http://www.w3.org/2000/svg" version="1.1"
    xmlns:freecad="http://www.freecadweb.org/wiki/index.php?title=Svg_Namespace"
	width="210mm"
	height="297mm"
	viewBox="0 0 210 297">
	<!-- Working space 0 0 210 297 -->
	<defs>
		<radialGradient
			id="radialGradient3661"
			gradientUnits="userSpaceOnUse"
			cy="29.149"
			cx="282.65"
			gradientTransform="matrix(.14777 .23089 -.24680 .15795 -26.318 -62.617)"
			r="19.571">
				<stop stop-color="#71b2f8" offset="0"/>
				<stop stop-color="#002795" offset="1"/>
		</radialGradient>
		<radialGradient
			id="radialGradient3817"
			gradientUnits="userSpaceOnUse"
			cy="33.9"
			cx="270.58"
			gradientTransform="matrix(.26631 .065024 -.17931 .73438 -60.668 -36.938)"
			r="19.571">
				<stop stop-color="#ff6d0f" offset="0"/>
				<stop stop-color="#ff1000" offset="1"/>
		</radialGradient>
	</defs>
	<!-- Set display:none to hide FreeCAD Logo -->
	<g
		style="display:inline"
		id="freecad-logo"
		transform="translate(184, 272) scale(1)"
		fill-rule="evenodd"
		stroke-width=".45621">
		<path d="m0.22811 0.22835v13.256h2.9558v-5.1876h2.09v-2.0452h-2.09v-2.2075h5.1486v-3.8087l-8.1044-0.0075z"
			stroke="#370700"
			fill="url(#radialGradient3817)"/>
		<path d="m13.386 4.1792-1.7193 0.98645-0.75925-0.26348-0.72439-1.8513-1.1395 0.05988-0.51976 1.9144-0.72743 0.34835-1.8143-0.79367-0.76632 0.85156 0.98645 1.7193-0.26957 0.75702-1.8513 0.72439 0.065967 1.1417 1.9144 0.51976 0.34835 0.72743-0.79976 1.8121 0.85156 0.76632 1.7193-0.98645 0.76311 0.27179 0.7183 1.8491 1.1478-0.06375 0.51367-1.9166 0.72743-0.34835 1.8182 0.80198 0.76632-0.85156-0.98645-1.7193 0.2657-0.76533 1.8491-0.7183-0.05766-1.1456-1.9166-0.51367-0.34835-0.72743 0.7959-1.8204-0.85156-0.76632zm-2.5751 2.8195 0.35295 0.20478 0.30579 0.27725 0.24481 0.33087 0.17611 0.36787 0.10354 0.39656 0.01715 0.4064-0.0587 0.4063-0.13396 0.38571-0.2131 0.35681-0.26894 0.30192-0.33087 0.24481-0.36787 0.17611-0.39656 0.10354-0.40863 0.02325-0.4063-0.0587-0.38571-0.13396-0.35681-0.2131-0.2997-0.27503-0.24703-0.32478-0.17611-0.36787-0.10132-0.40264-0.02324-0.40863 0.05869-0.4063 0.13396-0.38571 0.21087-0.35072 0.27116-0.30801 0.33087-0.24481 0.36787-0.17611 0.40264-0.10132 0.40641-0.01715 0.4063 0.05869 0.38571 0.13396z" 
		stroke="#000137"
		fill="url(#radialGradient3661)"/>
	</g>
<g id="View"
   transform="rotate(0,60,80) translate(60,80) scale(0.2,0.2)"
  >
<g   fill="none"
   stroke="rgb(0, 0, 0)"
   stroke-linecap="butt"
   stroke-linejoin="miter"
   stroke-width="1.750000"
   transform="scale(1,-1)"
  >
<path d="M420,100 L420,100 " /><path id= "2" d=" M 603.484 95 L 603.484 50 " />
<path id= "3" d=" M 603.484 -50 L 603.484 -95 " />
<path d="M603.484 95 A5 5 0 0 1 598.484 100" /><path d="M385.765 100 A5 5 0 0 1 380.765 95" /><path d="M598.484 -100 A5 5 0 0 1 603.484 -95" /><path d="M380.765 -95 A5 5 0 0 1 385.765 -100" /><path d="M576.283 -47.7112 A4 4 0 0 1 579.899 -50" /><path d="M579.899 50 A4 4 0 0 1 576.283 47.7112" /><path id= "10" d=" M 380.765 95 L 380.765 65 " />
<path id= "11" d=" M 380.765 35 L 380.765 -35 " />
<path id= "12" d=" M 380.765 -65 L 380.765 -95 " />
<path d="M605.642 -50 A4 4 0 0 1 609.642 -46" /><path id= "14" d=" M 609.642 -46 L 609.642 -34.6719 " />
<path id= "15" d=" M 609.642 -24.5269 L 609.642 24.5269 " />
<path id= "16" d=" M 609.642 34.6719 L 609.642 46 " />
<path d="M609.642 46 A4 4 0 0 1 605.642 50" /><path d="M628.978,0 C628.978,-2.49478 628.617,-4.98952 627.911,-7.37163  C627.207,-9.75415 626.157,-12.0241 624.812,-14.0801  C623.618,-15.9082 622.19,-17.5675 620.581,-19.0015  C619.078,-20.3417 617.417,-21.4852 615.648,-22.3988  C612.349,-24.1075 608.676,-25.0031 605,-25 " /><path d="M638.978,0 C638.978,-3.30713 638.52,-6.61425 637.622,-9.79013  C636.724,-12.9664 635.386,-16.0114 633.658,-18.8035  C631.998,-21.4905 629.977,-23.9434 627.671,-26.0708  C625.578,-28.0021 623.251,-29.6653 620.759,-31.0086  C617.844,-32.581 614.704,-33.7144 611.471,-34.3596  C608.238,-35.0063 604.912,-35.1647 601.635,-34.8279 " /><path d="M601.717,-24.7644 Q603.351,-24.9999 605,-25 " /><path d="M628.978,0 C628.978,2.49478 628.617,4.98952 627.911,7.37163  C627.207,9.75415 626.157,12.0241 624.812,14.0801  C623.618,15.9082 622.19,17.5675 620.581,19.0015  C619.078,20.3417 617.417,21.4852 615.648,22.3988  C612.349,24.1075 608.676,25.0031 605,25 " /><path d="M638.978,0 C638.978,3.30713 638.52,6.61425 637.622,9.79013  C636.724,12.9664 635.386,16.0114 633.658,18.8035  C631.998,21.4905 629.977,23.9434 627.671,26.0708  C625.578,28.0021 623.251,29.6653 620.759,31.0086  C617.844,32.581 614.704,33.7144 611.471,34.3596  C608.238,35.0063 604.912,35.1647 601.635,34.8279 " /><path d="M605,25 Q603.351,24.9999 601.717,24.7644 " /><path id= "24" d=" M 460 80 L 460 60 " />
<path id= "25" d=" M 460 40 L 460 -80 " />
<path id= "26" d=" M 455 40 L 455 60 " />
<path id= "27" d=" M 199.447 5.27639 L 191.447 9.27639 " />
<path id= "28" d=" M 199.447 -5.27639 L 191.447 -9.27639 " />
<path d="M199.447,5.27639 C199.781,5.11405 200.004,4.75301 200,4.38197 " /><path d="M199.447,-5.27639 C199.781,-5.11405 200.004,-4.75301 200,-4.38197 " /><path d="M191.447,9.27639 C191.095,9.45794 190.639,9.39997 190.343,9.13619  C190.127,8.94991 189.999,8.66734 190,8.38197 " /><path d="M191.447,-9.27639 C191.095,-9.45794 190.639,-9.39997 190.343,-9.13619  C190.127,-8.94991 189.999,-8.66734 190,-8.38197 " /><path d="M414.703,148 C414.706,148.577 414.443,149.148 414.002,149.521  C413.644,149.828 413.175,150.001 412.703,150 " /><path id= "34" d=" M 174.937 149 L 174.937 -149 " />
<path id= "35" d=" M 414.703 -148 L 414.703 -100 " />
<path id= "36" d=" M 414.703 100 L 414.703 148 " />
<path d="M414.703,-148 C414.706,-148.577 414.443,-149.148 414.002,-149.521  C413.644,-149.828 413.175,-150.001 412.703,-150 " /><path id= "38" d=" M -4.07889e-31 -10 L 45 -10 " />
<path id= "39" d=" M 1.35963e-31 10 L 45 10 " />
<path id= "40" d=" M 527.289 200 L 527.29 2.18084e-05 " />
<path id= "41" d=" M 567.289 200 L 567.29 6.5175e-05 " />
<path d="M527.289,200 C527.287,208.744 528.797,217.481 531.741,225.446  C533.956,231.446 536.981,237.013 540.744,241.855  C543.978,246.018 547.762,249.647 552.001,252.54  C555.419,254.874 559.134,256.728 563.03,257.996  C566.925,259.266 571.002,259.95 575.088,259.997 " /><path d="M567.289,200 C567.285,203.398 567.778,206.796 568.654,209.746  C569.315,211.996 570.195,213.98 571.122,215.532  C571.667,216.448 572.224,217.214 572.744,217.822  C573.179,218.331 573.586,218.73 573.94,219.032  C574.6,219.594 575.059,219.821 575.296,219.918  C575.541,220.012 575.573,219.996 575.573,220 " /><path d="M573.283,218.413 C575.114,217.323 577.086,216.467 579.134,215.891  C581.183,215.314 583.308,215.017 585.434,215.02 " /><path d="M570.507,259.678 C573.313,261.891 576.592,263.532 580.066,264.351  C581.802,264.764 583.585,264.975 585.372,264.98  C587.159,264.985 588.949,264.784 590.693,264.392  C591.848,264.133 592.972,263.801 594.084,263.394  C595.191,262.991 596.287,262.506 597.258,262.034  C598.228,261.562 599.058,261.116 599.594,260.838  C599.864,260.698 600.06,260.599 600.183,260.542  C600.306,260.484 600.355,260.469 600.355,260.466 " /><path d="M600.355,260.466 L600.355,260.466 " /><path d="M598.484,261.417 C599.058,261.893 599.753,262.441 600.488,262.96  C601.223,263.481 601.996,263.971 602.758,264.396  C603.521,264.821 604.275,265.189 605.02,265.501  C605.767,265.815 606.504,266.07 607.287,266.296  C608.628,266.678 609.972,266.904 611.309,266.979  C612.65,267.054 614.001,266.976 615.364,266.745  C618.088,266.287 620.813,265.189 623.362,263.555  C624.037,263.122 624.766,262.613 625.453,262.081  C626.14,261.552 626.78,261.01 627.29,260.567  C627.802,260.121 628.18,259.781 628.404,259.587  C628.631,259.388 628.701,259.339 628.701,259.337 " /><path d="M626.688,261.082 C627.408,261.479 628.281,261.929 629.179,262.32  C630.077,262.712 631.002,263.049 631.825,263.289  C634.038,263.942 636.269,264.188 638.437,264.02  C639.522,263.935 640.584,263.751 641.623,263.467  C642.661,263.184 643.687,262.801 644.726,262.306  C645.253,262.056 645.978,261.674 646.618,261.288  C647.265,260.901 647.822,260.532 648.197,260.284  C648.577,260.031 648.781,259.898 648.883,259.837  C648.985,259.777 649.004,259.764 649.003,259.766 " /><path d="M649.003,259.766 Q649.002,259.767 648.994,259.771 " /><path d="M648.74,259.846 L648.74,259.846 " /><path d="M648.849,259.858 Q648.894,259.866 648.952,259.881 " /><path d="M585.434,215.02 C587.12,215.021 588.68,215.195 590.263,215.516  C591.053,215.677 591.842,215.878 592.63,216.119  C593.417,216.358 594.201,216.638 594.959,216.943  C596.473,217.548 597.893,218.27 598.881,218.789  C599.376,219.048 599.758,219.25 600.003,219.371  C600.251,219.495 600.357,219.531 600.355,219.535 " /><path d="M600.355,219.535 C600.357,219.534 600.307,219.516 600.23,219.493  C600.152,219.468 600.044,219.441 599.909,219.412  C599.775,219.384 599.619,219.36 599.468,219.344  C599.316,219.329 599.179,219.323 599.034,219.322 " /><path d="M612.301,212.994 C614.434,212.994 616.593,213.376 618.728,214.143  C620.861,214.905 622.954,216.067 624.883,217.49  C625.417,217.882 625.987,218.332 626.495,218.755  C627.005,219.18 627.451,219.573 627.792,219.874  C628.132,220.176 628.372,220.386 628.511,220.505  C628.653,220.627 628.701,220.663 628.701,220.663 " /><path d="M637.104,215.929 C638.047,215.93 638.941,216.004 639.832,216.146  C640.719,216.288 641.599,216.502 642.473,216.788  C643.349,217.075 644.229,217.441 645.095,217.875  C645.96,218.307 646.805,218.808 647.598,219.323  C647.933,219.54 648.203,219.721 648.398,219.85  C648.595,219.98 648.722,220.062 648.807,220.116  C648.975,220.222 649,220.231 649.003,220.234 " /><path d="M648.952,220.119 Q648.894,220.135 648.849,220.143 " /><path d="M598.485,218.583 C599.114,218.058 599.9,217.449 600.587,216.97  C602.429,215.678 604.37,214.666 606.346,213.997  C608.324,213.327 610.312,212.994 612.301,212.994 " /><path d="M626.689,218.918 C626.95,218.774 627.229,218.623 627.507,218.48  C628.989,217.708 630.616,217.032 632.24,216.594  C633.869,216.151 635.491,215.93 637.104,215.929 " /><path d="M648.952,220.119 C649.072,220.087 649.225,220.025 649.366,219.947  C649.551,219.846 649.713,219.72 649.806,219.635 " /><path d="M648.952,259.881 C649.072,259.913 649.225,259.975 649.366,260.053  C649.551,260.154 649.713,260.28 649.806,260.365 " /><path d="M659.355,215.703 C660.688,215.704 662.053,215.909 663.482,216.386  C664.911,216.868 666.404,217.623 667.967,218.843  C668.666,219.398 669.377,220.038 670.091,220.808  C670.804,221.577 671.521,222.476 672.217,223.53  C672.913,224.583 673.588,225.793 674.202,227.166  C674.815,228.54 675.367,230.078 675.801,231.772  C676.228,233.41 676.539,235.206 676.699,237.048  C676.86,238.891 676.87,240.779 676.727,242.62  C676.586,244.461 676.292,246.254 675.878,247.922  C675.466,249.591 674.934,251.135 674.35,252.497  C673.557,254.342 672.659,255.88 671.738,257.165  C670.817,258.451 669.871,259.485 668.943,260.33  C668.014,261.175 667.101,261.832 666.215,262.357  C665.327,262.881 664.465,263.273 663.621,263.566  C662.498,263.956 661.413,264.173 660.354,264.258  C659.297,264.339 658.258,264.293 657.238,264.119  C656.058,263.92 654.894,263.557 653.727,263.009  C652.561,262.46 651.392,261.724 650.216,260.725 " /><path d="M659.355,215.703 C657.838,215.704 656.363,215.97 654.892,216.505  C653.421,217.044 651.953,217.853 650.47,219.063 " /><path id= "63" d=" M 567.289 -200 L 567.29 2.32241e-05 " />
<path id= "64" d=" M 527.289 -200 L 527.29 6.65907e-05 " />
<path d="M527.289,-200 C527.287,-208.744 528.797,-217.48 531.741,-225.446  C533.956,-231.446 536.981,-237.013 540.744,-241.855  C543.978,-246.018 547.762,-249.647 552.001,-252.54  C555.419,-254.874 559.133,-256.728 563.03,-257.996  C566.925,-259.266 571.002,-259.949 575.088,-259.997 " /><path d="M567.289,-200 C567.285,-203.398 567.778,-206.796 568.654,-209.746  C569.315,-211.996 570.195,-213.98 571.122,-215.532  C571.667,-216.447 572.224,-217.214 572.744,-217.822  C573.179,-218.331 573.586,-218.73 573.94,-219.032  C574.6,-219.594 575.059,-219.821 575.296,-219.918  C575.541,-220.012 575.573,-219.996 575.573,-220 " /><path d="M573.283,-218.413 C575.114,-217.323 577.086,-216.467 579.134,-215.891  C581.183,-215.314 583.308,-215.017 585.434,-215.02 " /><path d="M570.507,-259.678 C573.313,-261.891 576.592,-263.532 580.066,-264.351  C581.802,-264.763 583.585,-264.975 585.372,-264.979  C587.159,-264.985 588.949,-264.784 590.693,-264.392  C591.848,-264.133 592.972,-263.8 594.084,-263.394  C595.191,-262.991 596.287,-262.506 597.258,-262.033  C598.228,-261.562 599.058,-261.116 599.594,-260.838  C599.864,-260.698 600.06,-260.599 600.183,-260.542  C600.306,-260.484 600.355,-260.469 600.355,-260.465 " /><path d="M600.355,-260.465 L600.355,-260.466 " /><path d="M598.484,-261.417 C599.058,-261.893 599.753,-262.441 600.488,-262.96  C601.223,-263.481 601.996,-263.971 602.758,-264.396  C603.521,-264.821 604.275,-265.189 605.02,-265.501  C605.767,-265.815 606.504,-266.07 607.287,-266.296  C608.628,-266.678 609.972,-266.904 611.309,-266.978  C612.65,-267.054 614.001,-266.976 615.364,-266.745  C618.088,-266.287 620.813,-265.189 623.362,-263.555  C624.037,-263.122 624.766,-262.613 625.453,-262.081  C626.14,-261.552 626.78,-261.01 627.29,-260.567  C627.802,-260.121 628.18,-259.781 628.404,-259.587  C628.631,-259.388 628.701,-259.339 628.701,-259.337 " /><path d="M626.688,-261.082 C627.408,-261.479 628.281,-261.929 629.179,-262.32  C630.077,-262.712 631.002,-263.049 631.825,-263.289  C634.038,-263.941 636.269,-264.188 638.437,-264.019  C639.522,-263.935 640.584,-263.751 641.623,-263.467  C642.661,-263.184 643.687,-262.801 644.726,-262.306  C645.253,-262.056 645.978,-261.674 646.618,-261.288  C647.265,-260.901 647.822,-260.532 648.197,-260.284  C648.577,-260.031 648.781,-259.898 648.883,-259.837  C648.985,-259.776 649.004,-259.764 649.003,-259.766 " /><path d="M649.003,-259.766 Q649.002,-259.767 648.994,-259.771 " /><path d="M648.74,-259.846 L648.74,-259.846 " /><path d="M648.849,-259.857 Q648.894,-259.865 648.952,-259.881 " /><path d="M585.434,-215.02 C587.12,-215.021 588.68,-215.195 590.263,-215.516  C591.053,-215.677 591.842,-215.878 592.63,-216.119  C593.417,-216.358 594.201,-216.638 594.959,-216.943  C596.473,-217.548 597.893,-218.27 598.881,-218.789  C599.376,-219.048 599.758,-219.25 600.003,-219.371  C600.251,-219.495 600.357,-219.531 600.355,-219.534 " /><path d="M600.355,-219.534 C600.357,-219.534 600.307,-219.516 600.23,-219.493  C600.152,-219.467 600.044,-219.44 599.909,-219.412  C599.775,-219.384 599.619,-219.36 599.468,-219.344  C599.316,-219.328 599.179,-219.323 599.034,-219.322 " /><path d="M612.301,-212.994 C614.434,-212.994 616.593,-213.376 618.728,-214.143  C620.861,-214.905 622.954,-216.067 624.883,-217.49  C625.417,-217.882 625.987,-218.332 626.495,-218.755  C627.005,-219.18 627.451,-219.573 627.792,-219.874  C628.132,-220.176 628.372,-220.386 628.511,-220.505  C628.653,-220.627 628.701,-220.663 628.701,-220.663 " /><path d="M637.104,-215.929 C638.047,-215.93 638.941,-216.003 639.832,-216.146  C640.719,-216.288 641.599,-216.502 642.473,-216.788  C643.349,-217.075 644.229,-217.441 645.095,-217.875  C645.96,-218.307 646.805,-218.808 647.598,-219.323  C647.933,-219.54 648.203,-219.721 648.398,-219.85  C648.595,-219.98 648.722,-220.062 648.807,-220.116  C648.975,-220.221 649,-220.231 649.003,-220.234 " /><path d="M648.952,-220.119 Q648.894,-220.135 648.849,-220.143 " /><path d="M598.485,-218.583 C599.114,-218.058 599.9,-217.449 600.587,-216.97  C602.429,-215.678 604.37,-214.666 606.346,-213.997  C608.324,-213.327 610.312,-212.994 612.301,-212.994 " /><path d="M626.689,-218.918 C626.95,-218.774 627.229,-218.623 627.507,-218.48  C628.989,-217.708 630.616,-217.031 632.24,-216.594  C633.869,-216.151 635.491,-215.93 637.104,-215.929 " /><path d="M648.952,-220.119 C649.072,-220.087 649.225,-220.025 649.366,-219.947  C649.551,-219.846 649.713,-219.72 649.806,-219.635 " /><path d="M648.952,-259.881 C649.072,-259.913 649.225,-259.975 649.366,-260.053  C649.551,-260.154 649.713,-260.28 649.806,-260.365 " /><path d="M659.355,-215.703 C660.688,-215.704 662.053,-215.909 663.482,-216.386  C664.911,-216.868 666.404,-217.623 667.967,-218.843  C668.666,-219.398 669.377,-220.038 670.091,-220.808  C670.804,-221.577 671.521,-222.476 672.217,-223.53  C672.913,-224.583 673.588,-225.792 674.202,-227.166  C674.815,-228.54 675.367,-230.078 675.801,-231.772  C676.228,-233.41 676.539,-235.206 676.699,-237.048  C676.86,-238.891 676.87,-240.779 676.727,-242.62  C676.586,-244.461 676.292,-246.254 675.878,-247.922  C675.466,-249.591 674.934,-251.135 674.35,-252.497  C673.557,-254.342 672.659,-255.88 671.738,-257.165  C670.817,-258.451 669.871,-259.485 668.943,-260.33  C668.014,-261.175 667.101,-261.832 666.215,-262.357  C665.327,-262.881 664.465,-263.273 663.621,-263.566  C662.498,-263.956 661.413,-264.173 660.354,-264.257  C659.297,-264.339 658.258,-264.293 657.238,-264.119  C656.058,-263.92 654.894,-263.557 653.727,-263.009  C652.561,-262.459 651.392,-261.724 650.216,-260.725 " /><path d="M659.355,-215.703 C657.838,-215.704 656.363,-215.97 654.892,-216.505  C653.421,-217.044 651.953,-217.853 650.47,-219.063 " /><path id= "86" d=" M 311.72 30 L 368.289 30 " />
<path id= "87" d=" M 311.72 70 L 368.289 70 " />
<path id= "88" d=" M 368.28 35 L 424.849 35 " />
<path id= "89" d=" M 368.28 65 L 424.849 65 " />
<path id= "90" d=" M 424.85 40 L 527.29 40 " />
<path id= "91" d=" M 424.85 60 L 527.29 60 " />
<path d="M300,70 C300.023,70 300.15,70 300.382,70  C300.836,70 301.718,70 303.044,70  C305.04,70 308.063,70 311.716,70 " /><path d="M300,30 C300.023,30 300.15,30 300.382,30  C300.836,30 301.718,30 303.044,30  C305.04,30 308.063,30 311.716,30 " /><path id= "94" d=" M 311.72 -70 L 368.289 -70 " />
<path id= "95" d=" M 311.72 -30 L 368.289 -30 " />
<path id= "96" d=" M 368.28 -65 L 424.849 -65 " />
<path id= "97" d=" M 368.28 -35 L 424.849 -35 " />
<path id= "98" d=" M 424.85 -60 L 527.29 -60 " />
<path id= "99" d=" M 424.85 -40 L 527.29 -40 " />
<path d="M300,-70 C300.023,-70 300.15,-70 300.382,-70  C300.836,-70 301.718,-70 303.044,-70  C305.04,-70 308.063,-70 311.716,-70 " /><path d="M300,-30 C300.023,-30 300.15,-30 300.382,-30  C300.836,-30 301.718,-30 303.044,-30  C305.04,-30 308.063,-30 311.716,-30 " /></g>
<g   fill="none"
   stroke="rgb(0, 0, 0)"
   stroke-linecap="butt"
   stroke-linejoin="miter"
   stroke-width="1.750000"
   transform="scale(1,-1)"
  >
<path id= "1" d=" M 200 -29 L 200 29 " />
<path d="M200 -29 A1 1 0 0 1 201 -30" /><path id= "3" d=" M 201 -30 L 239 -30 " />
<path d="M201 30 A1 1 0 0 1 200 29" /><path id= "5" d=" M 201 30 L 239 30 " />
<path id= "6" d=" M 240 -29 L 240 29 " />
<path d="M240 -29 A1 1 0 0 0 239 -30" /><path d="M239 30 A1 1 0 0 0 240 29" /><path id= "9" d=" M 414.703 100 L 421.146 100 " />
<path d="M445,-95 L445,-95 " /><path id= "11" d=" M 414.703 -100 L 421.146 -100 " />
<path d="M495,-95 L495,-95 " /><path id= "13" d=" M 567.289 100 L 598.484 100 " />
<path id= "14" d=" M 421.146 100 L 527.289 100 " />
<path id= "15" d=" M 385.765 100 L 421.146 100 " />
<path d="M414.703,100 L415.42,100  L416.088,100  L416.705,100  L417.271,100  L417.785,100  L418.247,100  L418.656,100  L419.011,100  L419.312,100  L419.56,100  L419.752,100  L419.89,100  L419.972,100  L420,100 " /><path id= "17" d=" M 567.289 -100 L 598.484 -100 " />
<path id= "18" d=" M 567.289 -100 L 598.484 -100 " />
<path id= "19" d=" M 421.146 -100 L 527.289 -100 " />
<path id= "20" d=" M 385.765 -100 L 421.146 -100 " />
<path d="M414.703,-100 L415.42,-100  L416.088,-100  L416.705,-100  L417.271,-100  L417.785,-100  L418.247,-100  L418.656,-100  L419.011,-100  L419.312,-100  L419.56,-100  L419.752,-100  L419.89,-100  L419.972,-100  L420,-100 " /><path d="M450,-95 L450,-95 " /><path d="M500,-95 L500,-95 " /><path d="M576.021 -46 A1.95031 0.504777 -90 0 1 576.283 -47.7112" />
<path d="M576.526 47.9503 A1.95031 0.504777 -90 0 1 576.283 47.7112" />
<path d="M576.283 47.7112 A1.95031 0.504777 -90 0 1 576.021 46" />
<path id= "27" d=" M 576.021 -46 L 576.021 46 " />
<path id= "28" d=" M 579.899 -50 L 581.831 -50 " />
<path id= "29" d=" M 581.831 -50 L 605.642 -50 " />
<path id= "30" d=" M 603.71 -50 L 605.642 -50 " />
<path id= "31" d=" M 603.71 50 L 605.642 50 " />
<path id= "32" d=" M 579.899 50 L 581.831 50 " />
<path id= "33" d=" M 581.831 50 L 605.642 50 " />
<path d="M601.669,-24.761 C601.385,-24.7582 601.102,-25.1361 600.878,-25.8128  C600.623,-26.5741 600.448,-27.7133 600.394,-28.9397  C600.333,-30.2794 600.419,-31.7082 600.63,-32.7995  C600.708,-33.2078 600.8,-33.5623 600.906,-33.8632  C601.116,-34.4612 601.374,-34.8032 601.635,-34.8279 " /><path d="M601.717,-24.7644 L601.669,-24.761 " /><path d="M601.669,24.761 C601.385,24.7582 601.102,25.1361 600.878,25.8128  C600.623,26.5741 600.448,27.7133 600.394,28.9397  C600.333,30.2794 600.419,31.7082 600.63,32.7995  C600.708,33.2078 600.8,33.5623 600.906,33.8632  C601.116,34.4612 601.374,34.8032 601.635,34.8279 " /><path d="M601.717,24.7644 L601.669,24.761 " /><path d="M490,-80 L489.624,-80  L488.515,-80  L486.727,-80  L484.352,-80  L481.508,-80  L478.338,-80  L475,-80  L471.662,-80  L468.492,-80  L465.648,-80  L463.273,-80  L461.485,-80  L460.376,-80  L460,-80 " /><path id= "39" d=" M 490 80 L 490 60 " />
<path id= "40" d=" M 490 40 L 490 -40 " />
<path id= "41" d=" M 490 -60 L 490 -80 " />
<path d="M490,80 L489.624,80  L488.515,80  L486.727,80  L484.352,80  L481.508,80  L478.338,80  L475,80  L471.662,80  L468.492,80  L465.648,80  L463.273,80  L461.485,80  L460.376,80  L460,80 " /><path d="M495,60 L494.499,60  L493.019,60  L490.637,60  L487.47,60  L483.678,60  L479.45,60  L475,60  L470.55,60  L466.322,60  L462.53,60  L459.363,60  L456.981,60  L455.501,60  L455,60 " /><path d="M495,40 L494.499,40  L493.019,40  L490.637,40  L487.47,40  L483.678,40  L479.45,40  L475,40  L470.55,40  L466.322,40  L462.53,40  L459.363,40  L456.981,40  L455.501,40  L455,40 " /><path id= "45" d=" M 200 -129 L 200 -29 " />
<path id= "46" d=" M 200 29 L 200 119 " />
<path d="M200 -129 A1 1 0 0 1 201 -130" /><path id= "48" d=" M 201 -130 L 359 -130 " />
<path d="M201 120 A1 1 0 0 1 200 119" /><path id= "50" d=" M 201 120 L 359 120 " />
<path id= "51" d=" M 360 -129 L 360 -70 " />
<path id= "52" d=" M 360 -30 L 360 30 " />
<path id= "53" d=" M 360 70 L 360 119 " />
<path d="M360 -129 A1 1 0 0 0 359 -130" /><path d="M359 120 A1 1 0 0 0 360 119" /><path d="M191.447,-1.13733e-15 Q191.38,-1.14065e-15 191.313,-1.14397e-15  Q191.173,-1.14891e-15 191.028,-1.14995e-15  Q190.882,-1.14988e-15 190.74,-1.14588e-15  Q190.672,-1.14301e-15 190.603,-1.14014e-15  Q190.539,-1.13611e-15 190.474,-1.13208e-15  Q190.415,-1.12697e-15 190.357,-1.12187e-15  Q190.305,-1.11579e-15 190.253,-1.10972e-15  Q190.208,-1.1028e-15 190.164,-1.09589e-15  Q190.129,-1.08828e-15 190.094,-1.08067e-15  Q190.068,-1.07253e-15 190.042,-1.06439e-15  Q190.026,-1.05588e-15 190.011,-1.04738e-15  Q190.005,-1.03869e-15 190,-1.03e-15 " /><path d="M190,-9.99201e-16 L190,0.938482  L190,1.86516  L190,2.76839  L190,3.6368  L190,4.45947  L190,5.22607  L190,5.92695  L190,6.55328  L190,7.09721  L190,7.55189  L190,7.9116  L190,8.17181  L190,8.32926  L190,8.38197 " /><path d="M190,-8.38197 L190,-8.32926  L190,-8.17181  L190,-7.9116  L190,-7.55189  L190,-7.09721  L190,-6.55328  L190,-5.92695  L190,-5.22607  L190,-4.45947  L190,-3.6368  L190,-2.76839  L190,-1.86516  L190,-0.938482  L190,-3.05311e-15 " /><path id= "59" d=" M 175.937 150 L 374.703 150 " />
<path d="M374.703,150 L378.958,150  L383.159,150  L387.254,150  L391.191,150  L394.92,150  L398.396,150  L401.573,150  L404.413,150  L406.879,150  L408.94,150  L410.571,150  L411.75,150  L412.464,150  L412.703,150 " /><path d="M151,150 L153.704,150  L156.368,150  L158.962,150  L161.459,150  L163.83,150  L166.051,150  L168.097,150  L169.945,150  L171.576,150  L172.971,150  L174.116,150  L174.998,150  L175.607,150  L175.937,150 " /><path d="M175.715,150 L175.21,150  L174.459,150  L173.469,150  L172.251,150  L170.814,150  L169.175,150  L167.348,150  L165.352,150  L163.206,150  L160.931,150  L158.549,150  L156.084,150  L153.559,150  L151,150 " /><path d="M175.937 150 A1 1 0 0 1 174.937 149" /><path d="M151 150 A1 1 0 0 1 150 149" /><path d="M151 150 A1 1 0 0 1 150 149" /><path id= "66" d=" M 150 149 L 150 49 " />
<path id= "67" d=" M 150 -49 L 150 -149 " />
<path id= "68" d=" M 175.937 -150 L 374.703 -150 " />
<path d="M374.703,-150 L378.958,-150  L383.159,-150  L387.254,-150  L391.191,-150  L394.92,-150  L398.396,-150  L401.573,-150  L404.413,-150  L406.879,-150  L408.94,-150  L410.571,-150  L411.75,-150  L412.464,-150  L412.703,-150 " /><path d="M151,-150 L153.704,-150  L156.368,-150  L158.962,-150  L161.459,-150  L163.83,-150  L166.051,-150  L168.097,-150  L169.945,-150  L171.576,-150  L172.971,-150  L174.116,-150  L174.998,-150  L175.607,-150  L175.937,-150 " /><path d="M174.937 -149 A1 1 0 0 1 175.937 -150" /><path d="M151 -150 A1 1 0 0 0 150 -149" /><path d="M151 -150 A1 1 0 0 0 150 -149" /><path d="M1.47911e-31,10 L-1.65934e-16,9.97204  L-3.3094e-16,9.88831  L-4.94096e-16,9.74928  L-6.54488e-16,9.55573  L-8.1122e-16,9.30874  L-9.63415e-16,9.00969  L-1.11022e-15,8.66025  L-1.25082e-15,8.26239  L-1.38443e-15,7.81831  L-1.51029e-15,7.33052  L-1.6277e-15,6.80173  L-1.73601e-15,6.2349  L-1.83462e-15,5.6332  L-1.92296e-15,5 " /><path d="M-1.92296e-15,-5 L-1.83462e-15,-5.6332  L-1.73601e-15,-6.2349  L-1.6277e-15,-6.80173  L-1.51029e-15,-7.33052  L-1.38443e-15,-7.81831  L-1.25082e-15,-8.26239  L-1.11022e-15,-8.66025  L-9.63415e-16,-9.00969  L-8.1122e-16,-9.30874  L-6.54488e-16,-9.55573  L-4.94096e-16,-9.74928  L-3.3094e-16,-9.88831  L-1.65934e-16,-9.97204  L-4.06756e-31,-10 " /><path id= "76" d=" M 561.432 4.91015e-05 L 550.119 3.29482e-05 " />
<path id= "77" d=" M 527.29 2.18084e-05 L 567.29 6.5175e-05 " />
<path id= "78" d=" M 567.29 6.5175e-05 L 561.432 4.91015e-05 " />
<path id= "79" d=" M 527.289 200 L 567.289 200 " />
<path d="M575.088,259.997 C577.45,260.029 579.815,259.204 581.895,257.622  C582.73,256.988 583.52,256.235 584.249,255.379  C585.229,254.227 586.098,252.888 586.824,251.408  C588.462,248.087 589.357,244.048 589.352,239.998 " /><path d="M589.352,239.998 C589.354,237.177 588.926,234.357 588.107,231.785  C587.291,229.217 586.086,226.898 584.597,225.031  C583.49,223.641 582.227,222.499 580.87,221.662  C579.202,220.632 577.393,220.064 575.573,220 " /><path d="M589.352 239.998 A20 14.1421 90 0 1 574.849 259.994" />
<path d="M651.672,219.75 C653.519,219.749 655.382,220.262 657.112,221.269  C658.842,222.272 660.437,223.766 661.768,225.641  C663.101,227.514 664.17,229.764 664.891,232.219  C665.615,234.673 665.99,237.33 665.991,239.986  C665.993,242.642 665.62,245.295 664.902,247.746  C664.185,250.197 663.123,252.444 661.797,254.318  C660.472,256.194 658.884,257.695 657.151,258.708  C655.42,259.724 653.546,260.251 651.672,260.25  C650.757,260.25 649.851,260.127 648.952,259.881 " /><path d="M648.952,220.119 Q650.305,219.75 651.672,219.75 " /><path id= "85" d=" M 561.432 3.59259e-05 L 545.75 5.55315e-05 " />
<path id= "86" d=" M 527.29 6.65907e-05 L 567.29 2.32241e-05 " />
<path id= "87" d=" M 567.29 2.32241e-05 L 561.432 3.59259e-05 " />
<path id= "88" d=" M 527.289 -200 L 567.289 -200 " />
<path d="M575.088,-259.997 C577.45,-260.029 579.815,-259.204 581.895,-257.622  C582.73,-256.988 583.52,-256.235 584.249,-255.378  C585.229,-254.227 586.098,-252.888 586.824,-251.408  C588.462,-248.087 589.357,-244.048 589.352,-239.998 " /><path d="M589.352,-239.998 C589.354,-237.177 588.926,-234.357 588.107,-231.785  C587.291,-229.216 586.086,-226.898 584.597,-225.031  C583.49,-223.641 582.227,-222.499 580.87,-221.662  C579.202,-220.632 577.393,-220.064 575.573,-220 " /><path d="M589.352 -239.998 A20 14.1421 -90 0 0 574.849 -259.993" />
<path d="M651.672,-219.75 C653.519,-219.749 655.382,-220.262 657.112,-221.268  C658.842,-222.272 660.437,-223.766 661.768,-225.641  C663.101,-227.514 664.17,-229.764 664.891,-232.219  C665.615,-234.673 665.99,-237.33 665.991,-239.985  C665.993,-242.641 665.62,-245.295 664.902,-247.745  C664.185,-250.197 663.123,-252.444 661.797,-254.318  C660.472,-256.194 658.884,-257.695 657.151,-258.708  C655.42,-259.724 653.546,-260.251 651.672,-260.25  C650.757,-260.249 649.851,-260.127 648.952,-259.881 " /><path d="M648.952,-220.119 Q650.305,-219.75 651.672,-219.75 " /><path d="M377.643 65 A20 14.1421 -90 0 1 368.289 70" />
<path d="M368.289 70 A20 14.1421 -90 0 1 368.289 30" />
<path d="M368.289 30 A20 14.1421 -90 0 1 377.643 35" />
<path d="M311.72 70 A20 14.1421 -90 0 1 311.72 30" />
<path d="M432.754 60 A15 10.6066 -90 0 1 424.849 65" />
<path d="M424.849 65 A15 10.6066 -90 0 1 424.849 35" />
<path d="M424.849 35 A15 10.6066 -90 0 1 432.754 40" />
<path d="M424.849 60 A10 7.07107 -90 0 1 424.849 60" />
<path d="M424.849 60 A10 7.07107 -90 0 1 424.849 40" />
<path d="M424.849 40 A10 7.07107 -90 0 1 424.849 40" />
<path d="M424.85 60 A10 7.07107 -90 0 1 424.85 40" />
<path d="M300,70 C297.382,70.0014 294.765,69.4808 292.346,68.4776  C289.927,67.4769 287.708,65.9945 285.858,64.1421  C284.006,62.2918 282.523,60.0731 281.522,57.6537  C280.519,55.2353 279.999,52.6182 280,50  C279.999,47.3818 280.519,44.7647 281.522,42.3463  C282.523,39.9269 284.006,37.7082 285.858,35.8579  C287.708,34.0055 289.927,32.5231 292.346,31.5224  C294.765,30.5192 297.382,29.9986 300,30 " /><path d="M311.718,70 L311.716,70 " /><path d="M311.716,70 C309.864,70.0014 308.014,69.4808 306.304,68.4776  C304.593,67.4769 303.024,65.9945 301.716,64.1421  C300.406,62.2918 299.358,60.0731 298.65,57.6537  C297.941,55.2353 297.573,52.6182 297.574,50  C297.573,47.3818 297.941,44.7647 298.65,42.3463  C299.358,39.9269 300.406,37.7082 301.716,35.8579  C303.024,34.0055 304.593,32.5231 306.304,31.5224  C308.014,30.5192 309.864,29.9986 311.716,30 " /><path d="M311.716,30 L311.718,30 " /><path d="M377.643 -65 A20 14.1421 90 0 0 368.289 -70" />
<path d="M368.289 -70 A20 14.1421 90 0 0 368.289 -30" />
<path d="M368.289 -30 A20 14.1421 90 0 0 377.643 -35" />
<path d="M311.72 -70 A20 14.1421 90 0 0 311.72 -30" />
<path d="M432.754 -60 A15 10.6066 90 0 0 424.849 -65" />
<path d="M424.849 -65 A15 10.6066 90 0 0 424.849 -35" />
<path d="M424.849 -35 A15 10.6066 90 0 0 432.754 -40" />
<path d="M424.849 -60 A10 7.07107 90 0 0 424.849 -60" />
<path d="M424.849 -60 A10 7.07107 90 0 0 424.849 -40" />
<path d="M424.849 -40 A10 7.07107 90 0 0 424.849 -40" />
<path d="M424.85 -60 A10 7.07107 90 0 0 424.85 -40" />
<path d="M300,-70 C297.382,-70.0014 294.765,-69.4808 292.346,-68.4776  C289.927,-67.4769 287.708,-65.9945 285.858,-64.1421  C284.006,-62.2918 282.523,-60.0731 281.522,-57.6537  C280.519,-55.2353 279.999,-52.6182 280,-50  C279.999,-47.3818 280.519,-44.7647 281.522,-42.3463  C282.523,-39.9269 284.006,-37.7082 285.858,-35.8579  C287.708,-34.0055 289.927,-32.5231 292.346,-31.5224  C294.765,-30.5192 297.382,-29.9986 300,-30 " /><path d="M311.718,-70 L311.716,-70 " /><path d="M311.716,-70 C309.864,-70.0014 308.014,-69.4808 306.304,-68.4776  C304.593,-67.4769 303.024,-65.9945 301.716,-64.1421  C300.406,-62.2918 299.358,-60.0731 298.65,-57.6537  C297.941,-55.2353 297.573,-52.6182 297.574,-50  C297.573,-47.3818 297.941,-44.7647 298.65,-42.3463  C299.358,-39.9269 300.406,-37.7082 301.716,-35.8579  C303.024,-34.0055 304.593,-32.5231 306.304,-31.5224  C308.014,-30.5192 309.864,-29.9986 311.716,-30 " /><path d="M311.716,-30 L311.718,-30 " /><path d="M-175,-100 L-174.56,-100  L-173.245,-100  L-171.072,-100  L-168.068,-100  L-164.271,-100  L-159.728,-100  L-154.497,-100  L-148.644,-100  L-142.242,-100  L-135.372,-100  L-128.12,-100  L-120.576,-100  L-112.838,-100  L-105,-100 " /><path d="M-175,100 L-174.56,100  L-173.245,100  L-171.072,100  L-168.068,100  L-164.271,100  L-159.728,100  L-154.497,100  L-148.644,100  L-142.242,100  L-135.372,100  L-128.12,100  L-120.576,100  L-112.838,100  L-105,100 " /><path d="M-115,95 L-122,95  L-128.823,95  L-135.399,95  L-141.659,95  L-147.538,95  L-152.976,95  L-157.915,95  L-162.305,95  L-166.099,95  L-169.259,95  L-171.751,95  L-173.55,95  L-174.636,95  L-175,95 " /><path id= "127" d=" M -115 95 L -115 85 " />
<path d="M-115,85 L-122,85  L-128.823,85  L-135.399,85  L-141.659,85  L-147.538,85  L-152.976,85  L-157.915,85  L-162.305,85  L-166.099,85  L-169.259,85  L-171.751,85  L-173.55,85  L-174.636,85  L-175,85 " /><path d="M-115,75 L-122,75  L-128.823,75  L-135.399,75  L-141.659,75  L-147.538,75  L-152.976,75  L-157.915,75  L-162.305,75  L-166.099,75  L-169.259,75  L-171.751,75  L-173.55,75  L-174.636,75  L-175,75 " /><path id= "130" d=" M -115 75 L -115 65 " />
<path d="M-115,65 L-122,65  L-128.823,65  L-135.399,65  L-141.659,65  L-147.538,65  L-152.976,65  L-157.915,65  L-162.305,65  L-166.099,65  L-169.259,65  L-171.751,65  L-173.55,65  L-174.636,65  L-175,65 " /><path d="M-115,55 L-122,55  L-128.823,55  L-135.399,55  L-141.659,55  L-147.538,55  L-152.976,55  L-157.915,55  L-162.305,55  L-166.099,55  L-169.259,55  L-171.751,55  L-173.55,55  L-174.636,55  L-175,55 " /><path id= "133" d=" M -115 55 L -115 45 " />
<path d="M-115,45 L-122,45  L-128.823,45  L-135.399,45  L-141.659,45  L-147.538,45  L-152.976,45  L-157.915,45  L-162.305,45  L-166.099,45  L-169.259,45  L-171.751,45  L-173.55,45  L-174.636,45  L-175,45 " /><path d="M-115,35 L-122,35  L-128.823,35  L-135.399,35  L-141.659,35  L-147.538,35  L-152.976,35  L-157.915,35  L-162.305,35  L-166.099,35  L-169.259,35  L-171.751,35  L-173.55,35  L-174.636,35  L-175,35 " /><path id= "136" d=" M -115 35 L -115 25 " />
<path d="M-115,25 L-122,25  L-128.823,25  L-135.399,25  L-141.659,25  L-147.538,25  L-152.976,25  L-157.915,25  L-162.305,25  L-166.099,25  L-169.259,25  L-171.751,25  L-173.55,25  L-174.636,25  L-175,25 " /><path d="M-115,15 L-122,15  L-128.823,15  L-135.399,15  L-141.659,15  L-147.538,15  L-152.976,15  L-157.915,15  L-162.305,15  L-166.099,15  L-169.259,15  L-171.751,15  L-173.55,15  L-174.636,15  L-175,15 " /><path id= "139" d=" M -115 15 L -115 5 " />
<path d="M-115,5 L-122,5  L-128.823,5  L-135.399,5  L-141.659,5  L-147.538,5  L-152.976,5  L-157.915,5  L-162.305,5  L-166.099,5  L-169.259,5  L-171.751,5  L-173.55,5  L-174.636,5  L-175,5 " /><path d="M-115,-5 L-122,-5  L-128.823,-5  L-135.399,-5  L-141.659,-5  L-147.538,-5  L-152.976,-5  L-157.915,-5  L-162.305,-5  L-166.099,-5  L-169.259,-5  L-171.751,-5  L-173.55,-5  L-174.636,-5  L-175,-5 " /><path id= "142" d=" M -115 -5 L -115 -15 " />
<path d="M-115,-15 L-122,-15  L-128.823,-15  L-135.399,-15  L-141.659,-15  L-147.538,-15  L-152.976,-15  L-157.915,-15  L-162.305,-15  L-166.099,-15  L-169.259,-15  L-171.751,-15  L-173.55,-15  L-174.636,-15  L-175,-15 " /><path d="M-115,-25 L-122,-25  L-128.823,-25  L-135.399,-25  L-141.659,-25  L-147.538,-25  L-152.976,-25  L-157.915,-25  L-162.305,-25  L-166.099,-25  L-169.259,-25  L-171.751,-25  L-173.55,-25  L-174.636,-25  L-175,-25 " /><path id= "145" d=" M -115 -25 L -115 -35 " />
<path d="M-115,-35 L-122,-35  L-128.823,-35  L-135.399,-35  L-141.659,-35  L-147.538,-35  L-152.976,-35  L-157.915,-35  L-162.305,-35  L-166.099,-35  L-169.259,-35  L-171.751,-35  L-173.55,-35  L-174.636,-35  L-175,-35 " /><path d="M-115,-45 L-122,-45  L-128.823,-45  L-135.399,-45  L-141.659,-45  L-147.538,-45  L-152.976,-45  L-157.915,-45  L-162.305,-45  L-166.099,-45  L-169.259,-45  L-171.751,-45  L-173.55,-45  L-174.636,-45  L-175,-45 " /><path id= "148" d=" M -115 -45 L -115 -55 " />
<path d="M-115,-55 L-122,-55  L-128.823,-55  L-135.399,-55  L-141.659,-55  L-147.538,-55  L-152.976,-55  L-157.915,-55  L-162.305,-55  L-166.099,-55  L-169.259,-55  L-171.751,-55  L-173.55,-55  L-174.636,-55  L-175,-55 " /><path d="M-115,-65 L-122,-65  L-128.823,-65  L-135.399,-65  L-141.659,-65  L-147.538,-65  L-152.976,-65  L-157.915,-65  L-162.305,-65  L-166.099,-65  L-169.259,-65  L-171.751,-65  L-173.55,-65  L-174.636,-65  L-175,-65 " /><path id= "151" d=" M -115 -65 L -115 -75 " />
<path d="M-115,-75 L-122,-75  L-128.823,-75  L-135.399,-75  L-141.659,-75  L-147.538,-75  L-152.976,-75  L-157.915,-75  L-162.305,-75  L-166.099,-75  L-169.259,-75  L-171.751,-75  L-173.55,-75  L-174.636,-75  L-175,-75 " /><path d="M-115,-85 L-122,-85  L-128.823,-85  L-135.399,-85  L-141.659,-85  L-147.538,-85  L-152.976,-85  L-157.915,-85  L-162.305,-85  L-166.099,-85  L-169.259,-85  L-171.751,-85  L-173.55,-85  L-174.636,-85  L-175,-85 " /><path id= "154" d=" M -115 -85 L -115 -95 " />
<path d="M-115,-95 L-122,-95  L-128.823,-95  L-135.399,-95  L-141.659,-95  L-147.538,-95  L-152.976,-95  L-157.915,-95  L-162.305,-95  L-166.099,-95  L-169.259,-95  L-171.751,-95  L-173.55,-95  L-174.636,-95  L-175,-95 " /><path id= "156" d=" M -105 -100 L -105 100 " />
<path id= "157" d=" M -175 95 L -175 100 " />
<path id= "158" d=" M -175 75 L -175 85 " />
<path id= "159" d=" M -175 55 L -175 65 " />
<path id= "160" d=" M -175 35 L -175 45 " />
<path id= "161" d=" M -175 15 L -175 25 " />
<path id= "162" d=" M -175 -5 L -175 5 " />
<path id= "163" d=" M -175 -25 L -175 -15 " />
<path id= "164" d=" M -175 -45 L -175 -35 " />
<path id= "165" d=" M -175 -65 L -175 -55 " />
<path id= "166" d=" M -175 -85 L -175 -75 " />
<path id= "167" d=" M -175 -100 L -175 -95 " />
<path d="M-105,170 L-105,169.56  L-105,168.245  L-105,166.072  L-105,163.068  L-105,159.271  L-105,154.728  L-105,149.497  L-105,143.644  L-105,137.242  L-105,130.372  L-105,123.12  L-105,115.576  L-105,107.838  L-105,100 " /><path d="M95,170 L95,169.56  L95,168.245  L95,166.072  L95,163.068  L95,159.271  L95,154.728  L95,149.497  L95,143.644  L95,137.242  L95,130.372  L95,123.12  L95,115.576  L95,107.838  L95,100 " /><path d="M90,110 L90,117  L90,123.823  L90,130.399  L90,136.659  L90,142.538  L90,147.976  L90,152.915  L90,157.305  L90,161.099  L90,164.259  L90,166.751  L90,168.55  L90,169.636  L90,170 " /><path id= "171" d=" M 90 110 L 80 110 " />
<path d="M80,110 L80,117  L80,123.823  L80,130.399  L80,136.659  L80,142.538  L80,147.976  L80,152.915  L80,157.305  L80,161.099  L80,164.259  L80,166.751  L80,168.55  L80,169.636  L80,170 " /><path d="M70,110 L70,117  L70,123.823  L70,130.399  L70,136.659  L70,142.538  L70,147.976  L70,152.915  L70,157.305  L70,161.099  L70,164.259  L70,166.751  L70,168.55  L70,169.636  L70,170 " /><path id= "174" d=" M 70 110 L 60 110 " />
<path d="M60,110 L60,117  L60,123.823  L60,130.399  L60,136.659  L60,142.538  L60,147.976  L60,152.915  L60,157.305  L60,161.099  L60,164.259  L60,166.751  L60,168.55  L60,169.636  L60,170 " /><path d="M50,110 L50,117  L50,123.823  L50,130.399  L50,136.659  L50,142.538  L50,147.976  L50,152.915  L50,157.305  L50,161.099  L50,164.259  L50,166.751  L50,168.55  L50,169.636  L50,170 " /><path id= "177" d=" M 50 110 L 40 110 " />
<path d="M40,110 L40,117  L40,123.823  L40,130.399  L40,136.659  L40,142.538  L40,147.976  L40,152.915  L40,157.305  L40,161.099  L40,164.259  L40,166.751  L40,168.55  L40,169.636  L40,170 " /><path d="M30,110 L30,117  L30,123.823  L30,130.399  L30,136.659  L30,142.538  L30,147.976  L30,152.915  L30,157.305  L30,161.099  L30,164.259  L30,166.751  L30,168.55  L30,169.636  L30,170 " /><path id= "180" d=" M 30 110 L 20 110 " />
<path d="M20,110 L20,117  L20,123.823  L20,130.399  L20,136.659  L20,142.538  L20,147.976  L20,152.915  L20,157.305  L20,161.099  L20,164.259  L20,166.751  L20,168.55  L20,169.636  L20,170 " /><path d="M10,110 L10,117  L10,123.823  L10,130.399  L10,136.659  L10,142.538  L10,147.976  L10,152.915  L10,157.305  L10,161.099  L10,164.259  L10,166.751  L10,168.55  L10,169.636  L10,170 " /><path id= "183" d=" M 10 110 L 0 110 " />
<path d="M-4.26326e-14,110 L-2.84217e-14,117  L-2.84217e-14,123.823  L-2.84217e-14,130.399  L-2.84217e-14,136.659  L-2.84217e-14,142.538  L-1.42109e-14,147.976  L-1.42109e-14,152.915  L-1.42109e-14,157.305  L0,161.099  L0,164.259  L0,166.751  L1.42109e-14,168.55  L1.42109e-14,169.636  L1.42109e-14,170 " /><path d="M-10,110 L-10,117  L-10,123.823  L-10,130.399  L-10,136.659  L-10,142.538  L-10,147.976  L-10,152.915  L-10,157.305  L-10,161.099  L-10,164.259  L-10,166.751  L-10,168.55  L-10,169.636  L-10,170 " /><path id= "186" d=" M -10 110 L -20 110 " />
<path d="M-20,110 L-20,117  L-20,123.823  L-20,130.399  L-20,136.659  L-20,142.538  L-20,147.976  L-20,152.915  L-20,157.305  L-20,161.099  L-20,164.259  L-20,166.751  L-20,168.55  L-20,169.636  L-20,170 " /><path d="M-30,110 L-30,117  L-30,123.823  L-30,130.399  L-30,136.659  L-30,142.538  L-30,147.976  L-30,152.915  L-30,157.305  L-30,161.099  L-30,164.259  L-30,166.751  L-30,168.55  L-30,169.636  L-30,170 " /><path id= "189" d=" M -30 110 L -40 110 " />
<path d="M-40,110 L-40,117  L-40,123.823  L-40,130.399  L-40,136.659  L-40,142.538  L-40,147.976  L-40,152.915  L-40,157.305  L-40,161.099  L-40,164.259  L-40,166.751  L-40,168.55  L-40,169.636  L-40,170 " /><path d="M-50,110 L-50,117  L-50,123.823  L-50,130.399  L-50,136.659  L-50,142.538  L-50,147.976  L-50,152.915  L-50,157.305  L-50,161.099  L-50,164.259  L-50,166.751  L-50,168.55  L-50,169.636  L-50,170 " /><path id= "192" d=" M -50 110 L -60 110 " />
<path d="M-60,110 L-60,117  L-60,123.823  L-60,130.399  L-60,136.659  L-60,142.538  L-60,147.976  L-60,152.915  L-60,157.305  L-60,161.099  L-60,164.259  L-60,166.751  L-60,168.55  L-60,169.636  L-60,170 " /><path d="M-70,110 L-70,117  L-70,123.823  L-70,130.399  L-70,136.659  L-70,142.538  L-70,147.976  L-70,152.915  L-70,157.305  L-70,161.099  L-70,164.259  L-70,166.751  L-70,168.55  L-70,169.636  L-70,170 " /><path id= "195" d=" M -70 110 L -80 110 " />
<path d="M-80,110 L-80,117  L-80,123.823  L-80,130.399  L-80,136.659  L-80,142.538  L-80,147.976  L-80,152.915  L-80,157.305  L-80,161.099  L-80,164.259  L-80,166.751  L-80,168.55  L-80,169.636  L-80,170 " /><path d="M-90,110 L-90,117  L-90,123.823  L-90,130.399  L-90,136.659  L-90,142.538  L-90,147.976  L-90,152.915  L-90,157.305  L-90,161.099  L-90,164.259  L-90,166.751  L-90,168.55  L-90,169.636  L-90,170 " /><path id= "198" d=" M -90 110 L -100 110 " />
<path d="M-100,110 L-100,117  L-100,123.823  L-100,130.399  L-100,136.659  L-100,142.538  L-100,147.976  L-100,152.915  L-100,157.305  L-100,161.099  L-100,164.259  L-100,166.751  L-100,168.55  L-100,169.636  L-100,170 " /><path id= "200" d=" M -105 100 L 95 100 " />
<path id= "201" d=" M 90 170 L 95 170 " />
<path id= "202" d=" M 70 170 L 80 170 " />
<path id= "203" d=" M 50 170 L 60 170 " />
<path id= "204" d=" M 30 170 L 40 170 " />
<path id= "205" d=" M 10 170 L 20 170 " />
<path id= "206" d=" M -10 170 L 0 170 " />
<path id= "207" d=" M -30 170 L -20 170 " />
<path id= "208" d=" M -50 170 L -40 170 " />
<path id= "209" d=" M -70 170 L -60 170 " />
<path id= "210" d=" M -90 170 L -80 170 " />
<path id= "211" d=" M -105 170 L -100 170 " />
<path d="M-105,-170 L-105,-169.56  L-105,-168.245  L-105,-166.072  L-105,-163.068  L-105,-159.271  L-105,-154.728  L-105,-149.497  L-105,-143.644  L-105,-137.242  L-105,-130.372  L-105,-123.12  L-105,-115.576  L-105,-107.838  L-105,-100 " /><path d="M95,-170 L95,-169.56  L95,-168.245  L95,-166.072  L95,-163.068  L95,-159.271  L95,-154.728  L95,-149.497  L95,-143.644  L95,-137.242  L95,-130.372  L95,-123.12  L95,-115.576  L95,-107.838  L95,-100 " /><path d="M90,-110 L90,-117  L90,-123.823  L90,-130.399  L90,-136.659  L90,-142.538  L90,-147.976  L90,-152.915  L90,-157.305  L90,-161.099  L90,-164.259  L90,-166.751  L90,-168.55  L90,-169.636  L90,-170 " /><path id= "215" d=" M 90 -110 L 80 -110 " />
<path d="M80,-110 L80,-117  L80,-123.823  L80,-130.399  L80,-136.659  L80,-142.538  L80,-147.976  L80,-152.915  L80,-157.305  L80,-161.099  L80,-164.259  L80,-166.751  L80,-168.55  L80,-169.636  L80,-170 " /><path d="M70,-110 L70,-117  L70,-123.823  L70,-130.399  L70,-136.659  L70,-142.538  L70,-147.976  L70,-152.915  L70,-157.305  L70,-161.099  L70,-164.259  L70,-166.751  L70,-168.55  L70,-169.636  L70,-170 " /><path id= "218" d=" M 70 -110 L 60 -110 " />
<path d="M60,-110 L60,-117  L60,-123.823  L60,-130.399  L60,-136.659  L60,-142.538  L60,-147.976  L60,-152.915  L60,-157.305  L60,-161.099  L60,-164.259  L60,-166.751  L60,-168.55  L60,-169.636  L60,-170 " /><path d="M50,-110 L50,-117  L50,-123.823  L50,-130.399  L50,-136.659  L50,-142.538  L50,-147.976  L50,-152.915  L50,-157.305  L50,-161.099  L50,-164.259  L50,-166.751  L50,-168.55  L50,-169.636  L50,-170 " /><path id= "221" d=" M 50 -110 L 40 -110 " />
<path d="M40,-110 L40,-117  L40,-123.823  L40,-130.399  L40,-136.659  L40,-142.538  L40,-147.976  L40,-152.915  L40,-157.305  L40,-161.099  L40,-164.259  L40,-166.751  L40,-168.55  L40,-169.636  L40,-170 " /><path d="M30,-110 L30,-117  L30,-123.823  L30,-130.399  L30,-136.659  L30,-142.538  L30,-147.976  L30,-152.915  L30,-157.305  L30,-161.099  L30,-164.259  L30,-166.751  L30,-168.55  L30,-169.636  L30,-170 " /><path id= "224" d=" M 30 -110 L 20 -110 " />
<path d="M20,-110 L20,-117  L20,-123.823  L20,-130.399  L20,-136.659  L20,-142.538  L20,-147.976  L20,-152.915  L20,-157.305  L20,-161.099  L20,-164.259  L20,-166.751  L20,-168.55  L20,-169.636  L20,-170 " /><path d="M10,-110 L10,-117  L10,-123.823  L10,-130.399  L10,-136.659  L10,-142.538  L10,-147.976  L10,-152.915  L10,-157.305  L10,-161.099  L10,-164.259  L10,-166.751  L10,-168.55  L10,-169.636  L10,-170 " /><path id= "227" d=" M 10 -110 L 0 -110 " />
<path d="M-3.65979e-14,-110 L-3.42865e-14,-117  L-3.16189e-14,-123.823  L-2.86229e-14,-130.399  L-2.53296e-14,-136.659  L-2.17731e-14,-142.538  L-1.79906e-14,-147.976  L-1.40211e-14,-152.915  L-9.90604e-15,-157.305  L-5.68807e-15,-161.099  L-1.41101e-15,-164.259  L2.8807e-15,-166.751  L7.14249e-15,-168.55  L1.13301e-14,-169.636  L1.54e-14,-170 " /><path d="M-10,-110 L-10,-117  L-10,-123.823  L-10,-130.399  L-10,-136.659  L-10,-142.538  L-10,-147.976  L-10,-152.915  L-10,-157.305  L-10,-161.099  L-10,-164.259  L-10,-166.751  L-10,-168.55  L-10,-169.636  L-10,-170 " /><path id= "230" d=" M -10 -110 L -20 -110 " />
<path d="M-20,-110 L-20,-117  L-20,-123.823  L-20,-130.399  L-20,-136.659  L-20,-142.538  L-20,-147.976  L-20,-152.915  L-20,-157.305  L-20,-161.099  L-20,-164.259  L-20,-166.751  L-20,-168.55  L-20,-169.636  L-20,-170 " /><path d="M-30,-110 L-30,-117  L-30,-123.823  L-30,-130.399  L-30,-136.659  L-30,-142.538  L-30,-147.976  L-30,-152.915  L-30,-157.305  L-30,-161.099  L-30,-164.259  L-30,-166.751  L-30,-168.55  L-30,-169.636  L-30,-170 " /><path id= "233" d=" M -30 -110 L -40 -110 " />
<path d="M-40,-110 L-40,-117  L-40,-123.823  L-40,-130.399  L-40,-136.659  L-40,-142.538  L-40,-147.976  L-40,-152.915  L-40,-157.305  L-40,-161.099  L-40,-164.259  L-40,-166.751  L-40,-168.55  L-40,-169.636  L-40,-170 " /><path d="M-50,-110 L-50,-117  L-50,-123.823  L-50,-130.399  L-50,-136.659  L-50,-142.538  L-50,-147.976  L-50,-152.915  L-50,-157.305  L-50,-161.099  L-50,-164.259  L-50,-166.751  L-50,-168.55  L-50,-169.636  L-50,-170 " /><path id= "236" d=" M -50 -110 L -60 -110 " />
<path d="M-60,-110 L-60,-117  L-60,-123.823  L-60,-130.399  L-60,-136.659  L-60,-142.538  L-60,-147.976  L-60,-152.915  L-60,-157.305  L-60,-161.099  L-60,-164.259  L-60,-166.751  L-60,-168.55  L-60,-169.636  L-60,-170 " /><path d="M-70,-110 L-70,-117  L-70,-123.823  L-70,-130.399  L-70,-136.659  L-70,-142.538  L-70,-147.976  L-70,-152.915  L-70,-157.305  L-70,-161.099  L-70,-164.259  L-70,-166.751  L-70,-168.55  L-70,-169.636  L-70,-170 " /><path id= "239" d=" M -70 -110 L -80 -110 " />
<path d="M-80,-110 L-80,-117  L-80,-123.823  L-80,-130.399  L-80,-136.659  L-80,-142.538  L-80,-147.976  L-80,-152.915  L-80,-157.305  L-80,-161.099  L-80,-164.259  L-80,-166.751  L-80,-168.55  L-80,-169.636  L-80,-170 " /><path d="M-90,-110 L-90,-117  L-90,-123.823  L-90,-130.399  L-90,-136.659  L-90,-142.538  L-90,-147.976  L-90,-152.915  L-90,-157.305  L-90,-161.099  L-90,-164.259  L-90,-166.751  L-90,-168.55  L-90,-169.636  L-90,-170 " /><path id= "242" d=" M -90 -110 L -100 -110 " />
<path d="M-100,-110 L-100,-117  L-100,-123.823  L-100,-130.399  L-100,-136.659  L-100,-142.538  L-100,-147.976  L-100,-152.915  L-100,-157.305  L-100,-161.099  L-100,-164.259  L-100,-166.751  L-100,-168.55  L-100,-169.636  L-100,-170 " /><path id= "244" d=" M -105 -100 L 95 -100 " />
<path id= "245" d=" M 90 -170 L 95 -170 " />
<path id= "246" d=" M 70 -170 L 80 -170 " />
<path id= "247" d=" M 50 -170 L 60 -170 " />
<path id= "248" d=" M 30 -170 L 40 -170 " />
<path id= "249" d=" M 10 -170 L 20 -170 " />
<path id= "250" d=" M -10 -170 L 0 -170 " />
<path id= "251" d=" M -30 -170 L -20 -170 " />
<path id= "252" d=" M -50 -170 L -40 -170 " />
<path id= "253" d=" M -70 -170 L -60 -170 " />
<path id= "254" d=" M -90 -170 L -80 -170 " />
<path id= "255" d=" M -105 -170 L -100 -170 " />
<circle cx ="135" cy ="17.3205" r ="5" /><path id= "257" d=" M 150 50 L 95 50 " />
<path id= "258" d=" M 150 -50 L 95 -50 " />
<circle cx ="105" cy ="0" r ="5" /><circle cx ="135" cy ="-17.3205" r ="5" /><path id= "261" d=" M 95 100 L 95 -100 " />
<path id= "262" d=" M 95 100 L -105 100 " />
<path id= "263" d=" M 95 -100 L -105 -100 " />
<path id= "264" d=" M -105 100 L -105 -100 " />
<path d="M45 94 A1 1 0 0 1 44 95" /><path id= "266" d=" M -94 95 L 44 95 " />
<path d="M-94 95 A1 1 0 0 1 -95 94" /><path id= "268" d=" M -95 94 L -95 86 " />
<path d="M-95 86 A1 1 0 0 1 -94 85" /><path id= "270" d=" M -94 85 L 44 85 " />
<path d="M44 85 A1 1 0 0 1 45 86" /><path id= "272" d=" M 45 94 L 45 86 " />
<path d="M45 74 A1 1 0 0 1 44 75" /><path id= "274" d=" M -94 75 L 44 75 " />
<path d="M-94 75 A1 1 0 0 1 -95 74" /><path id= "276" d=" M -95 74 L -95 66 " />
<path d="M-95 66 A1 1 0 0 1 -94 65" /><path id= "278" d=" M -94 65 L 44 65 " />
<path d="M44 65 A1 1 0 0 1 45 66" /><path id= "280" d=" M 45 74 L 45 66 " />
<path d="M45 54 A1 1 0 0 1 44 55" /><path id= "282" d=" M -94 55 L 44 55 " />
<path d="M-94 55 A1 1 0 0 1 -95 54" /><path id= "284" d=" M -95 54 L -95 46 " />
<path d="M-95 46 A1 1 0 0 1 -94 45" /><path id= "286" d=" M -94 45 L 44 45 " />
<path d="M44 45 A1 1 0 0 1 45 46" /><path id= "288" d=" M 45 54 L 45 46 " />
<path d="M45 34 A1 1 0 0 1 44 35" /><path id= "290" d=" M -94 35 L 44 35 " />
<path d="M-94 35 A1 1 0 0 1 -95 34" /><path id= "292" d=" M -95 34 L -95 26 " />
<path d="M-95 26 A1 1 0 0 1 -94 25" /><path id= "294" d=" M -94 25 L 44 25 " />
<path d="M44 25 A1 1 0 0 1 45 26" /><path id= "296" d=" M 45 34 L 45 26 " />
<path d="M45 14 A1 1 0 0 1 44 15" /><path id= "298" d=" M -94 15 L 44 15 " />
<path d="M-94 15 A1 1 0 0 1 -95 14" /><path id= "300" d=" M -95 14 L -95 6 " />
<path d="M-95 6 A1 1 0 0 1 -94 5" /><path id= "302" d=" M -94 5 L 44 5 " />
<path d="M44 5 A1 1 0 0 1 45 6" /><path id= "304" d=" M 45 14 L 45 6 " />
<path d="M45 -6 A1 1 0 0 1 44 -5" /><path id= "306" d=" M -94 -5 L 44 -5 " />
<path d="M-94 -5 A1 1 0 0 1 -95 -6" /><path id= "308" d=" M -95 -6 L -95 -14 " />
<path d="M-95 -14 A1 1 0 0 1 -94 -15" /><path id= "310" d=" M -94 -15 L 44 -15 " />
<path d="M44 -15 A1 1 0 0 1 45 -14" /><path id= "312" d=" M 45 -6 L 45 -14 " />
<path d="M45 -26 A1 1 0 0 1 44 -25" /><path id= "314" d=" M -94 -25 L 44 -25 " />
<path d="M-94 -25 A1 1 0 0 1 -95 -26" /><path id= "316" d=" M -95 -26 L -95 -34 " />
<path d="M-95 -34 A1 1 0 0 1 -94 -35" /><path id= "318" d=" M -94 -35 L 44 -35 " />
<path d="M44 -35 A1 1 0 0 1 45 -34" /><path id= "320" d=" M 45 -26 L 45 -34 " />
<path d="M45 -46 A1 1 0 0 1 44 -45" /><path id= "322" d=" M -94 -45 L 44 -45 " />
<path d="M-94 -45 A1 1 0 0 1 -95 -46" /><path id= "324" d=" M -95 -46 L -95 -54 " />
<path d="M-95 -54 A1 1 0 0 1 -94 -55" /><path id= "326" d=" M -94 -55 L 44 -55 " />
<path d="M44 -55 A1 1 0 0 1 45 -54" /><path id= "328" d=" M 45 -46 L 45 -54 " />
<path d="M45 -66 A1 1 0 0 1 44 -65" /><path id= "330" d=" M -94 -65 L 44 -65 " />
<path d="M-94 -65 A1 1 0 0 1 -95 -66" /><path id= "332" d=" M -95 -66 L -95 -74 " />
<path d="M-95 -74 A1 1 0 0 1 -94 -75" /><path id= "334" d=" M -94 -75 L 44 -75 " />
<path d="M44 -75 A1 1 0 0 1 45 -74" /><path id= "336" d=" M 45 -66 L 45 -74 " />
<path d="M45 -86 A1 1 0 0 1 44 -85" /><path id= "338" d=" M -94 -85 L 44 -85 " />
<path d="M-94 -85 A1 1 0 0 1 -95 -86" /><path id= "340" d=" M -95 -86 L -95 -94 " />
<path d="M-95 -94 A1 1 0 0 1 -94 -95" /><path id= "342" d=" M -94 -95 L 44 -95 " />
<path d="M44 -95 A1 1 0 0 1 45 -94" /><path id= "344" d=" M 45 -86 L 45 -94 " />
<path id= "345" d=" M 13.0323 10 L 19.5484 15 " />
<path d="M38.637 10.3528 A40 40 0 0 1 37.081 15" /><path id= "347" d=" M 37.3205 10 L 38.637 10.3528 " />
<path d="M38.7298 10 A40 40 0 0 1 38.637 10.3528" /><path d="M38.637,10.3528 L38.6835,10 " /><path id= "350" d=" M 1.31652 10 L 1.97479 15 " />
<path id= "351" d=" M 3.29131 25 L 4.60784 35 " />
<path d="M20 34.641 A40 40 0 0 1 19.3649 35" /><path id= "353" d=" M 5.7735 10 L 8.66025 15 " />
<path id= "354" d=" M 14.4338 25 L 20 34.641 " />
<path d="M28.2843 28.2843 A40 40 0 0 1 20 34.641" /><path id= "356" d=" M 10 10 L 15 15 " />
<path id= "357" d=" M 25 25 L 28.2843 28.2843 " />
<path d="M20,34.641 L24.1421,31.4626 " /><path d="M24.1421,31.4626 L28.2843,28.2843 " /><path id= "360" d=" M -6.08761 7.93353 L -11.5099 15 " />
<path id= "361" d=" M -19.1832 25 L -24.3505 31.7341 " />
<path d="M-19.3649 35 A40 40 0 0 1 -24.3505 31.7341" /><path id= "363" d=" M -2.58819 9.65926 L -4.01924 15 " />
<path id= "364" d=" M -6.69873 25 L -9.37822 35 " />
<path id= "365" d=" M 0 10 L 0 15 " />
<path id= "366" d=" M 0 25 L 0 35 " />
<path id= "367" d=" M -37.9788 5 L -39.6578 5.22105 " />
<path d="M-37.081 15 A40 40 0 0 1 -39.6578 5.22105" /><path id= "369" d=" M -8.66025 5 L -25.9808 15 " />
<path d="M-28.2843 28.2843 A40 40 0 0 1 -31.225 25" /><path id= "371" d=" M -7.07107 7.07107 L -15 15 " />
<path id= "372" d=" M -25 25 L -28.2843 28.2843 " />
<path d="M-30.8044,25 L-28.2843,28.2843 " /><path id= "374" d=" M -7.93353 -6.08761 L -19.5484 -15 " />
<path d="M-38.637 -10.3528 A40 40 0 0 1 -37.081 -15" /><path id= "376" d=" M -18.6603 -5 L -38.637 -10.3528 " />
<path d="M-39.6863 -5 A40 40 0 0 1 -38.637 -10.3528" /><path d="M-38.637,-10.3528 L-39.3185,-5.17638 " /><path d="M-39.3185,-5.17638 L-39.3417,-5 " /><path id= "380" d=" M -1.30526 -9.91445 L -1.97479 -15 " />
<path id= "381" d=" M -3.29131 -25 L -4.60784 -35 " />
<path d="M-20 -34.641 A40 40 0 0 1 -19.3649 -35" /><path id= "383" d=" M -5 -8.66025 L -8.66025 -15 " />
<path id= "384" d=" M -14.4338 -25 L -20 -34.641 " />
<path d="M-28.2843 -28.2843 A40 40 0 0 1 -20 -34.641" /><path id= "386" d=" M -7.07107 -7.07107 L -15 -15 " />
<path id= "387" d=" M -25 -25 L -28.2843 -28.2843 " />
<path d="M-20,-34.641 L-24.1421,-31.4626 " /><path d="M-24.1421,-31.4626 L-28.2843,-28.2843 " /><path id= "390" d=" M 7.67327 -10 L 11.5099 -15 " />
<path id= "391" d=" M 19.1832 -25 L 24.3505 -31.7341 " />
<path d="M19.3649 -35 A40 40 0 0 1 24.3505 -31.7341" /><path id= "393" d=" M 2.67949 -10 L 4.01924 -15 " />
<path id= "394" d=" M 6.69873 -25 L 9.37822 -35 " />
<path id= "395" d=" M 0 -10 L 0 -15 " />
<path id= "396" d=" M 0 -25 L 0 -35 " />
<path d="M37.081 -15 A40 40 0 0 1 38.7298 -10" /><path id= "398" d=" M 17.3205 -10 L 25.9808 -15 " />
<path d="M28.2843 -28.2843 A40 40 0 0 1 31.225 -25" /><path id= "400" d=" M 10 -10 L 15 -15 " />
<path id= "401" d=" M 25 -25 L 28.2843 -28.2843 " />
<path d="M30.8044,-25 L28.2843,-28.2843 " /><path d="M8.66025 5 A10 10 0 0 1 -8.66025 5" /><path d="M-8.66025 -5 A10 10 0 0 1 8.66025 -5" /><path d="M45 89.3029 A100 100 0 0 1 31.225 95" /><path d="M-31.225 95 A100 100 0 0 1 -52.6783 85" /><path d="M-66.1438 75 A100 100 0 0 1 -75.9934 65" /><path d="M-83.5165 55 A100 100 0 0 1 -89.3029 45" /><path d="M-93.675 35 A100 100 0 0 1 -95 31.225" /><path d="M-95 -31.225 A100 100 0 0 1 -93.675 -35" /><path d="M-89.3029 -45 A100 100 0 0 1 -83.5165 -55" /><path d="M-75.9934 -65 A100 100 0 0 1 -66.1438 -75" /><path d="M-52.6783 -85 A100 100 0 0 1 -31.225 -95" /><path d="M31.225 -95 A100 100 0 0 1 45 -89.3029" /><path d="M-24.5343 -45 A98.6542 98.6542 0 0 1 -25.4285 -48.5769" /><path d="M-21.0518 -55 A7 7 0 0 1 -25.4285 -48.5769" /><path d="M-13.2482 -13.2482 A3 3 0 0 1 -15.885 -15" /><path d="M-27.8741 -65 A98.75 98.75 0 0 1 -27.9704 -67.0222" /><path d="M-30.4728 -67.0417 A9 9 0 0 1 -38.1026 -75" /><path d="M-20.2019 -75 A9 9 0 0 1 -27.9704 -67.0222" /><path d="M-25.533 -30.7906 A5 5 0 0 1 -27.6458 -35" /><path d="M-30.3781 -65 A101.25 101.25 0 0 1 -30.4728 -67.0417" /><path d="M-27.3441 -45 A101.37 101.37 0 0 1 -28.0969 -48.0645" /><path d="M-28.0969 -48.0645 A7 7 0 0 1 -35.0668 -55" /><path d="M-44.4473 -11.9257 A5 5 0 0 1 -37.8958 -12.8028" /><path d="M-44.4473 -11.9257 A98.6542 98.6542 0 0 1 -50.0764 -15" /><path d="M-62.5448 -25 A7 7 0 0 1 -55.0023 -25" /><path d="M-64.2383 -25 A98.75 98.75 0 0 1 -67.1699 -27.6138" /><path d="M-68.9532 -25.8581 A9 9 0 0 1 -70.3646 -25" /><path d="M-78.2643 -25 A9 9 0 0 1 -83.1088 -35" /><path d="M-65.5202 -35 A9 9 0 0 1 -67.1699 -27.6138" /><path d="M-44.0957 -5 A5 5 0 0 1 -45.6054 -9.46865" /><path d="M-68.0188 -25 A101.25 101.25 0 0 1 -68.9532 -25.8581" /><path d="M-45.6054 -9.46865 A101.37 101.37 0 0 1 -53.8542 -14.1193" /><path d="M-53.8542 -14.1193 A7 7 0 0 1 -64.4637 -15" /><path d="M12.2068 -45 A98.6542 98.6542 0 0 1 16.3684 -52.3297" /><path d="M24.9985 -55 A7 7 0 0 1 16.3684 -52.3297" /><path d="M25.6591 -65 A98.75 98.75 0 0 1 27.6138 -67.1699" /><path d="M25.8581 -68.9532 A9 9 0 0 1 24.1131 -75" /><path d="M42.0608 -75 A9 9 0 0 1 27.6138 -67.1699" /><path d="M6.1389 -45 A5 5 0 0 1 9.46865 -45.6054" /><path d="M22.3691 -65 A101.25 101.25 0 0 1 25.8581 -68.9532" /><path d="M9.46865 -45.6054 A101.37 101.37 0 0 1 14.1193 -53.8542" /><path d="M14.1193 -53.8542 A7 7 0 0 1 13.2002 -55" /><path d="M15.8733 -65 A7 7 0 0 1 22.3068 -65" /><path d="M13.2482 -13.2482 A3 3 0 0 1 13.8801 -15" /><path d="M30.7906 -25.533 A5 5 0 0 1 38.9433 -25.5526" /><path d="M38.9433 -25.5526 A101.37 101.37 0 0 1 45 -27.3441" /><path d="M-46.7917 25 A98.6542 98.6542 0 0 1 -48.5769 25.4285" /><path d="M-62.0559 27.6593 A7 7 0 0 1 -61.3667 25" /><path d="M-48.767 25 A7 7 0 0 1 -48.5769 25.4285" /><path d="M-13.2482 13.2482 A3 3 0 0 1 -13.8801 15" /><path d="M-62.0559 27.6593 A98.75 98.75 0 0 1 -67.0222 27.9704" /><path d="M-67.0417 30.4728 A9 9 0 0 1 -69.1029 35" /><path d="M-82.7856 35 A9 9 0 0 1 -83.9292 25" /><path d="M-67.9594 25 A9 9 0 0 1 -67.0222 27.9704" /><path d="M-30.7906 25.533 A5 5 0 0 1 -38.9433 25.5526" /><path d="M-61.7499 30.142 A101.25 101.25 0 0 1 -67.0417 30.4728" /><path d="M-38.9433 25.5526 A101.37 101.37 0 0 1 -48.0645 28.0969" /><path d="M-48.0645 28.0969 A7 7 0 0 1 -54.0977 35" /><path d="M-56.0312 35 A7 7 0 0 1 -61.7499 30.142" /><path d="M-12.2068 45 A98.6542 98.6542 0 0 1 -16.3684 52.3297" /><path d="M-24.9985 55 A7 7 0 0 1 -16.3684 52.3297" /><path d="M-25.6591 65 A98.75 98.75 0 0 1 -27.6138 67.1699" /><path d="M-25.8581 68.9532 A9 9 0 0 1 -24.1131 75" /><path d="M-42.0608 75 A9 9 0 0 1 -27.6138 67.1699" /><path d="M-6.1389 45 A5 5 0 0 1 -9.46865 45.6054" /><path d="M-22.3691 65 A101.25 101.25 0 0 1 -25.8581 68.9532" /><path d="M-9.46865 45.6054 A101.37 101.37 0 0 1 -14.1193 53.8542" /><path d="M-14.1193 53.8542 A7 7 0 0 1 -13.2002 55" /><path d="M-15.8733 65 A7 7 0 0 1 -22.3068 65" /><path d="M44.4473 11.9257 A5 5 0 0 1 37.8958 12.8028" /><path d="M44.4473 11.9257 A98.6542 98.6542 0 0 1 45 12.2068" /><path d="M24.5343 45 A98.6542 98.6542 0 0 1 25.4285 48.5769" /><path d="M21.0518 55 A7 7 0 0 1 25.4285 48.5769" /><path d="M13.2482 13.2482 A3 3 0 0 1 15.885 15" /><path d="M27.8741 65 A98.75 98.75 0 0 1 27.9704 67.0222" /><path d="M30.4728 67.0417 A9 9 0 0 1 38.1026 75" /><path d="M20.2019 75 A9 9 0 0 1 27.9704 67.0222" /><path d="M25.533 30.7906 A5 5 0 0 1 27.6458 35" /><path d="M30.3781 65 A101.25 101.25 0 0 1 30.4728 67.0417" /><path d="M27.3441 45 A101.37 101.37 0 0 1 28.0969 48.0645" /><path d="M28.0969 48.0645 A7 7 0 0 1 35.0668 55" /><path d="M23.2568 148.186 A150 150 0 0 1 20 148.661" /><path d="M30 133.191 A33.9618 33.9618 0 0 1 20 144.72" /><path d="M98.2223 50 A110.498 110.498 0 0 1 118.025 92.5744" /><path d="M118.025 92.5744 A150 150 0 0 1 95 116.082" /><path d="M90 120 A150 150 0 0 1 80 126.886" /><path d="M70 132.665 A150 150 0 0 1 60 137.477" /><path d="M50 141.421 A150 150 0 0 1 40 144.568" /><path d="M30 146.969 A150 150 0 0 1 23.2568 148.186" /><path d="M35.0514 93.6557 A33.9618 33.9618 0 0 1 36.2409 95" /><path d="M43.4897 110 A33.9618 33.9618 0 0 1 40 133.154" /><path d="M30 144.434 A33.9618 33.9618 0 0 1 23.2568 148.186" /><path d="M45 89.3029 A100 100 0 0 1 35.0514 93.6557" /><path d="M20,148.553 L23.2568,148.186 " /><path d="M-149.248 15 A150 150 0 0 1 -149.649 10.253" /><path d="M-115 33.8857 A33.9618 33.9618 0 0 1 -140.259 25" /><path d="M-147.742 15 A33.9618 33.9618 0 0 1 -149.649 10.253" /><path d="M-41.4395 91.0097 A110.498 110.498 0 0 1 -45.9567 95" /><path d="M-70 110.307 A110.498 110.498 0 0 1 -80 114.402" /><path d="M-90 117.414 A110.498 110.498 0 0 1 -92.5744 118.025" /><path d="M-92.5744 118.025 A150 150 0 0 1 -100 111.803" /><path d="M-105 107.121 A150 150 0 0 1 -111.803 100" /><path d="M-116.082 95 A150 150 0 0 1 -123.592 85" /><path d="M-129.904 75 A150 150 0 0 1 -135.185 65" /><path d="M-139.553 55 A150 150 0 0 1 -143.091 45" /><path d="M-145.86 35 A150 150 0 0 1 -147.902 25" /><path d="M-140.051 35 A33.9618 33.9618 0 0 1 -147.403 25" /><path d="M-41.4395 91.0097 A100 100 0 0 1 -52.6783 85" /><path d="M-66.1438 75 A100 100 0 0 1 -75.9934 65" /><path d="M-83.5165 55 A100 100 0 0 1 -89.3029 45" /><path d="M-149.649,10.253 L-149.115,15 " /><path d="M-20 -148.661 A150 150 0 0 1 -10.253 -149.649" /><path d="M-33.1741 -110 A33.9618 33.9618 0 0 1 -30 -133.191" /><path d="M-20 -144.72 A33.9618 33.9618 0 0 1 -10.253 -149.649" /><path d="M-94.2101 -45.0223 A110.498 110.498 0 0 1 -94.999 -45.9555" /><path d="M-116.037 -85 A110.498 110.498 0 0 1 -118.025 -92.5744" /><path d="M-118.025 -92.5744 A150 150 0 0 1 -116.082 -95" /><path d="M-111.803 -100 A150 150 0 0 1 -105 -107.121" /><path d="M-100 -111.803 A150 150 0 0 1 -90 -120" /><path d="M-80 -126.886 A150 150 0 0 1 -70 -132.665" /><path d="M-60 -137.477 A150 150 0 0 1 -50 -141.421" /><path d="M-40 -144.568 A150 150 0 0 1 -30 -146.969" /><path d="M-35.0514 -93.6557 A33.9618 33.9618 0 0 1 -36.2409 -95" /><path d="M-40 -133.154 A33.9618 33.9618 0 0 1 -30 -144.434" /><path d="M-89.3029 -45 A100 100 0 0 1 -83.5165 -55" /><path d="M-75.9934 -65 A100 100 0 0 1 -66.1438 -75" /><path d="M-52.6783 -85 A100 100 0 0 1 -35.0514 -93.6557" /><path d="M-10.253,-149.649 L-16.7549,-148.918 " /><path d="M-16.7549,-148.918 L-20,-148.553 " /><path d="M41.4395 -91.0097 A110.498 110.498 0 0 1 44.9841 -94.1774" /><path d="M69.3489 -110 A110.498 110.498 0 0 1 70 -110.307" /><path d="M80 -114.402 A110.498 110.498 0 0 1 90 -117.414" /><path d="M95 -116.082 A150 150 0 0 1 141.421 -50" /><path d="M41.4395 -91.0097 A100 100 0 0 1 45 -89.3029" /></g>
</g>



</svg>
